G04 #@! TF.GenerationSoftware,KiCad,Pcbnew,(5.1.4)-1*
G04 #@! TF.CreationDate,2020-03-20T17:51:06+00:00*
G04 #@! TF.ProjectId,drv120_solenoid_driver,64727631-3230-45f7-936f-6c656e6f6964,rev?*
G04 #@! TF.SameCoordinates,Original*
G04 #@! TF.FileFunction,Legend,Top*
G04 #@! TF.FilePolarity,Positive*
%FSLAX46Y46*%
G04 Gerber Fmt 4.6, Leading zero omitted, Abs format (unit mm)*
G04 Created by KiCad (PCBNEW (5.1.4)-1) date 2020-03-20 17:51:06*
%MOMM*%
%LPD*%
G04 APERTURE LIST*
%ADD10C,0.120000*%
%ADD11C,0.150000*%
%ADD12C,0.100000*%
G04 APERTURE END LIST*
D10*
X134112000Y-109728000D02*
X134112000Y-96774000D01*
X157734000Y-109728000D02*
X134112000Y-109728000D01*
X157734000Y-96774000D02*
X157734000Y-109728000D01*
X134112000Y-96774000D02*
X157734000Y-96774000D01*
D11*
X150329000Y-97789000D02*
X148979000Y-97789000D01*
X150329000Y-100939000D02*
X154979000Y-100939000D01*
X150329000Y-97689000D02*
X154979000Y-97689000D01*
X150329000Y-100939000D02*
X150329000Y-100739000D01*
X154979000Y-100939000D02*
X154979000Y-100739000D01*
X154979000Y-97689000D02*
X154979000Y-97889000D01*
X150329000Y-97689000D02*
X150329000Y-97789000D01*
D10*
X140723252Y-107748000D02*
X140200748Y-107748000D01*
X140723252Y-109168000D02*
X140200748Y-109168000D01*
X148663922Y-109168000D02*
X149181078Y-109168000D01*
X148663922Y-107748000D02*
X149181078Y-107748000D01*
X145117078Y-107748000D02*
X144599922Y-107748000D01*
X145117078Y-109168000D02*
X144599922Y-109168000D01*
X151832000Y-109026000D02*
X151832000Y-107696000D01*
X153162000Y-109026000D02*
X151832000Y-109026000D01*
X154432000Y-109026000D02*
X154432000Y-106366000D01*
X154432000Y-106366000D02*
X157032000Y-106366000D01*
X154432000Y-109026000D02*
X157032000Y-109026000D01*
X157032000Y-109026000D02*
X157032000Y-106366000D01*
X137474000Y-109026000D02*
X136144000Y-109026000D01*
X137474000Y-107696000D02*
X137474000Y-109026000D01*
X137474000Y-106426000D02*
X134814000Y-106426000D01*
X134814000Y-106426000D02*
X134814000Y-103826000D01*
X137474000Y-106426000D02*
X137474000Y-103826000D01*
X137474000Y-103826000D02*
X134814000Y-103826000D01*
X137474000Y-102930000D02*
X136144000Y-102930000D01*
X137474000Y-101600000D02*
X137474000Y-102930000D01*
X137474000Y-100330000D02*
X134814000Y-100330000D01*
X134814000Y-100330000D02*
X134814000Y-97730000D01*
X137474000Y-100330000D02*
X137474000Y-97730000D01*
X137474000Y-97730000D02*
X134814000Y-97730000D01*
X148040000Y-101474000D02*
X154940000Y-101474000D01*
X148040000Y-104774000D02*
X154940000Y-104774000D01*
X148040000Y-101474000D02*
X148040000Y-104774000D01*
X140913751Y-106170751D02*
X141701251Y-106170751D01*
X141307501Y-106564501D02*
X141307501Y-105777001D01*
X145500564Y-105537001D02*
X146565001Y-104472564D01*
X140809438Y-105537001D02*
X139745001Y-104472564D01*
X140809438Y-105537001D02*
X142095001Y-105537001D01*
X145500564Y-105537001D02*
X144215001Y-105537001D01*
X146565001Y-104472564D02*
X146565001Y-98717001D01*
X139745001Y-104472564D02*
X139745001Y-98717001D01*
X139745001Y-98717001D02*
X142095001Y-98717001D01*
X146565001Y-98717001D02*
X144215001Y-98717001D01*
D12*
X147256571Y-97633285D02*
X147256571Y-98240428D01*
X147292285Y-98311857D01*
X147328000Y-98347571D01*
X147399428Y-98383285D01*
X147542285Y-98383285D01*
X147613714Y-98347571D01*
X147649428Y-98311857D01*
X147685142Y-98240428D01*
X147685142Y-97633285D01*
X148435142Y-98383285D02*
X148006571Y-98383285D01*
X148220857Y-98383285D02*
X148220857Y-97633285D01*
X148149428Y-97740428D01*
X148078000Y-97811857D01*
X148006571Y-97847571D01*
X140337000Y-107201857D02*
X140301285Y-107237571D01*
X140194142Y-107273285D01*
X140122714Y-107273285D01*
X140015571Y-107237571D01*
X139944142Y-107166142D01*
X139908428Y-107094714D01*
X139872714Y-106951857D01*
X139872714Y-106844714D01*
X139908428Y-106701857D01*
X139944142Y-106630428D01*
X140015571Y-106559000D01*
X140122714Y-106523285D01*
X140194142Y-106523285D01*
X140301285Y-106559000D01*
X140337000Y-106594714D01*
X141051285Y-107273285D02*
X140622714Y-107273285D01*
X140837000Y-107273285D02*
X140837000Y-106523285D01*
X140765571Y-106630428D01*
X140694142Y-106701857D01*
X140622714Y-106737571D01*
X148719000Y-107273285D02*
X148469000Y-106916142D01*
X148290428Y-107273285D02*
X148290428Y-106523285D01*
X148576142Y-106523285D01*
X148647571Y-106559000D01*
X148683285Y-106594714D01*
X148719000Y-106666142D01*
X148719000Y-106773285D01*
X148683285Y-106844714D01*
X148647571Y-106880428D01*
X148576142Y-106916142D01*
X148290428Y-106916142D01*
X149004714Y-106594714D02*
X149040428Y-106559000D01*
X149111857Y-106523285D01*
X149290428Y-106523285D01*
X149361857Y-106559000D01*
X149397571Y-106594714D01*
X149433285Y-106666142D01*
X149433285Y-106737571D01*
X149397571Y-106844714D01*
X148969000Y-107273285D01*
X149433285Y-107273285D01*
X144655000Y-107273285D02*
X144405000Y-106916142D01*
X144226428Y-107273285D02*
X144226428Y-106523285D01*
X144512142Y-106523285D01*
X144583571Y-106559000D01*
X144619285Y-106594714D01*
X144655000Y-106666142D01*
X144655000Y-106773285D01*
X144619285Y-106844714D01*
X144583571Y-106880428D01*
X144512142Y-106916142D01*
X144226428Y-106916142D01*
X145369285Y-107273285D02*
X144940714Y-107273285D01*
X145155000Y-107273285D02*
X145155000Y-106523285D01*
X145083571Y-106630428D01*
X145012142Y-106701857D01*
X144940714Y-106737571D01*
X150880000Y-106523285D02*
X150880000Y-107059000D01*
X150844285Y-107166142D01*
X150772857Y-107237571D01*
X150665714Y-107273285D01*
X150594285Y-107273285D01*
X151165714Y-106523285D02*
X151630000Y-106523285D01*
X151380000Y-106809000D01*
X151487142Y-106809000D01*
X151558571Y-106844714D01*
X151594285Y-106880428D01*
X151630000Y-106951857D01*
X151630000Y-107130428D01*
X151594285Y-107201857D01*
X151558571Y-107237571D01*
X151487142Y-107273285D01*
X151272857Y-107273285D01*
X151201428Y-107237571D01*
X151165714Y-107201857D01*
X151842714Y-106221571D02*
X151949857Y-106257285D01*
X152128428Y-106257285D01*
X152199857Y-106221571D01*
X152235571Y-106185857D01*
X152271285Y-106114428D01*
X152271285Y-106043000D01*
X152235571Y-105971571D01*
X152199857Y-105935857D01*
X152128428Y-105900142D01*
X151985571Y-105864428D01*
X151914142Y-105828714D01*
X151878428Y-105793000D01*
X151842714Y-105721571D01*
X151842714Y-105650142D01*
X151878428Y-105578714D01*
X151914142Y-105543000D01*
X151985571Y-105507285D01*
X152164142Y-105507285D01*
X152271285Y-105543000D01*
X152735571Y-105507285D02*
X152878428Y-105507285D01*
X152949857Y-105543000D01*
X153021285Y-105614428D01*
X153057000Y-105757285D01*
X153057000Y-106007285D01*
X153021285Y-106150142D01*
X152949857Y-106221571D01*
X152878428Y-106257285D01*
X152735571Y-106257285D01*
X152664142Y-106221571D01*
X152592714Y-106150142D01*
X152557000Y-106007285D01*
X152557000Y-105757285D01*
X152592714Y-105614428D01*
X152664142Y-105543000D01*
X152735571Y-105507285D01*
X153735571Y-106257285D02*
X153378428Y-106257285D01*
X153378428Y-105507285D01*
X153985571Y-105864428D02*
X154235571Y-105864428D01*
X154342714Y-106257285D02*
X153985571Y-106257285D01*
X153985571Y-105507285D01*
X154342714Y-105507285D01*
X154664142Y-106257285D02*
X154664142Y-105507285D01*
X155092714Y-106257285D01*
X155092714Y-105507285D01*
X155592714Y-105507285D02*
X155735571Y-105507285D01*
X155807000Y-105543000D01*
X155878428Y-105614428D01*
X155914142Y-105757285D01*
X155914142Y-106007285D01*
X155878428Y-106150142D01*
X155807000Y-106221571D01*
X155735571Y-106257285D01*
X155592714Y-106257285D01*
X155521285Y-106221571D01*
X155449857Y-106150142D01*
X155414142Y-106007285D01*
X155414142Y-105757285D01*
X155449857Y-105614428D01*
X155521285Y-105543000D01*
X155592714Y-105507285D01*
X156235571Y-106257285D02*
X156235571Y-105507285D01*
X156592714Y-106257285D02*
X156592714Y-105507285D01*
X156771285Y-105507285D01*
X156878428Y-105543000D01*
X156949857Y-105614428D01*
X156985571Y-105685857D01*
X157021285Y-105828714D01*
X157021285Y-105935857D01*
X156985571Y-106078714D01*
X156949857Y-106150142D01*
X156878428Y-106221571D01*
X156771285Y-106257285D01*
X156592714Y-106257285D01*
X137926000Y-103475285D02*
X137926000Y-104011000D01*
X137890285Y-104118142D01*
X137818857Y-104189571D01*
X137711714Y-104225285D01*
X137640285Y-104225285D01*
X138247428Y-103546714D02*
X138283142Y-103511000D01*
X138354571Y-103475285D01*
X138533142Y-103475285D01*
X138604571Y-103511000D01*
X138640285Y-103546714D01*
X138676000Y-103618142D01*
X138676000Y-103689571D01*
X138640285Y-103796714D01*
X138211714Y-104225285D01*
X138676000Y-104225285D01*
X138229571Y-108162142D02*
X138229571Y-107590714D01*
X138515285Y-107876428D02*
X137943857Y-107876428D01*
X138122428Y-107233571D02*
X138122428Y-106983571D01*
X138515285Y-106876428D02*
X138515285Y-107233571D01*
X137765285Y-107233571D01*
X137765285Y-106876428D01*
X138515285Y-106555000D02*
X137765285Y-106555000D01*
X138515285Y-106126428D01*
X137765285Y-106126428D01*
X138229571Y-105769285D02*
X138229571Y-105197857D01*
X137926000Y-97379285D02*
X137926000Y-97915000D01*
X137890285Y-98022142D01*
X137818857Y-98093571D01*
X137711714Y-98129285D01*
X137640285Y-98129285D01*
X138676000Y-98129285D02*
X138247428Y-98129285D01*
X138461714Y-98129285D02*
X138461714Y-97379285D01*
X138390285Y-97486428D01*
X138318857Y-97557857D01*
X138247428Y-97593571D01*
X138229571Y-102258571D02*
X138229571Y-101687142D01*
X138515285Y-101972857D02*
X137943857Y-101972857D01*
X138515285Y-101330000D02*
X137765285Y-101330000D01*
X137765285Y-101044285D01*
X137801000Y-100972857D01*
X137836714Y-100937142D01*
X137908142Y-100901428D01*
X138015285Y-100901428D01*
X138086714Y-100937142D01*
X138122428Y-100972857D01*
X138158142Y-101044285D01*
X138158142Y-101330000D01*
X137765285Y-100651428D02*
X138515285Y-100472857D01*
X137979571Y-100330000D01*
X138515285Y-100187142D01*
X137765285Y-100008571D01*
X138515285Y-99294285D02*
X138158142Y-99544285D01*
X138515285Y-99722857D02*
X137765285Y-99722857D01*
X137765285Y-99437142D01*
X137801000Y-99365714D01*
X137836714Y-99330000D01*
X137908142Y-99294285D01*
X138015285Y-99294285D01*
X138086714Y-99330000D01*
X138122428Y-99365714D01*
X138158142Y-99437142D01*
X138158142Y-99722857D01*
X138229571Y-98972857D02*
X138229571Y-98401428D01*
X146592428Y-103971285D02*
X146592428Y-103221285D01*
X146771000Y-103221285D01*
X146878142Y-103257000D01*
X146949571Y-103328428D01*
X146985285Y-103399857D01*
X147021000Y-103542714D01*
X147021000Y-103649857D01*
X146985285Y-103792714D01*
X146949571Y-103864142D01*
X146878142Y-103935571D01*
X146771000Y-103971285D01*
X146592428Y-103971285D01*
X147735285Y-103971285D02*
X147306714Y-103971285D01*
X147521000Y-103971285D02*
X147521000Y-103221285D01*
X147449571Y-103328428D01*
X147378142Y-103399857D01*
X147306714Y-103435571D01*
X140845000Y-98311857D02*
X140809285Y-98347571D01*
X140702142Y-98383285D01*
X140630714Y-98383285D01*
X140523571Y-98347571D01*
X140452142Y-98276142D01*
X140416428Y-98204714D01*
X140380714Y-98061857D01*
X140380714Y-97954714D01*
X140416428Y-97811857D01*
X140452142Y-97740428D01*
X140523571Y-97669000D01*
X140630714Y-97633285D01*
X140702142Y-97633285D01*
X140809285Y-97669000D01*
X140845000Y-97704714D01*
X141130714Y-97704714D02*
X141166428Y-97669000D01*
X141237857Y-97633285D01*
X141416428Y-97633285D01*
X141487857Y-97669000D01*
X141523571Y-97704714D01*
X141559285Y-97776142D01*
X141559285Y-97847571D01*
X141523571Y-97954714D01*
X141095000Y-98383285D01*
X141559285Y-98383285D01*
M02*
