G04 #@! TF.GenerationSoftware,KiCad,Pcbnew,(5.1.4)-1*
G04 #@! TF.CreationDate,2020-03-20T17:51:06+00:00*
G04 #@! TF.ProjectId,drv120_solenoid_driver,64727631-3230-45f7-936f-6c656e6f6964,rev?*
G04 #@! TF.SameCoordinates,Original*
G04 #@! TF.FileFunction,Copper,L2,Bot*
G04 #@! TF.FilePolarity,Positive*
%FSLAX46Y46*%
G04 Gerber Fmt 4.6, Leading zero omitted, Abs format (unit mm)*
G04 Created by KiCad (PCBNEW (5.1.4)-1) date 2020-03-20 17:51:06*
%MOMM*%
%LPD*%
G04 APERTURE LIST*
%ADD10O,1.700000X1.700000*%
%ADD11R,1.700000X1.700000*%
%ADD12C,0.800000*%
%ADD13C,0.250000*%
%ADD14C,0.254000*%
G04 APERTURE END LIST*
D10*
X155702000Y-107696000D03*
D11*
X153162000Y-107696000D03*
D10*
X136144000Y-105156000D03*
D11*
X136144000Y-107696000D03*
D10*
X136144000Y-99060000D03*
D11*
X136144000Y-101600000D03*
D12*
X141487000Y-108458000D03*
X146050000Y-99314000D03*
X152654000Y-98298000D03*
X147320000Y-99568000D03*
X145796000Y-108458000D03*
X147985000Y-108458000D03*
X147828000Y-100584000D03*
D13*
X141487000Y-103877000D02*
X141487000Y-108458000D01*
X146050000Y-99314000D02*
X141487000Y-103877000D01*
X145542000Y-98298000D02*
X136144000Y-107696000D01*
X152654000Y-98298000D02*
X145542000Y-98298000D01*
X147320000Y-99568000D02*
X145796000Y-101092000D01*
X145796000Y-101092000D02*
X145796000Y-108458000D01*
X147828000Y-102362000D02*
X147828000Y-108301000D01*
X147828000Y-108301000D02*
X147985000Y-108458000D01*
X147828000Y-102362000D02*
X147828000Y-100584000D01*
D14*
G36*
X157328001Y-109322000D02*
G01*
X134518000Y-109322000D01*
X134518000Y-105512890D01*
X134702524Y-105512890D01*
X134747175Y-105660099D01*
X134872359Y-105922920D01*
X135046412Y-106156269D01*
X135262645Y-106351178D01*
X135450633Y-106463157D01*
X135294000Y-106463157D01*
X135219311Y-106470513D01*
X135147492Y-106492299D01*
X135081304Y-106527678D01*
X135023289Y-106575289D01*
X134975678Y-106633304D01*
X134940299Y-106699492D01*
X134918513Y-106771311D01*
X134911157Y-106846000D01*
X134911157Y-108546000D01*
X134918513Y-108620689D01*
X134940299Y-108692508D01*
X134975678Y-108758696D01*
X135023289Y-108816711D01*
X135081304Y-108864322D01*
X135147492Y-108899701D01*
X135219311Y-108921487D01*
X135294000Y-108928843D01*
X136994000Y-108928843D01*
X137068689Y-108921487D01*
X137140508Y-108899701D01*
X137206696Y-108864322D01*
X137264711Y-108816711D01*
X137312322Y-108758696D01*
X137347701Y-108692508D01*
X137369487Y-108620689D01*
X137376843Y-108546000D01*
X137376843Y-107178748D01*
X145269000Y-99286592D01*
X145269000Y-99379408D01*
X141146785Y-103501624D01*
X141127473Y-103517473D01*
X141064241Y-103594521D01*
X141017255Y-103682426D01*
X140988322Y-103777808D01*
X140981000Y-103852147D01*
X140981000Y-103852154D01*
X140978553Y-103877000D01*
X140981000Y-103901846D01*
X140981001Y-107859498D01*
X140880358Y-107960141D01*
X140794887Y-108088058D01*
X140736013Y-108230191D01*
X140706000Y-108381078D01*
X140706000Y-108534922D01*
X140736013Y-108685809D01*
X140794887Y-108827942D01*
X140880358Y-108955859D01*
X140989141Y-109064642D01*
X141117058Y-109150113D01*
X141259191Y-109208987D01*
X141410078Y-109239000D01*
X141563922Y-109239000D01*
X141714809Y-109208987D01*
X141856942Y-109150113D01*
X141984859Y-109064642D01*
X142093642Y-108955859D01*
X142179113Y-108827942D01*
X142237987Y-108685809D01*
X142268000Y-108534922D01*
X142268000Y-108381078D01*
X142237987Y-108230191D01*
X142179113Y-108088058D01*
X142093642Y-107960141D01*
X141993000Y-107859499D01*
X141993000Y-104086591D01*
X145984592Y-100095000D01*
X146077409Y-100095000D01*
X145455785Y-100716624D01*
X145436473Y-100732473D01*
X145373241Y-100809521D01*
X145326255Y-100897426D01*
X145297322Y-100992808D01*
X145290000Y-101067147D01*
X145290000Y-101067154D01*
X145287553Y-101092000D01*
X145290000Y-101116846D01*
X145290001Y-107859498D01*
X145189358Y-107960141D01*
X145103887Y-108088058D01*
X145045013Y-108230191D01*
X145015000Y-108381078D01*
X145015000Y-108534922D01*
X145045013Y-108685809D01*
X145103887Y-108827942D01*
X145189358Y-108955859D01*
X145298141Y-109064642D01*
X145426058Y-109150113D01*
X145568191Y-109208987D01*
X145719078Y-109239000D01*
X145872922Y-109239000D01*
X146023809Y-109208987D01*
X146165942Y-109150113D01*
X146293859Y-109064642D01*
X146402642Y-108955859D01*
X146488113Y-108827942D01*
X146546987Y-108685809D01*
X146577000Y-108534922D01*
X146577000Y-108381078D01*
X146546987Y-108230191D01*
X146488113Y-108088058D01*
X146402642Y-107960141D01*
X146302000Y-107859499D01*
X146302000Y-101301591D01*
X147047000Y-100556592D01*
X147047000Y-100660922D01*
X147077013Y-100811809D01*
X147135887Y-100953942D01*
X147221358Y-101081859D01*
X147322001Y-101182502D01*
X147322000Y-102337146D01*
X147322000Y-102337147D01*
X147322001Y-108044486D01*
X147292887Y-108088058D01*
X147234013Y-108230191D01*
X147204000Y-108381078D01*
X147204000Y-108534922D01*
X147234013Y-108685809D01*
X147292887Y-108827942D01*
X147378358Y-108955859D01*
X147487141Y-109064642D01*
X147615058Y-109150113D01*
X147757191Y-109208987D01*
X147908078Y-109239000D01*
X148061922Y-109239000D01*
X148212809Y-109208987D01*
X148354942Y-109150113D01*
X148482859Y-109064642D01*
X148591642Y-108955859D01*
X148677113Y-108827942D01*
X148735987Y-108685809D01*
X148766000Y-108534922D01*
X148766000Y-108381078D01*
X148735987Y-108230191D01*
X148677113Y-108088058D01*
X148591642Y-107960141D01*
X148482859Y-107851358D01*
X148354942Y-107765887D01*
X148334000Y-107757212D01*
X148334000Y-106846000D01*
X151929157Y-106846000D01*
X151929157Y-108546000D01*
X151936513Y-108620689D01*
X151958299Y-108692508D01*
X151993678Y-108758696D01*
X152041289Y-108816711D01*
X152099304Y-108864322D01*
X152165492Y-108899701D01*
X152237311Y-108921487D01*
X152312000Y-108928843D01*
X154012000Y-108928843D01*
X154086689Y-108921487D01*
X154158508Y-108899701D01*
X154224696Y-108864322D01*
X154282711Y-108816711D01*
X154330322Y-108758696D01*
X154365701Y-108692508D01*
X154387487Y-108620689D01*
X154394843Y-108546000D01*
X154394843Y-107696000D01*
X154465044Y-107696000D01*
X154488812Y-107937318D01*
X154559202Y-108169363D01*
X154673509Y-108383216D01*
X154827340Y-108570660D01*
X155014784Y-108724491D01*
X155228637Y-108838798D01*
X155460682Y-108909188D01*
X155641528Y-108927000D01*
X155762472Y-108927000D01*
X155943318Y-108909188D01*
X156175363Y-108838798D01*
X156389216Y-108724491D01*
X156576660Y-108570660D01*
X156730491Y-108383216D01*
X156844798Y-108169363D01*
X156915188Y-107937318D01*
X156938956Y-107696000D01*
X156915188Y-107454682D01*
X156844798Y-107222637D01*
X156730491Y-107008784D01*
X156576660Y-106821340D01*
X156389216Y-106667509D01*
X156175363Y-106553202D01*
X155943318Y-106482812D01*
X155762472Y-106465000D01*
X155641528Y-106465000D01*
X155460682Y-106482812D01*
X155228637Y-106553202D01*
X155014784Y-106667509D01*
X154827340Y-106821340D01*
X154673509Y-107008784D01*
X154559202Y-107222637D01*
X154488812Y-107454682D01*
X154465044Y-107696000D01*
X154394843Y-107696000D01*
X154394843Y-106846000D01*
X154387487Y-106771311D01*
X154365701Y-106699492D01*
X154330322Y-106633304D01*
X154282711Y-106575289D01*
X154224696Y-106527678D01*
X154158508Y-106492299D01*
X154086689Y-106470513D01*
X154012000Y-106463157D01*
X152312000Y-106463157D01*
X152237311Y-106470513D01*
X152165492Y-106492299D01*
X152099304Y-106527678D01*
X152041289Y-106575289D01*
X151993678Y-106633304D01*
X151958299Y-106699492D01*
X151936513Y-106771311D01*
X151929157Y-106846000D01*
X148334000Y-106846000D01*
X148334000Y-101182501D01*
X148434642Y-101081859D01*
X148520113Y-100953942D01*
X148578987Y-100811809D01*
X148609000Y-100660922D01*
X148609000Y-100507078D01*
X148578987Y-100356191D01*
X148520113Y-100214058D01*
X148434642Y-100086141D01*
X148325859Y-99977358D01*
X148197942Y-99891887D01*
X148055809Y-99833013D01*
X148055594Y-99832970D01*
X148070987Y-99795809D01*
X148101000Y-99644922D01*
X148101000Y-99491078D01*
X148070987Y-99340191D01*
X148012113Y-99198058D01*
X147926642Y-99070141D01*
X147817859Y-98961358D01*
X147689942Y-98875887D01*
X147547809Y-98817013D01*
X147482388Y-98804000D01*
X152055499Y-98804000D01*
X152156141Y-98904642D01*
X152284058Y-98990113D01*
X152426191Y-99048987D01*
X152577078Y-99079000D01*
X152730922Y-99079000D01*
X152881809Y-99048987D01*
X153023942Y-98990113D01*
X153151859Y-98904642D01*
X153260642Y-98795859D01*
X153346113Y-98667942D01*
X153404987Y-98525809D01*
X153435000Y-98374922D01*
X153435000Y-98221078D01*
X153404987Y-98070191D01*
X153346113Y-97928058D01*
X153260642Y-97800141D01*
X153151859Y-97691358D01*
X153023942Y-97605887D01*
X152881809Y-97547013D01*
X152730922Y-97517000D01*
X152577078Y-97517000D01*
X152426191Y-97547013D01*
X152284058Y-97605887D01*
X152156141Y-97691358D01*
X152055499Y-97792000D01*
X145566845Y-97792000D01*
X145541999Y-97789553D01*
X145517153Y-97792000D01*
X145517146Y-97792000D01*
X145442807Y-97799322D01*
X145347425Y-97828255D01*
X145259521Y-97875241D01*
X145182473Y-97938473D01*
X145166628Y-97957780D01*
X137574138Y-105550271D01*
X137585476Y-105512890D01*
X137464155Y-105283000D01*
X136271000Y-105283000D01*
X136271000Y-105303000D01*
X136017000Y-105303000D01*
X136017000Y-105283000D01*
X134823845Y-105283000D01*
X134702524Y-105512890D01*
X134518000Y-105512890D01*
X134518000Y-104799110D01*
X134702524Y-104799110D01*
X134823845Y-105029000D01*
X136017000Y-105029000D01*
X136017000Y-103835186D01*
X136271000Y-103835186D01*
X136271000Y-105029000D01*
X137464155Y-105029000D01*
X137585476Y-104799110D01*
X137540825Y-104651901D01*
X137415641Y-104389080D01*
X137241588Y-104155731D01*
X137025355Y-103960822D01*
X136775252Y-103811843D01*
X136500891Y-103714519D01*
X136271000Y-103835186D01*
X136017000Y-103835186D01*
X135787109Y-103714519D01*
X135512748Y-103811843D01*
X135262645Y-103960822D01*
X135046412Y-104155731D01*
X134872359Y-104389080D01*
X134747175Y-104651901D01*
X134702524Y-104799110D01*
X134518000Y-104799110D01*
X134518000Y-99416890D01*
X134702524Y-99416890D01*
X134747175Y-99564099D01*
X134872359Y-99826920D01*
X135046412Y-100060269D01*
X135262645Y-100255178D01*
X135450633Y-100367157D01*
X135294000Y-100367157D01*
X135219311Y-100374513D01*
X135147492Y-100396299D01*
X135081304Y-100431678D01*
X135023289Y-100479289D01*
X134975678Y-100537304D01*
X134940299Y-100603492D01*
X134918513Y-100675311D01*
X134911157Y-100750000D01*
X134911157Y-102450000D01*
X134918513Y-102524689D01*
X134940299Y-102596508D01*
X134975678Y-102662696D01*
X135023289Y-102720711D01*
X135081304Y-102768322D01*
X135147492Y-102803701D01*
X135219311Y-102825487D01*
X135294000Y-102832843D01*
X136994000Y-102832843D01*
X137068689Y-102825487D01*
X137140508Y-102803701D01*
X137206696Y-102768322D01*
X137264711Y-102720711D01*
X137312322Y-102662696D01*
X137347701Y-102596508D01*
X137369487Y-102524689D01*
X137376843Y-102450000D01*
X137376843Y-100750000D01*
X137369487Y-100675311D01*
X137347701Y-100603492D01*
X137312322Y-100537304D01*
X137264711Y-100479289D01*
X137206696Y-100431678D01*
X137140508Y-100396299D01*
X137068689Y-100374513D01*
X136994000Y-100367157D01*
X136837367Y-100367157D01*
X137025355Y-100255178D01*
X137241588Y-100060269D01*
X137415641Y-99826920D01*
X137540825Y-99564099D01*
X137585476Y-99416890D01*
X137464155Y-99187000D01*
X136271000Y-99187000D01*
X136271000Y-99207000D01*
X136017000Y-99207000D01*
X136017000Y-99187000D01*
X134823845Y-99187000D01*
X134702524Y-99416890D01*
X134518000Y-99416890D01*
X134518000Y-98703110D01*
X134702524Y-98703110D01*
X134823845Y-98933000D01*
X136017000Y-98933000D01*
X136017000Y-97739186D01*
X136271000Y-97739186D01*
X136271000Y-98933000D01*
X137464155Y-98933000D01*
X137585476Y-98703110D01*
X137540825Y-98555901D01*
X137415641Y-98293080D01*
X137241588Y-98059731D01*
X137025355Y-97864822D01*
X136775252Y-97715843D01*
X136500891Y-97618519D01*
X136271000Y-97739186D01*
X136017000Y-97739186D01*
X135787109Y-97618519D01*
X135512748Y-97715843D01*
X135262645Y-97864822D01*
X135046412Y-98059731D01*
X134872359Y-98293080D01*
X134747175Y-98555901D01*
X134702524Y-98703110D01*
X134518000Y-98703110D01*
X134518000Y-97180000D01*
X157328000Y-97180000D01*
X157328001Y-109322000D01*
X157328001Y-109322000D01*
G37*
X157328001Y-109322000D02*
X134518000Y-109322000D01*
X134518000Y-105512890D01*
X134702524Y-105512890D01*
X134747175Y-105660099D01*
X134872359Y-105922920D01*
X135046412Y-106156269D01*
X135262645Y-106351178D01*
X135450633Y-106463157D01*
X135294000Y-106463157D01*
X135219311Y-106470513D01*
X135147492Y-106492299D01*
X135081304Y-106527678D01*
X135023289Y-106575289D01*
X134975678Y-106633304D01*
X134940299Y-106699492D01*
X134918513Y-106771311D01*
X134911157Y-106846000D01*
X134911157Y-108546000D01*
X134918513Y-108620689D01*
X134940299Y-108692508D01*
X134975678Y-108758696D01*
X135023289Y-108816711D01*
X135081304Y-108864322D01*
X135147492Y-108899701D01*
X135219311Y-108921487D01*
X135294000Y-108928843D01*
X136994000Y-108928843D01*
X137068689Y-108921487D01*
X137140508Y-108899701D01*
X137206696Y-108864322D01*
X137264711Y-108816711D01*
X137312322Y-108758696D01*
X137347701Y-108692508D01*
X137369487Y-108620689D01*
X137376843Y-108546000D01*
X137376843Y-107178748D01*
X145269000Y-99286592D01*
X145269000Y-99379408D01*
X141146785Y-103501624D01*
X141127473Y-103517473D01*
X141064241Y-103594521D01*
X141017255Y-103682426D01*
X140988322Y-103777808D01*
X140981000Y-103852147D01*
X140981000Y-103852154D01*
X140978553Y-103877000D01*
X140981000Y-103901846D01*
X140981001Y-107859498D01*
X140880358Y-107960141D01*
X140794887Y-108088058D01*
X140736013Y-108230191D01*
X140706000Y-108381078D01*
X140706000Y-108534922D01*
X140736013Y-108685809D01*
X140794887Y-108827942D01*
X140880358Y-108955859D01*
X140989141Y-109064642D01*
X141117058Y-109150113D01*
X141259191Y-109208987D01*
X141410078Y-109239000D01*
X141563922Y-109239000D01*
X141714809Y-109208987D01*
X141856942Y-109150113D01*
X141984859Y-109064642D01*
X142093642Y-108955859D01*
X142179113Y-108827942D01*
X142237987Y-108685809D01*
X142268000Y-108534922D01*
X142268000Y-108381078D01*
X142237987Y-108230191D01*
X142179113Y-108088058D01*
X142093642Y-107960141D01*
X141993000Y-107859499D01*
X141993000Y-104086591D01*
X145984592Y-100095000D01*
X146077409Y-100095000D01*
X145455785Y-100716624D01*
X145436473Y-100732473D01*
X145373241Y-100809521D01*
X145326255Y-100897426D01*
X145297322Y-100992808D01*
X145290000Y-101067147D01*
X145290000Y-101067154D01*
X145287553Y-101092000D01*
X145290000Y-101116846D01*
X145290001Y-107859498D01*
X145189358Y-107960141D01*
X145103887Y-108088058D01*
X145045013Y-108230191D01*
X145015000Y-108381078D01*
X145015000Y-108534922D01*
X145045013Y-108685809D01*
X145103887Y-108827942D01*
X145189358Y-108955859D01*
X145298141Y-109064642D01*
X145426058Y-109150113D01*
X145568191Y-109208987D01*
X145719078Y-109239000D01*
X145872922Y-109239000D01*
X146023809Y-109208987D01*
X146165942Y-109150113D01*
X146293859Y-109064642D01*
X146402642Y-108955859D01*
X146488113Y-108827942D01*
X146546987Y-108685809D01*
X146577000Y-108534922D01*
X146577000Y-108381078D01*
X146546987Y-108230191D01*
X146488113Y-108088058D01*
X146402642Y-107960141D01*
X146302000Y-107859499D01*
X146302000Y-101301591D01*
X147047000Y-100556592D01*
X147047000Y-100660922D01*
X147077013Y-100811809D01*
X147135887Y-100953942D01*
X147221358Y-101081859D01*
X147322001Y-101182502D01*
X147322000Y-102337146D01*
X147322000Y-102337147D01*
X147322001Y-108044486D01*
X147292887Y-108088058D01*
X147234013Y-108230191D01*
X147204000Y-108381078D01*
X147204000Y-108534922D01*
X147234013Y-108685809D01*
X147292887Y-108827942D01*
X147378358Y-108955859D01*
X147487141Y-109064642D01*
X147615058Y-109150113D01*
X147757191Y-109208987D01*
X147908078Y-109239000D01*
X148061922Y-109239000D01*
X148212809Y-109208987D01*
X148354942Y-109150113D01*
X148482859Y-109064642D01*
X148591642Y-108955859D01*
X148677113Y-108827942D01*
X148735987Y-108685809D01*
X148766000Y-108534922D01*
X148766000Y-108381078D01*
X148735987Y-108230191D01*
X148677113Y-108088058D01*
X148591642Y-107960141D01*
X148482859Y-107851358D01*
X148354942Y-107765887D01*
X148334000Y-107757212D01*
X148334000Y-106846000D01*
X151929157Y-106846000D01*
X151929157Y-108546000D01*
X151936513Y-108620689D01*
X151958299Y-108692508D01*
X151993678Y-108758696D01*
X152041289Y-108816711D01*
X152099304Y-108864322D01*
X152165492Y-108899701D01*
X152237311Y-108921487D01*
X152312000Y-108928843D01*
X154012000Y-108928843D01*
X154086689Y-108921487D01*
X154158508Y-108899701D01*
X154224696Y-108864322D01*
X154282711Y-108816711D01*
X154330322Y-108758696D01*
X154365701Y-108692508D01*
X154387487Y-108620689D01*
X154394843Y-108546000D01*
X154394843Y-107696000D01*
X154465044Y-107696000D01*
X154488812Y-107937318D01*
X154559202Y-108169363D01*
X154673509Y-108383216D01*
X154827340Y-108570660D01*
X155014784Y-108724491D01*
X155228637Y-108838798D01*
X155460682Y-108909188D01*
X155641528Y-108927000D01*
X155762472Y-108927000D01*
X155943318Y-108909188D01*
X156175363Y-108838798D01*
X156389216Y-108724491D01*
X156576660Y-108570660D01*
X156730491Y-108383216D01*
X156844798Y-108169363D01*
X156915188Y-107937318D01*
X156938956Y-107696000D01*
X156915188Y-107454682D01*
X156844798Y-107222637D01*
X156730491Y-107008784D01*
X156576660Y-106821340D01*
X156389216Y-106667509D01*
X156175363Y-106553202D01*
X155943318Y-106482812D01*
X155762472Y-106465000D01*
X155641528Y-106465000D01*
X155460682Y-106482812D01*
X155228637Y-106553202D01*
X155014784Y-106667509D01*
X154827340Y-106821340D01*
X154673509Y-107008784D01*
X154559202Y-107222637D01*
X154488812Y-107454682D01*
X154465044Y-107696000D01*
X154394843Y-107696000D01*
X154394843Y-106846000D01*
X154387487Y-106771311D01*
X154365701Y-106699492D01*
X154330322Y-106633304D01*
X154282711Y-106575289D01*
X154224696Y-106527678D01*
X154158508Y-106492299D01*
X154086689Y-106470513D01*
X154012000Y-106463157D01*
X152312000Y-106463157D01*
X152237311Y-106470513D01*
X152165492Y-106492299D01*
X152099304Y-106527678D01*
X152041289Y-106575289D01*
X151993678Y-106633304D01*
X151958299Y-106699492D01*
X151936513Y-106771311D01*
X151929157Y-106846000D01*
X148334000Y-106846000D01*
X148334000Y-101182501D01*
X148434642Y-101081859D01*
X148520113Y-100953942D01*
X148578987Y-100811809D01*
X148609000Y-100660922D01*
X148609000Y-100507078D01*
X148578987Y-100356191D01*
X148520113Y-100214058D01*
X148434642Y-100086141D01*
X148325859Y-99977358D01*
X148197942Y-99891887D01*
X148055809Y-99833013D01*
X148055594Y-99832970D01*
X148070987Y-99795809D01*
X148101000Y-99644922D01*
X148101000Y-99491078D01*
X148070987Y-99340191D01*
X148012113Y-99198058D01*
X147926642Y-99070141D01*
X147817859Y-98961358D01*
X147689942Y-98875887D01*
X147547809Y-98817013D01*
X147482388Y-98804000D01*
X152055499Y-98804000D01*
X152156141Y-98904642D01*
X152284058Y-98990113D01*
X152426191Y-99048987D01*
X152577078Y-99079000D01*
X152730922Y-99079000D01*
X152881809Y-99048987D01*
X153023942Y-98990113D01*
X153151859Y-98904642D01*
X153260642Y-98795859D01*
X153346113Y-98667942D01*
X153404987Y-98525809D01*
X153435000Y-98374922D01*
X153435000Y-98221078D01*
X153404987Y-98070191D01*
X153346113Y-97928058D01*
X153260642Y-97800141D01*
X153151859Y-97691358D01*
X153023942Y-97605887D01*
X152881809Y-97547013D01*
X152730922Y-97517000D01*
X152577078Y-97517000D01*
X152426191Y-97547013D01*
X152284058Y-97605887D01*
X152156141Y-97691358D01*
X152055499Y-97792000D01*
X145566845Y-97792000D01*
X145541999Y-97789553D01*
X145517153Y-97792000D01*
X145517146Y-97792000D01*
X145442807Y-97799322D01*
X145347425Y-97828255D01*
X145259521Y-97875241D01*
X145182473Y-97938473D01*
X145166628Y-97957780D01*
X137574138Y-105550271D01*
X137585476Y-105512890D01*
X137464155Y-105283000D01*
X136271000Y-105283000D01*
X136271000Y-105303000D01*
X136017000Y-105303000D01*
X136017000Y-105283000D01*
X134823845Y-105283000D01*
X134702524Y-105512890D01*
X134518000Y-105512890D01*
X134518000Y-104799110D01*
X134702524Y-104799110D01*
X134823845Y-105029000D01*
X136017000Y-105029000D01*
X136017000Y-103835186D01*
X136271000Y-103835186D01*
X136271000Y-105029000D01*
X137464155Y-105029000D01*
X137585476Y-104799110D01*
X137540825Y-104651901D01*
X137415641Y-104389080D01*
X137241588Y-104155731D01*
X137025355Y-103960822D01*
X136775252Y-103811843D01*
X136500891Y-103714519D01*
X136271000Y-103835186D01*
X136017000Y-103835186D01*
X135787109Y-103714519D01*
X135512748Y-103811843D01*
X135262645Y-103960822D01*
X135046412Y-104155731D01*
X134872359Y-104389080D01*
X134747175Y-104651901D01*
X134702524Y-104799110D01*
X134518000Y-104799110D01*
X134518000Y-99416890D01*
X134702524Y-99416890D01*
X134747175Y-99564099D01*
X134872359Y-99826920D01*
X135046412Y-100060269D01*
X135262645Y-100255178D01*
X135450633Y-100367157D01*
X135294000Y-100367157D01*
X135219311Y-100374513D01*
X135147492Y-100396299D01*
X135081304Y-100431678D01*
X135023289Y-100479289D01*
X134975678Y-100537304D01*
X134940299Y-100603492D01*
X134918513Y-100675311D01*
X134911157Y-100750000D01*
X134911157Y-102450000D01*
X134918513Y-102524689D01*
X134940299Y-102596508D01*
X134975678Y-102662696D01*
X135023289Y-102720711D01*
X135081304Y-102768322D01*
X135147492Y-102803701D01*
X135219311Y-102825487D01*
X135294000Y-102832843D01*
X136994000Y-102832843D01*
X137068689Y-102825487D01*
X137140508Y-102803701D01*
X137206696Y-102768322D01*
X137264711Y-102720711D01*
X137312322Y-102662696D01*
X137347701Y-102596508D01*
X137369487Y-102524689D01*
X137376843Y-102450000D01*
X137376843Y-100750000D01*
X137369487Y-100675311D01*
X137347701Y-100603492D01*
X137312322Y-100537304D01*
X137264711Y-100479289D01*
X137206696Y-100431678D01*
X137140508Y-100396299D01*
X137068689Y-100374513D01*
X136994000Y-100367157D01*
X136837367Y-100367157D01*
X137025355Y-100255178D01*
X137241588Y-100060269D01*
X137415641Y-99826920D01*
X137540825Y-99564099D01*
X137585476Y-99416890D01*
X137464155Y-99187000D01*
X136271000Y-99187000D01*
X136271000Y-99207000D01*
X136017000Y-99207000D01*
X136017000Y-99187000D01*
X134823845Y-99187000D01*
X134702524Y-99416890D01*
X134518000Y-99416890D01*
X134518000Y-98703110D01*
X134702524Y-98703110D01*
X134823845Y-98933000D01*
X136017000Y-98933000D01*
X136017000Y-97739186D01*
X136271000Y-97739186D01*
X136271000Y-98933000D01*
X137464155Y-98933000D01*
X137585476Y-98703110D01*
X137540825Y-98555901D01*
X137415641Y-98293080D01*
X137241588Y-98059731D01*
X137025355Y-97864822D01*
X136775252Y-97715843D01*
X136500891Y-97618519D01*
X136271000Y-97739186D01*
X136017000Y-97739186D01*
X135787109Y-97618519D01*
X135512748Y-97715843D01*
X135262645Y-97864822D01*
X135046412Y-98059731D01*
X134872359Y-98293080D01*
X134747175Y-98555901D01*
X134702524Y-98703110D01*
X134518000Y-98703110D01*
X134518000Y-97180000D01*
X157328000Y-97180000D01*
X157328001Y-109322000D01*
M02*
