G04 #@! TF.GenerationSoftware,KiCad,Pcbnew,(5.1.10)-1*
G04 #@! TF.CreationDate,2021-10-26T19:42:31+01:00*
G04 #@! TF.ProjectId,drv120_solenoid_driver,64727631-3230-45f7-936f-6c656e6f6964,rev?*
G04 #@! TF.SameCoordinates,Original*
G04 #@! TF.FileFunction,Paste,Top*
G04 #@! TF.FilePolarity,Positive*
%FSLAX46Y46*%
G04 Gerber Fmt 4.6, Leading zero omitted, Abs format (unit mm)*
G04 Created by KiCad (PCBNEW (5.1.10)-1) date 2021-10-26 19:42:31*
%MOMM*%
%LPD*%
G01*
G04 APERTURE LIST*
%ADD10R,1.800000X3.500000*%
G04 APERTURE END LIST*
G36*
G01*
X151779000Y-107095000D02*
X151579000Y-107095000D01*
G75*
G02*
X151479000Y-106995000I0J100000D01*
G01*
X151479000Y-105720000D01*
G75*
G02*
X151579000Y-105620000I100000J0D01*
G01*
X151779000Y-105620000D01*
G75*
G02*
X151879000Y-105720000I0J-100000D01*
G01*
X151879000Y-106995000D01*
G75*
G02*
X151779000Y-107095000I-100000J0D01*
G01*
G37*
G36*
G01*
X152429000Y-107095000D02*
X152229000Y-107095000D01*
G75*
G02*
X152129000Y-106995000I0J100000D01*
G01*
X152129000Y-105720000D01*
G75*
G02*
X152229000Y-105620000I100000J0D01*
G01*
X152429000Y-105620000D01*
G75*
G02*
X152529000Y-105720000I0J-100000D01*
G01*
X152529000Y-106995000D01*
G75*
G02*
X152429000Y-107095000I-100000J0D01*
G01*
G37*
G36*
G01*
X153079000Y-107095000D02*
X152879000Y-107095000D01*
G75*
G02*
X152779000Y-106995000I0J100000D01*
G01*
X152779000Y-105720000D01*
G75*
G02*
X152879000Y-105620000I100000J0D01*
G01*
X153079000Y-105620000D01*
G75*
G02*
X153179000Y-105720000I0J-100000D01*
G01*
X153179000Y-106995000D01*
G75*
G02*
X153079000Y-107095000I-100000J0D01*
G01*
G37*
G36*
G01*
X153729000Y-107095000D02*
X153529000Y-107095000D01*
G75*
G02*
X153429000Y-106995000I0J100000D01*
G01*
X153429000Y-105720000D01*
G75*
G02*
X153529000Y-105620000I100000J0D01*
G01*
X153729000Y-105620000D01*
G75*
G02*
X153829000Y-105720000I0J-100000D01*
G01*
X153829000Y-106995000D01*
G75*
G02*
X153729000Y-107095000I-100000J0D01*
G01*
G37*
G36*
G01*
X153729000Y-112820000D02*
X153529000Y-112820000D01*
G75*
G02*
X153429000Y-112720000I0J100000D01*
G01*
X153429000Y-111445000D01*
G75*
G02*
X153529000Y-111345000I100000J0D01*
G01*
X153729000Y-111345000D01*
G75*
G02*
X153829000Y-111445000I0J-100000D01*
G01*
X153829000Y-112720000D01*
G75*
G02*
X153729000Y-112820000I-100000J0D01*
G01*
G37*
G36*
G01*
X153079000Y-112820000D02*
X152879000Y-112820000D01*
G75*
G02*
X152779000Y-112720000I0J100000D01*
G01*
X152779000Y-111445000D01*
G75*
G02*
X152879000Y-111345000I100000J0D01*
G01*
X153079000Y-111345000D01*
G75*
G02*
X153179000Y-111445000I0J-100000D01*
G01*
X153179000Y-112720000D01*
G75*
G02*
X153079000Y-112820000I-100000J0D01*
G01*
G37*
G36*
G01*
X152429000Y-112820000D02*
X152229000Y-112820000D01*
G75*
G02*
X152129000Y-112720000I0J100000D01*
G01*
X152129000Y-111445000D01*
G75*
G02*
X152229000Y-111345000I100000J0D01*
G01*
X152429000Y-111345000D01*
G75*
G02*
X152529000Y-111445000I0J-100000D01*
G01*
X152529000Y-112720000D01*
G75*
G02*
X152429000Y-112820000I-100000J0D01*
G01*
G37*
G36*
G01*
X151779000Y-112820000D02*
X151579000Y-112820000D01*
G75*
G02*
X151479000Y-112720000I0J100000D01*
G01*
X151479000Y-111445000D01*
G75*
G02*
X151579000Y-111345000I100000J0D01*
G01*
X151779000Y-111345000D01*
G75*
G02*
X151879000Y-111445000I0J-100000D01*
G01*
X151879000Y-112720000D01*
G75*
G02*
X151779000Y-112820000I-100000J0D01*
G01*
G37*
D10*
X156337000Y-111743500D03*
X156337000Y-106743500D03*
G36*
G01*
X150500000Y-108797000D02*
X150500000Y-109897000D01*
G75*
G02*
X150250000Y-110147000I-250000J0D01*
G01*
X147250000Y-110147000D01*
G75*
G02*
X147000000Y-109897000I0J250000D01*
G01*
X147000000Y-108797000D01*
G75*
G02*
X147250000Y-108547000I250000J0D01*
G01*
X150250000Y-108547000D01*
G75*
G02*
X150500000Y-108797000I0J-250000D01*
G01*
G37*
G36*
G01*
X145100000Y-108797000D02*
X145100000Y-109897000D01*
G75*
G02*
X144850000Y-110147000I-250000J0D01*
G01*
X141850000Y-110147000D01*
G75*
G02*
X141600000Y-109897000I0J250000D01*
G01*
X141600000Y-108797000D01*
G75*
G02*
X141850000Y-108547000I250000J0D01*
G01*
X144850000Y-108547000D01*
G75*
G02*
X145100000Y-108797000I0J-250000D01*
G01*
G37*
G36*
G01*
X146869998Y-113978000D02*
X147770002Y-113978000D01*
G75*
G02*
X148020000Y-114227998I0J-249998D01*
G01*
X148020000Y-114753002D01*
G75*
G02*
X147770002Y-115003000I-249998J0D01*
G01*
X146869998Y-115003000D01*
G75*
G02*
X146620000Y-114753002I0J249998D01*
G01*
X146620000Y-114227998D01*
G75*
G02*
X146869998Y-113978000I249998J0D01*
G01*
G37*
G36*
G01*
X146869998Y-115803000D02*
X147770002Y-115803000D01*
G75*
G02*
X148020000Y-116052998I0J-249998D01*
G01*
X148020000Y-116578002D01*
G75*
G02*
X147770002Y-116828000I-249998J0D01*
G01*
X146869998Y-116828000D01*
G75*
G02*
X146620000Y-116578002I0J249998D01*
G01*
X146620000Y-116052998D01*
G75*
G02*
X146869998Y-115803000I249998J0D01*
G01*
G37*
G36*
G01*
X149409998Y-115803000D02*
X150310002Y-115803000D01*
G75*
G02*
X150560000Y-116052998I0J-249998D01*
G01*
X150560000Y-116578002D01*
G75*
G02*
X150310002Y-116828000I-249998J0D01*
G01*
X149409998Y-116828000D01*
G75*
G02*
X149160000Y-116578002I0J249998D01*
G01*
X149160000Y-116052998D01*
G75*
G02*
X149409998Y-115803000I249998J0D01*
G01*
G37*
G36*
G01*
X149409998Y-113978000D02*
X150310002Y-113978000D01*
G75*
G02*
X150560000Y-114227998I0J-249998D01*
G01*
X150560000Y-114753002D01*
G75*
G02*
X150310002Y-115003000I-249998J0D01*
G01*
X149409998Y-115003000D01*
G75*
G02*
X149160000Y-114753002I0J249998D01*
G01*
X149160000Y-114227998D01*
G75*
G02*
X149409998Y-113978000I249998J0D01*
G01*
G37*
G36*
G01*
X144305000Y-113712500D02*
X145255000Y-113712500D01*
G75*
G02*
X145505000Y-113962500I0J-250000D01*
G01*
X145505000Y-114637500D01*
G75*
G02*
X145255000Y-114887500I-250000J0D01*
G01*
X144305000Y-114887500D01*
G75*
G02*
X144055000Y-114637500I0J250000D01*
G01*
X144055000Y-113962500D01*
G75*
G02*
X144305000Y-113712500I250000J0D01*
G01*
G37*
G36*
G01*
X144305000Y-115787500D02*
X145255000Y-115787500D01*
G75*
G02*
X145505000Y-116037500I0J-250000D01*
G01*
X145505000Y-116712500D01*
G75*
G02*
X145255000Y-116962500I-250000J0D01*
G01*
X144305000Y-116962500D01*
G75*
G02*
X144055000Y-116712500I0J250000D01*
G01*
X144055000Y-116037500D01*
G75*
G02*
X144305000Y-115787500I250000J0D01*
G01*
G37*
M02*
