G04 #@! TF.GenerationSoftware,KiCad,Pcbnew,(5.1.10)-1*
G04 #@! TF.CreationDate,2021-10-26T19:42:31+01:00*
G04 #@! TF.ProjectId,drv120_solenoid_driver,64727631-3230-45f7-936f-6c656e6f6964,rev?*
G04 #@! TF.SameCoordinates,Original*
G04 #@! TF.FileFunction,Legend,Bot*
G04 #@! TF.FilePolarity,Positive*
%FSLAX46Y46*%
G04 Gerber Fmt 4.6, Leading zero omitted, Abs format (unit mm)*
G04 Created by KiCad (PCBNEW (5.1.10)-1) date 2021-10-26 19:42:31*
%MOMM*%
%LPD*%
G01*
G04 APERTURE LIST*
%ADD10C,0.100000*%
%ADD11C,0.150000*%
%ADD12O,1.750000X1.200000*%
%ADD13C,3.200000*%
G04 APERTURE END LIST*
D10*
X155661642Y-106671690D02*
X155661642Y-106171690D01*
X155447357Y-106671690D02*
X155447357Y-106409785D01*
X155471166Y-106362166D01*
X155518785Y-106338357D01*
X155590214Y-106338357D01*
X155637833Y-106362166D01*
X155661642Y-106385976D01*
X155280690Y-106338357D02*
X155090214Y-106338357D01*
X155209261Y-106171690D02*
X155209261Y-106600261D01*
X155185452Y-106647880D01*
X155137833Y-106671690D01*
X155090214Y-106671690D01*
X154994976Y-106338357D02*
X154804500Y-106338357D01*
X154923547Y-106171690D02*
X154923547Y-106600261D01*
X154899738Y-106647880D01*
X154852119Y-106671690D01*
X154804500Y-106671690D01*
X154637833Y-106338357D02*
X154637833Y-106838357D01*
X154637833Y-106362166D02*
X154590214Y-106338357D01*
X154494976Y-106338357D01*
X154447357Y-106362166D01*
X154423547Y-106385976D01*
X154399738Y-106433595D01*
X154399738Y-106576452D01*
X154423547Y-106624071D01*
X154447357Y-106647880D01*
X154494976Y-106671690D01*
X154590214Y-106671690D01*
X154637833Y-106647880D01*
X154209261Y-106647880D02*
X154161642Y-106671690D01*
X154066404Y-106671690D01*
X154018785Y-106647880D01*
X153994976Y-106600261D01*
X153994976Y-106576452D01*
X154018785Y-106528833D01*
X154066404Y-106505023D01*
X154137833Y-106505023D01*
X154185452Y-106481214D01*
X154209261Y-106433595D01*
X154209261Y-106409785D01*
X154185452Y-106362166D01*
X154137833Y-106338357D01*
X154066404Y-106338357D01*
X154018785Y-106362166D01*
X153780690Y-106624071D02*
X153756880Y-106647880D01*
X153780690Y-106671690D01*
X153804500Y-106647880D01*
X153780690Y-106624071D01*
X153780690Y-106671690D01*
X153780690Y-106362166D02*
X153756880Y-106385976D01*
X153780690Y-106409785D01*
X153804500Y-106385976D01*
X153780690Y-106362166D01*
X153780690Y-106409785D01*
X153185452Y-106147880D02*
X153614023Y-106790738D01*
X152661642Y-106147880D02*
X153090214Y-106790738D01*
X152280690Y-106338357D02*
X152280690Y-106743119D01*
X152304500Y-106790738D01*
X152328309Y-106814547D01*
X152375928Y-106838357D01*
X152447357Y-106838357D01*
X152494976Y-106814547D01*
X152280690Y-106647880D02*
X152328309Y-106671690D01*
X152423547Y-106671690D01*
X152471166Y-106647880D01*
X152494976Y-106624071D01*
X152518785Y-106576452D01*
X152518785Y-106433595D01*
X152494976Y-106385976D01*
X152471166Y-106362166D01*
X152423547Y-106338357D01*
X152328309Y-106338357D01*
X152280690Y-106362166D01*
X152042595Y-106671690D02*
X152042595Y-106338357D01*
X152042595Y-106171690D02*
X152066404Y-106195500D01*
X152042595Y-106219309D01*
X152018785Y-106195500D01*
X152042595Y-106171690D01*
X152042595Y-106219309D01*
X151875928Y-106338357D02*
X151685452Y-106338357D01*
X151804500Y-106171690D02*
X151804500Y-106600261D01*
X151780690Y-106647880D01*
X151733071Y-106671690D01*
X151685452Y-106671690D01*
X151518785Y-106671690D02*
X151518785Y-106171690D01*
X151304500Y-106671690D02*
X151304500Y-106409785D01*
X151328309Y-106362166D01*
X151375928Y-106338357D01*
X151447357Y-106338357D01*
X151494976Y-106362166D01*
X151518785Y-106385976D01*
X150852119Y-106338357D02*
X150852119Y-106671690D01*
X151066404Y-106338357D02*
X151066404Y-106600261D01*
X151042595Y-106647880D01*
X150994976Y-106671690D01*
X150923547Y-106671690D01*
X150875928Y-106647880D01*
X150852119Y-106624071D01*
X150614023Y-106671690D02*
X150614023Y-106171690D01*
X150614023Y-106362166D02*
X150566404Y-106338357D01*
X150471166Y-106338357D01*
X150423547Y-106362166D01*
X150399738Y-106385976D01*
X150375928Y-106433595D01*
X150375928Y-106576452D01*
X150399738Y-106624071D01*
X150423547Y-106647880D01*
X150471166Y-106671690D01*
X150566404Y-106671690D01*
X150614023Y-106647880D01*
X150161642Y-106624071D02*
X150137833Y-106647880D01*
X150161642Y-106671690D01*
X150185452Y-106647880D01*
X150161642Y-106624071D01*
X150161642Y-106671690D01*
X149709261Y-106647880D02*
X149756880Y-106671690D01*
X149852119Y-106671690D01*
X149899738Y-106647880D01*
X149923547Y-106624071D01*
X149947357Y-106576452D01*
X149947357Y-106433595D01*
X149923547Y-106385976D01*
X149899738Y-106362166D01*
X149852119Y-106338357D01*
X149756880Y-106338357D01*
X149709261Y-106362166D01*
X149423547Y-106671690D02*
X149471166Y-106647880D01*
X149494976Y-106624071D01*
X149518785Y-106576452D01*
X149518785Y-106433595D01*
X149494976Y-106385976D01*
X149471166Y-106362166D01*
X149423547Y-106338357D01*
X149352119Y-106338357D01*
X149304500Y-106362166D01*
X149280690Y-106385976D01*
X149256880Y-106433595D01*
X149256880Y-106576452D01*
X149280690Y-106624071D01*
X149304500Y-106647880D01*
X149352119Y-106671690D01*
X149423547Y-106671690D01*
X149042595Y-106671690D02*
X149042595Y-106338357D01*
X149042595Y-106385976D02*
X149018785Y-106362166D01*
X148971166Y-106338357D01*
X148899738Y-106338357D01*
X148852119Y-106362166D01*
X148828309Y-106409785D01*
X148828309Y-106671690D01*
X148828309Y-106409785D02*
X148804500Y-106362166D01*
X148756880Y-106338357D01*
X148685452Y-106338357D01*
X148637833Y-106362166D01*
X148614023Y-106409785D01*
X148614023Y-106671690D01*
X148018785Y-106147880D02*
X148447357Y-106790738D01*
X147852119Y-106671690D02*
X147852119Y-106171690D01*
X147685452Y-106528833D01*
X147518785Y-106171690D01*
X147518785Y-106671690D01*
X147066404Y-106671690D02*
X147066404Y-106409785D01*
X147090214Y-106362166D01*
X147137833Y-106338357D01*
X147233071Y-106338357D01*
X147280690Y-106362166D01*
X147066404Y-106647880D02*
X147114023Y-106671690D01*
X147233071Y-106671690D01*
X147280690Y-106647880D01*
X147304500Y-106600261D01*
X147304500Y-106552642D01*
X147280690Y-106505023D01*
X147233071Y-106481214D01*
X147114023Y-106481214D01*
X147066404Y-106457404D01*
X146828309Y-106671690D02*
X146828309Y-106338357D01*
X146828309Y-106433595D02*
X146804500Y-106385976D01*
X146780690Y-106362166D01*
X146733071Y-106338357D01*
X146685452Y-106338357D01*
X146518785Y-106671690D02*
X146518785Y-106171690D01*
X146471166Y-106481214D02*
X146328309Y-106671690D01*
X146328309Y-106338357D02*
X146518785Y-106528833D01*
X145971166Y-106171690D02*
X145971166Y-106528833D01*
X145994976Y-106600261D01*
X146042595Y-106647880D01*
X146114023Y-106671690D01*
X146161642Y-106671690D01*
X145566404Y-106409785D02*
X145494976Y-106433595D01*
X145471166Y-106457404D01*
X145447357Y-106505023D01*
X145447357Y-106576452D01*
X145471166Y-106624071D01*
X145494976Y-106647880D01*
X145542595Y-106671690D01*
X145733071Y-106671690D01*
X145733071Y-106171690D01*
X145566404Y-106171690D01*
X145518785Y-106195500D01*
X145494976Y-106219309D01*
X145471166Y-106266928D01*
X145471166Y-106314547D01*
X145494976Y-106362166D01*
X145518785Y-106385976D01*
X145566404Y-106409785D01*
X145733071Y-106409785D01*
X144875928Y-106147880D02*
X145304500Y-106790738D01*
X155816404Y-107521690D02*
X155816404Y-107021690D01*
X155816404Y-107497880D02*
X155864023Y-107521690D01*
X155959261Y-107521690D01*
X156006880Y-107497880D01*
X156030690Y-107474071D01*
X156054500Y-107426452D01*
X156054500Y-107283595D01*
X156030690Y-107235976D01*
X156006880Y-107212166D01*
X155959261Y-107188357D01*
X155864023Y-107188357D01*
X155816404Y-107212166D01*
X155578309Y-107521690D02*
X155578309Y-107188357D01*
X155578309Y-107283595D02*
X155554500Y-107235976D01*
X155530690Y-107212166D01*
X155483071Y-107188357D01*
X155435452Y-107188357D01*
X155316404Y-107188357D02*
X155197357Y-107521690D01*
X155078309Y-107188357D01*
X154625928Y-107521690D02*
X154911642Y-107521690D01*
X154768785Y-107521690D02*
X154768785Y-107021690D01*
X154816404Y-107093119D01*
X154864023Y-107140738D01*
X154911642Y-107164547D01*
X154435452Y-107069309D02*
X154411642Y-107045500D01*
X154364023Y-107021690D01*
X154244976Y-107021690D01*
X154197357Y-107045500D01*
X154173547Y-107069309D01*
X154149738Y-107116928D01*
X154149738Y-107164547D01*
X154173547Y-107235976D01*
X154459261Y-107521690D01*
X154149738Y-107521690D01*
X153840214Y-107021690D02*
X153792595Y-107021690D01*
X153744976Y-107045500D01*
X153721166Y-107069309D01*
X153697357Y-107116928D01*
X153673547Y-107212166D01*
X153673547Y-107331214D01*
X153697357Y-107426452D01*
X153721166Y-107474071D01*
X153744976Y-107497880D01*
X153792595Y-107521690D01*
X153840214Y-107521690D01*
X153887833Y-107497880D01*
X153911642Y-107474071D01*
X153935452Y-107426452D01*
X153959261Y-107331214D01*
X153959261Y-107212166D01*
X153935452Y-107116928D01*
X153911642Y-107069309D01*
X153887833Y-107045500D01*
X153840214Y-107021690D01*
X153578309Y-107569309D02*
X153197357Y-107569309D01*
X153102119Y-107497880D02*
X153054500Y-107521690D01*
X152959261Y-107521690D01*
X152911642Y-107497880D01*
X152887833Y-107450261D01*
X152887833Y-107426452D01*
X152911642Y-107378833D01*
X152959261Y-107355023D01*
X153030690Y-107355023D01*
X153078309Y-107331214D01*
X153102119Y-107283595D01*
X153102119Y-107259785D01*
X153078309Y-107212166D01*
X153030690Y-107188357D01*
X152959261Y-107188357D01*
X152911642Y-107212166D01*
X152602119Y-107521690D02*
X152649738Y-107497880D01*
X152673547Y-107474071D01*
X152697357Y-107426452D01*
X152697357Y-107283595D01*
X152673547Y-107235976D01*
X152649738Y-107212166D01*
X152602119Y-107188357D01*
X152530690Y-107188357D01*
X152483071Y-107212166D01*
X152459261Y-107235976D01*
X152435452Y-107283595D01*
X152435452Y-107426452D01*
X152459261Y-107474071D01*
X152483071Y-107497880D01*
X152530690Y-107521690D01*
X152602119Y-107521690D01*
X152149738Y-107521690D02*
X152197357Y-107497880D01*
X152221166Y-107450261D01*
X152221166Y-107021690D01*
X151768785Y-107497880D02*
X151816404Y-107521690D01*
X151911642Y-107521690D01*
X151959261Y-107497880D01*
X151983071Y-107450261D01*
X151983071Y-107259785D01*
X151959261Y-107212166D01*
X151911642Y-107188357D01*
X151816404Y-107188357D01*
X151768785Y-107212166D01*
X151744976Y-107259785D01*
X151744976Y-107307404D01*
X151983071Y-107355023D01*
X151530690Y-107188357D02*
X151530690Y-107521690D01*
X151530690Y-107235976D02*
X151506880Y-107212166D01*
X151459261Y-107188357D01*
X151387833Y-107188357D01*
X151340214Y-107212166D01*
X151316404Y-107259785D01*
X151316404Y-107521690D01*
X151006880Y-107521690D02*
X151054500Y-107497880D01*
X151078309Y-107474071D01*
X151102119Y-107426452D01*
X151102119Y-107283595D01*
X151078309Y-107235976D01*
X151054500Y-107212166D01*
X151006880Y-107188357D01*
X150935452Y-107188357D01*
X150887833Y-107212166D01*
X150864023Y-107235976D01*
X150840214Y-107283595D01*
X150840214Y-107426452D01*
X150864023Y-107474071D01*
X150887833Y-107497880D01*
X150935452Y-107521690D01*
X151006880Y-107521690D01*
X150625928Y-107521690D02*
X150625928Y-107188357D01*
X150625928Y-107021690D02*
X150649738Y-107045500D01*
X150625928Y-107069309D01*
X150602119Y-107045500D01*
X150625928Y-107021690D01*
X150625928Y-107069309D01*
X150173547Y-107521690D02*
X150173547Y-107021690D01*
X150173547Y-107497880D02*
X150221166Y-107521690D01*
X150316404Y-107521690D01*
X150364023Y-107497880D01*
X150387833Y-107474071D01*
X150411642Y-107426452D01*
X150411642Y-107283595D01*
X150387833Y-107235976D01*
X150364023Y-107212166D01*
X150316404Y-107188357D01*
X150221166Y-107188357D01*
X150173547Y-107212166D01*
X150054500Y-107569309D02*
X149673547Y-107569309D01*
X149340214Y-107521690D02*
X149340214Y-107021690D01*
X149340214Y-107497880D02*
X149387833Y-107521690D01*
X149483071Y-107521690D01*
X149530690Y-107497880D01*
X149554500Y-107474071D01*
X149578309Y-107426452D01*
X149578309Y-107283595D01*
X149554500Y-107235976D01*
X149530690Y-107212166D01*
X149483071Y-107188357D01*
X149387833Y-107188357D01*
X149340214Y-107212166D01*
X149102119Y-107521690D02*
X149102119Y-107188357D01*
X149102119Y-107283595D02*
X149078309Y-107235976D01*
X149054500Y-107212166D01*
X149006880Y-107188357D01*
X148959261Y-107188357D01*
X148792595Y-107521690D02*
X148792595Y-107188357D01*
X148792595Y-107021690D02*
X148816404Y-107045500D01*
X148792595Y-107069309D01*
X148768785Y-107045500D01*
X148792595Y-107021690D01*
X148792595Y-107069309D01*
X148602119Y-107188357D02*
X148483071Y-107521690D01*
X148364023Y-107188357D01*
X147983071Y-107497880D02*
X148030690Y-107521690D01*
X148125928Y-107521690D01*
X148173547Y-107497880D01*
X148197357Y-107450261D01*
X148197357Y-107259785D01*
X148173547Y-107212166D01*
X148125928Y-107188357D01*
X148030690Y-107188357D01*
X147983071Y-107212166D01*
X147959261Y-107259785D01*
X147959261Y-107307404D01*
X148197357Y-107355023D01*
X147744976Y-107521690D02*
X147744976Y-107188357D01*
X147744976Y-107283595D02*
X147721166Y-107235976D01*
X147697357Y-107212166D01*
X147649738Y-107188357D01*
X147602119Y-107188357D01*
X147554500Y-107569309D02*
X147173547Y-107569309D01*
X147054500Y-107521690D02*
X147054500Y-107188357D01*
X147054500Y-107235976D02*
X147030690Y-107212166D01*
X146983071Y-107188357D01*
X146911642Y-107188357D01*
X146864023Y-107212166D01*
X146840214Y-107259785D01*
X146840214Y-107521690D01*
X146840214Y-107259785D02*
X146816404Y-107212166D01*
X146768785Y-107188357D01*
X146697357Y-107188357D01*
X146649738Y-107212166D01*
X146625928Y-107259785D01*
X146625928Y-107521690D01*
X146316404Y-107521690D02*
X146364023Y-107497880D01*
X146387833Y-107474071D01*
X146411642Y-107426452D01*
X146411642Y-107283595D01*
X146387833Y-107235976D01*
X146364023Y-107212166D01*
X146316404Y-107188357D01*
X146244976Y-107188357D01*
X146197357Y-107212166D01*
X146173547Y-107235976D01*
X146149738Y-107283595D01*
X146149738Y-107426452D01*
X146173547Y-107474071D01*
X146197357Y-107497880D01*
X146244976Y-107521690D01*
X146316404Y-107521690D01*
X145721166Y-107521690D02*
X145721166Y-107021690D01*
X145721166Y-107497880D02*
X145768785Y-107521690D01*
X145864023Y-107521690D01*
X145911642Y-107497880D01*
X145935452Y-107474071D01*
X145959261Y-107426452D01*
X145959261Y-107283595D01*
X145935452Y-107235976D01*
X145911642Y-107212166D01*
X145864023Y-107188357D01*
X145768785Y-107188357D01*
X145721166Y-107212166D01*
X145268785Y-107188357D02*
X145268785Y-107521690D01*
X145483071Y-107188357D02*
X145483071Y-107450261D01*
X145459261Y-107497880D01*
X145411642Y-107521690D01*
X145340214Y-107521690D01*
X145292595Y-107497880D01*
X145268785Y-107474071D01*
X144959261Y-107521690D02*
X145006880Y-107497880D01*
X145030690Y-107450261D01*
X145030690Y-107021690D01*
X144578309Y-107497880D02*
X144625928Y-107521690D01*
X144721166Y-107521690D01*
X144768785Y-107497880D01*
X144792595Y-107450261D01*
X144792595Y-107259785D01*
X144768785Y-107212166D01*
X144721166Y-107188357D01*
X144625928Y-107188357D01*
X144578309Y-107212166D01*
X144554500Y-107259785D01*
X144554500Y-107307404D01*
X144792595Y-107355023D01*
D11*
X146907047Y-116784380D02*
X147240380Y-116308190D01*
X147478476Y-116784380D02*
X147478476Y-115784380D01*
X147097523Y-115784380D01*
X147002285Y-115832000D01*
X146954666Y-115879619D01*
X146907047Y-115974857D01*
X146907047Y-116117714D01*
X146954666Y-116212952D01*
X147002285Y-116260571D01*
X147097523Y-116308190D01*
X147478476Y-116308190D01*
X146097523Y-116736761D02*
X146192761Y-116784380D01*
X146383238Y-116784380D01*
X146478476Y-116736761D01*
X146526095Y-116641523D01*
X146526095Y-116260571D01*
X146478476Y-116165333D01*
X146383238Y-116117714D01*
X146192761Y-116117714D01*
X146097523Y-116165333D01*
X146049904Y-116260571D01*
X146049904Y-116355809D01*
X146526095Y-116451047D01*
X145716571Y-116117714D02*
X145478476Y-116784380D01*
X145240380Y-116117714D01*
X144859428Y-116689142D02*
X144811809Y-116736761D01*
X144859428Y-116784380D01*
X144907047Y-116736761D01*
X144859428Y-116689142D01*
X144859428Y-116784380D01*
X144859428Y-116165333D02*
X144811809Y-116212952D01*
X144859428Y-116260571D01*
X144907047Y-116212952D01*
X144859428Y-116165333D01*
X144859428Y-116260571D01*
X143288000Y-116260571D02*
X143145142Y-116308190D01*
X143097523Y-116355809D01*
X143049904Y-116451047D01*
X143049904Y-116593904D01*
X143097523Y-116689142D01*
X143145142Y-116736761D01*
X143240380Y-116784380D01*
X143621333Y-116784380D01*
X143621333Y-115784380D01*
X143288000Y-115784380D01*
X143192761Y-115832000D01*
X143145142Y-115879619D01*
X143097523Y-115974857D01*
X143097523Y-116070095D01*
X143145142Y-116165333D01*
X143192761Y-116212952D01*
X143288000Y-116260571D01*
X143621333Y-116260571D01*
%LPC*%
G36*
G01*
X160537999Y-105381500D02*
X161788001Y-105381500D01*
G75*
G02*
X162038000Y-105631499I0J-249999D01*
G01*
X162038000Y-106331501D01*
G75*
G02*
X161788001Y-106581500I-249999J0D01*
G01*
X160537999Y-106581500D01*
G75*
G02*
X160288000Y-106331501I0J249999D01*
G01*
X160288000Y-105631499D01*
G75*
G02*
X160537999Y-105381500I249999J0D01*
G01*
G37*
D12*
X161163000Y-107981500D03*
G36*
G01*
X160537999Y-111731500D02*
X161788001Y-111731500D01*
G75*
G02*
X162038000Y-111981499I0J-249999D01*
G01*
X162038000Y-112681501D01*
G75*
G02*
X161788001Y-112931500I-249999J0D01*
G01*
X160537999Y-112931500D01*
G75*
G02*
X160288000Y-112681501I0J249999D01*
G01*
X160288000Y-111981499D01*
G75*
G02*
X160537999Y-111731500I249999J0D01*
G01*
G37*
X161163000Y-114331500D03*
X161163000Y-116331500D03*
D13*
X166751000Y-111125000D03*
X138049000Y-111125000D03*
M02*
