G04 #@! TF.GenerationSoftware,KiCad,Pcbnew,(5.1.4)-1*
G04 #@! TF.CreationDate,2020-03-20T17:51:06+00:00*
G04 #@! TF.ProjectId,drv120_solenoid_driver,64727631-3230-45f7-936f-6c656e6f6964,rev?*
G04 #@! TF.SameCoordinates,Original*
G04 #@! TF.FileFunction,Copper,L1,Top*
G04 #@! TF.FilePolarity,Positive*
%FSLAX46Y46*%
G04 Gerber Fmt 4.6, Leading zero omitted, Abs format (unit mm)*
G04 Created by KiCad (PCBNEW (5.1.4)-1) date 2020-03-20 17:51:06*
%MOMM*%
%LPD*%
G04 APERTURE LIST*
%ADD10R,1.450000X0.450000*%
%ADD11C,0.100000*%
%ADD12C,1.150000*%
%ADD13C,0.975000*%
%ADD14O,1.700000X1.700000*%
%ADD15R,1.700000X1.700000*%
%ADD16R,3.500000X1.800000*%
%ADD17C,1.600000*%
%ADD18C,0.800000*%
%ADD19C,0.250000*%
%ADD20C,0.400000*%
%ADD21C,0.254000*%
G04 APERTURE END LIST*
D10*
X155604000Y-98339000D03*
X155604000Y-98989000D03*
X155604000Y-99639000D03*
X155604000Y-100289000D03*
X149704000Y-100289000D03*
X149704000Y-99639000D03*
X149704000Y-98989000D03*
X149704000Y-98339000D03*
D11*
G36*
X139786505Y-107759204D02*
G01*
X139810773Y-107762804D01*
X139834572Y-107768765D01*
X139857671Y-107777030D01*
X139879850Y-107787520D01*
X139900893Y-107800132D01*
X139920599Y-107814747D01*
X139938777Y-107831223D01*
X139955253Y-107849401D01*
X139969868Y-107869107D01*
X139982480Y-107890150D01*
X139992970Y-107912329D01*
X140001235Y-107935428D01*
X140007196Y-107959227D01*
X140010796Y-107983495D01*
X140012000Y-108007999D01*
X140012000Y-108908001D01*
X140010796Y-108932505D01*
X140007196Y-108956773D01*
X140001235Y-108980572D01*
X139992970Y-109003671D01*
X139982480Y-109025850D01*
X139969868Y-109046893D01*
X139955253Y-109066599D01*
X139938777Y-109084777D01*
X139920599Y-109101253D01*
X139900893Y-109115868D01*
X139879850Y-109128480D01*
X139857671Y-109138970D01*
X139834572Y-109147235D01*
X139810773Y-109153196D01*
X139786505Y-109156796D01*
X139762001Y-109158000D01*
X139111999Y-109158000D01*
X139087495Y-109156796D01*
X139063227Y-109153196D01*
X139039428Y-109147235D01*
X139016329Y-109138970D01*
X138994150Y-109128480D01*
X138973107Y-109115868D01*
X138953401Y-109101253D01*
X138935223Y-109084777D01*
X138918747Y-109066599D01*
X138904132Y-109046893D01*
X138891520Y-109025850D01*
X138881030Y-109003671D01*
X138872765Y-108980572D01*
X138866804Y-108956773D01*
X138863204Y-108932505D01*
X138862000Y-108908001D01*
X138862000Y-108007999D01*
X138863204Y-107983495D01*
X138866804Y-107959227D01*
X138872765Y-107935428D01*
X138881030Y-107912329D01*
X138891520Y-107890150D01*
X138904132Y-107869107D01*
X138918747Y-107849401D01*
X138935223Y-107831223D01*
X138953401Y-107814747D01*
X138973107Y-107800132D01*
X138994150Y-107787520D01*
X139016329Y-107777030D01*
X139039428Y-107768765D01*
X139063227Y-107762804D01*
X139087495Y-107759204D01*
X139111999Y-107758000D01*
X139762001Y-107758000D01*
X139786505Y-107759204D01*
X139786505Y-107759204D01*
G37*
D12*
X139437000Y-108458000D03*
D11*
G36*
X141836505Y-107759204D02*
G01*
X141860773Y-107762804D01*
X141884572Y-107768765D01*
X141907671Y-107777030D01*
X141929850Y-107787520D01*
X141950893Y-107800132D01*
X141970599Y-107814747D01*
X141988777Y-107831223D01*
X142005253Y-107849401D01*
X142019868Y-107869107D01*
X142032480Y-107890150D01*
X142042970Y-107912329D01*
X142051235Y-107935428D01*
X142057196Y-107959227D01*
X142060796Y-107983495D01*
X142062000Y-108007999D01*
X142062000Y-108908001D01*
X142060796Y-108932505D01*
X142057196Y-108956773D01*
X142051235Y-108980572D01*
X142042970Y-109003671D01*
X142032480Y-109025850D01*
X142019868Y-109046893D01*
X142005253Y-109066599D01*
X141988777Y-109084777D01*
X141970599Y-109101253D01*
X141950893Y-109115868D01*
X141929850Y-109128480D01*
X141907671Y-109138970D01*
X141884572Y-109147235D01*
X141860773Y-109153196D01*
X141836505Y-109156796D01*
X141812001Y-109158000D01*
X141161999Y-109158000D01*
X141137495Y-109156796D01*
X141113227Y-109153196D01*
X141089428Y-109147235D01*
X141066329Y-109138970D01*
X141044150Y-109128480D01*
X141023107Y-109115868D01*
X141003401Y-109101253D01*
X140985223Y-109084777D01*
X140968747Y-109066599D01*
X140954132Y-109046893D01*
X140941520Y-109025850D01*
X140931030Y-109003671D01*
X140922765Y-108980572D01*
X140916804Y-108956773D01*
X140913204Y-108932505D01*
X140912000Y-108908001D01*
X140912000Y-108007999D01*
X140913204Y-107983495D01*
X140916804Y-107959227D01*
X140922765Y-107935428D01*
X140931030Y-107912329D01*
X140941520Y-107890150D01*
X140954132Y-107869107D01*
X140968747Y-107849401D01*
X140985223Y-107831223D01*
X141003401Y-107814747D01*
X141023107Y-107800132D01*
X141044150Y-107787520D01*
X141066329Y-107777030D01*
X141089428Y-107768765D01*
X141113227Y-107762804D01*
X141137495Y-107759204D01*
X141161999Y-107758000D01*
X141812001Y-107758000D01*
X141836505Y-107759204D01*
X141836505Y-107759204D01*
G37*
D12*
X141487000Y-108458000D03*
D11*
G36*
X150127642Y-107759174D02*
G01*
X150151303Y-107762684D01*
X150174507Y-107768496D01*
X150197029Y-107776554D01*
X150218653Y-107786782D01*
X150239170Y-107799079D01*
X150258383Y-107813329D01*
X150276107Y-107829393D01*
X150292171Y-107847117D01*
X150306421Y-107866330D01*
X150318718Y-107886847D01*
X150328946Y-107908471D01*
X150337004Y-107930993D01*
X150342816Y-107954197D01*
X150346326Y-107977858D01*
X150347500Y-108001750D01*
X150347500Y-108914250D01*
X150346326Y-108938142D01*
X150342816Y-108961803D01*
X150337004Y-108985007D01*
X150328946Y-109007529D01*
X150318718Y-109029153D01*
X150306421Y-109049670D01*
X150292171Y-109068883D01*
X150276107Y-109086607D01*
X150258383Y-109102671D01*
X150239170Y-109116921D01*
X150218653Y-109129218D01*
X150197029Y-109139446D01*
X150174507Y-109147504D01*
X150151303Y-109153316D01*
X150127642Y-109156826D01*
X150103750Y-109158000D01*
X149616250Y-109158000D01*
X149592358Y-109156826D01*
X149568697Y-109153316D01*
X149545493Y-109147504D01*
X149522971Y-109139446D01*
X149501347Y-109129218D01*
X149480830Y-109116921D01*
X149461617Y-109102671D01*
X149443893Y-109086607D01*
X149427829Y-109068883D01*
X149413579Y-109049670D01*
X149401282Y-109029153D01*
X149391054Y-109007529D01*
X149382996Y-108985007D01*
X149377184Y-108961803D01*
X149373674Y-108938142D01*
X149372500Y-108914250D01*
X149372500Y-108001750D01*
X149373674Y-107977858D01*
X149377184Y-107954197D01*
X149382996Y-107930993D01*
X149391054Y-107908471D01*
X149401282Y-107886847D01*
X149413579Y-107866330D01*
X149427829Y-107847117D01*
X149443893Y-107829393D01*
X149461617Y-107813329D01*
X149480830Y-107799079D01*
X149501347Y-107786782D01*
X149522971Y-107776554D01*
X149545493Y-107768496D01*
X149568697Y-107762684D01*
X149592358Y-107759174D01*
X149616250Y-107758000D01*
X150103750Y-107758000D01*
X150127642Y-107759174D01*
X150127642Y-107759174D01*
G37*
D13*
X149860000Y-108458000D03*
D11*
G36*
X148252642Y-107759174D02*
G01*
X148276303Y-107762684D01*
X148299507Y-107768496D01*
X148322029Y-107776554D01*
X148343653Y-107786782D01*
X148364170Y-107799079D01*
X148383383Y-107813329D01*
X148401107Y-107829393D01*
X148417171Y-107847117D01*
X148431421Y-107866330D01*
X148443718Y-107886847D01*
X148453946Y-107908471D01*
X148462004Y-107930993D01*
X148467816Y-107954197D01*
X148471326Y-107977858D01*
X148472500Y-108001750D01*
X148472500Y-108914250D01*
X148471326Y-108938142D01*
X148467816Y-108961803D01*
X148462004Y-108985007D01*
X148453946Y-109007529D01*
X148443718Y-109029153D01*
X148431421Y-109049670D01*
X148417171Y-109068883D01*
X148401107Y-109086607D01*
X148383383Y-109102671D01*
X148364170Y-109116921D01*
X148343653Y-109129218D01*
X148322029Y-109139446D01*
X148299507Y-109147504D01*
X148276303Y-109153316D01*
X148252642Y-109156826D01*
X148228750Y-109158000D01*
X147741250Y-109158000D01*
X147717358Y-109156826D01*
X147693697Y-109153316D01*
X147670493Y-109147504D01*
X147647971Y-109139446D01*
X147626347Y-109129218D01*
X147605830Y-109116921D01*
X147586617Y-109102671D01*
X147568893Y-109086607D01*
X147552829Y-109068883D01*
X147538579Y-109049670D01*
X147526282Y-109029153D01*
X147516054Y-109007529D01*
X147507996Y-108985007D01*
X147502184Y-108961803D01*
X147498674Y-108938142D01*
X147497500Y-108914250D01*
X147497500Y-108001750D01*
X147498674Y-107977858D01*
X147502184Y-107954197D01*
X147507996Y-107930993D01*
X147516054Y-107908471D01*
X147526282Y-107886847D01*
X147538579Y-107866330D01*
X147552829Y-107847117D01*
X147568893Y-107829393D01*
X147586617Y-107813329D01*
X147605830Y-107799079D01*
X147626347Y-107786782D01*
X147647971Y-107776554D01*
X147670493Y-107768496D01*
X147693697Y-107762684D01*
X147717358Y-107759174D01*
X147741250Y-107758000D01*
X148228750Y-107758000D01*
X148252642Y-107759174D01*
X148252642Y-107759174D01*
G37*
D13*
X147985000Y-108458000D03*
D11*
G36*
X144188642Y-107759174D02*
G01*
X144212303Y-107762684D01*
X144235507Y-107768496D01*
X144258029Y-107776554D01*
X144279653Y-107786782D01*
X144300170Y-107799079D01*
X144319383Y-107813329D01*
X144337107Y-107829393D01*
X144353171Y-107847117D01*
X144367421Y-107866330D01*
X144379718Y-107886847D01*
X144389946Y-107908471D01*
X144398004Y-107930993D01*
X144403816Y-107954197D01*
X144407326Y-107977858D01*
X144408500Y-108001750D01*
X144408500Y-108914250D01*
X144407326Y-108938142D01*
X144403816Y-108961803D01*
X144398004Y-108985007D01*
X144389946Y-109007529D01*
X144379718Y-109029153D01*
X144367421Y-109049670D01*
X144353171Y-109068883D01*
X144337107Y-109086607D01*
X144319383Y-109102671D01*
X144300170Y-109116921D01*
X144279653Y-109129218D01*
X144258029Y-109139446D01*
X144235507Y-109147504D01*
X144212303Y-109153316D01*
X144188642Y-109156826D01*
X144164750Y-109158000D01*
X143677250Y-109158000D01*
X143653358Y-109156826D01*
X143629697Y-109153316D01*
X143606493Y-109147504D01*
X143583971Y-109139446D01*
X143562347Y-109129218D01*
X143541830Y-109116921D01*
X143522617Y-109102671D01*
X143504893Y-109086607D01*
X143488829Y-109068883D01*
X143474579Y-109049670D01*
X143462282Y-109029153D01*
X143452054Y-109007529D01*
X143443996Y-108985007D01*
X143438184Y-108961803D01*
X143434674Y-108938142D01*
X143433500Y-108914250D01*
X143433500Y-108001750D01*
X143434674Y-107977858D01*
X143438184Y-107954197D01*
X143443996Y-107930993D01*
X143452054Y-107908471D01*
X143462282Y-107886847D01*
X143474579Y-107866330D01*
X143488829Y-107847117D01*
X143504893Y-107829393D01*
X143522617Y-107813329D01*
X143541830Y-107799079D01*
X143562347Y-107786782D01*
X143583971Y-107776554D01*
X143606493Y-107768496D01*
X143629697Y-107762684D01*
X143653358Y-107759174D01*
X143677250Y-107758000D01*
X144164750Y-107758000D01*
X144188642Y-107759174D01*
X144188642Y-107759174D01*
G37*
D13*
X143921000Y-108458000D03*
D11*
G36*
X146063642Y-107759174D02*
G01*
X146087303Y-107762684D01*
X146110507Y-107768496D01*
X146133029Y-107776554D01*
X146154653Y-107786782D01*
X146175170Y-107799079D01*
X146194383Y-107813329D01*
X146212107Y-107829393D01*
X146228171Y-107847117D01*
X146242421Y-107866330D01*
X146254718Y-107886847D01*
X146264946Y-107908471D01*
X146273004Y-107930993D01*
X146278816Y-107954197D01*
X146282326Y-107977858D01*
X146283500Y-108001750D01*
X146283500Y-108914250D01*
X146282326Y-108938142D01*
X146278816Y-108961803D01*
X146273004Y-108985007D01*
X146264946Y-109007529D01*
X146254718Y-109029153D01*
X146242421Y-109049670D01*
X146228171Y-109068883D01*
X146212107Y-109086607D01*
X146194383Y-109102671D01*
X146175170Y-109116921D01*
X146154653Y-109129218D01*
X146133029Y-109139446D01*
X146110507Y-109147504D01*
X146087303Y-109153316D01*
X146063642Y-109156826D01*
X146039750Y-109158000D01*
X145552250Y-109158000D01*
X145528358Y-109156826D01*
X145504697Y-109153316D01*
X145481493Y-109147504D01*
X145458971Y-109139446D01*
X145437347Y-109129218D01*
X145416830Y-109116921D01*
X145397617Y-109102671D01*
X145379893Y-109086607D01*
X145363829Y-109068883D01*
X145349579Y-109049670D01*
X145337282Y-109029153D01*
X145327054Y-109007529D01*
X145318996Y-108985007D01*
X145313184Y-108961803D01*
X145309674Y-108938142D01*
X145308500Y-108914250D01*
X145308500Y-108001750D01*
X145309674Y-107977858D01*
X145313184Y-107954197D01*
X145318996Y-107930993D01*
X145327054Y-107908471D01*
X145337282Y-107886847D01*
X145349579Y-107866330D01*
X145363829Y-107847117D01*
X145379893Y-107829393D01*
X145397617Y-107813329D01*
X145416830Y-107799079D01*
X145437347Y-107786782D01*
X145458971Y-107776554D01*
X145481493Y-107768496D01*
X145504697Y-107762684D01*
X145528358Y-107759174D01*
X145552250Y-107758000D01*
X146039750Y-107758000D01*
X146063642Y-107759174D01*
X146063642Y-107759174D01*
G37*
D13*
X145796000Y-108458000D03*
D14*
X155702000Y-107696000D03*
D15*
X153162000Y-107696000D03*
D14*
X136144000Y-105156000D03*
D15*
X136144000Y-107696000D03*
D14*
X136144000Y-99060000D03*
D15*
X136144000Y-101600000D03*
D16*
X154940000Y-103124000D03*
X149940000Y-103124000D03*
D11*
G36*
X143729505Y-97678205D02*
G01*
X143753774Y-97681805D01*
X143777572Y-97687766D01*
X143800672Y-97696031D01*
X143822850Y-97706521D01*
X143843894Y-97719134D01*
X143863599Y-97733748D01*
X143881778Y-97750224D01*
X143898254Y-97768403D01*
X143912868Y-97788108D01*
X143925481Y-97809152D01*
X143935971Y-97831330D01*
X143944236Y-97854430D01*
X143950197Y-97878228D01*
X143953797Y-97902497D01*
X143955001Y-97927001D01*
X143955001Y-100927001D01*
X143953797Y-100951505D01*
X143950197Y-100975774D01*
X143944236Y-100999572D01*
X143935971Y-101022672D01*
X143925481Y-101044850D01*
X143912868Y-101065894D01*
X143898254Y-101085599D01*
X143881778Y-101103778D01*
X143863599Y-101120254D01*
X143843894Y-101134868D01*
X143822850Y-101147481D01*
X143800672Y-101157971D01*
X143777572Y-101166236D01*
X143753774Y-101172197D01*
X143729505Y-101175797D01*
X143705001Y-101177001D01*
X142605001Y-101177001D01*
X142580497Y-101175797D01*
X142556228Y-101172197D01*
X142532430Y-101166236D01*
X142509330Y-101157971D01*
X142487152Y-101147481D01*
X142466108Y-101134868D01*
X142446403Y-101120254D01*
X142428224Y-101103778D01*
X142411748Y-101085599D01*
X142397134Y-101065894D01*
X142384521Y-101044850D01*
X142374031Y-101022672D01*
X142365766Y-100999572D01*
X142359805Y-100975774D01*
X142356205Y-100951505D01*
X142355001Y-100927001D01*
X142355001Y-97927001D01*
X142356205Y-97902497D01*
X142359805Y-97878228D01*
X142365766Y-97854430D01*
X142374031Y-97831330D01*
X142384521Y-97809152D01*
X142397134Y-97788108D01*
X142411748Y-97768403D01*
X142428224Y-97750224D01*
X142446403Y-97733748D01*
X142466108Y-97719134D01*
X142487152Y-97706521D01*
X142509330Y-97696031D01*
X142532430Y-97687766D01*
X142556228Y-97681805D01*
X142580497Y-97678205D01*
X142605001Y-97677001D01*
X143705001Y-97677001D01*
X143729505Y-97678205D01*
X143729505Y-97678205D01*
G37*
D17*
X143155001Y-99427001D03*
D11*
G36*
X143729505Y-103078205D02*
G01*
X143753774Y-103081805D01*
X143777572Y-103087766D01*
X143800672Y-103096031D01*
X143822850Y-103106521D01*
X143843894Y-103119134D01*
X143863599Y-103133748D01*
X143881778Y-103150224D01*
X143898254Y-103168403D01*
X143912868Y-103188108D01*
X143925481Y-103209152D01*
X143935971Y-103231330D01*
X143944236Y-103254430D01*
X143950197Y-103278228D01*
X143953797Y-103302497D01*
X143955001Y-103327001D01*
X143955001Y-106327001D01*
X143953797Y-106351505D01*
X143950197Y-106375774D01*
X143944236Y-106399572D01*
X143935971Y-106422672D01*
X143925481Y-106444850D01*
X143912868Y-106465894D01*
X143898254Y-106485599D01*
X143881778Y-106503778D01*
X143863599Y-106520254D01*
X143843894Y-106534868D01*
X143822850Y-106547481D01*
X143800672Y-106557971D01*
X143777572Y-106566236D01*
X143753774Y-106572197D01*
X143729505Y-106575797D01*
X143705001Y-106577001D01*
X142605001Y-106577001D01*
X142580497Y-106575797D01*
X142556228Y-106572197D01*
X142532430Y-106566236D01*
X142509330Y-106557971D01*
X142487152Y-106547481D01*
X142466108Y-106534868D01*
X142446403Y-106520254D01*
X142428224Y-106503778D01*
X142411748Y-106485599D01*
X142397134Y-106465894D01*
X142384521Y-106444850D01*
X142374031Y-106422672D01*
X142365766Y-106399572D01*
X142359805Y-106375774D01*
X142356205Y-106351505D01*
X142355001Y-106327001D01*
X142355001Y-103327001D01*
X142356205Y-103302497D01*
X142359805Y-103278228D01*
X142365766Y-103254430D01*
X142374031Y-103231330D01*
X142384521Y-103209152D01*
X142397134Y-103188108D01*
X142411748Y-103168403D01*
X142428224Y-103150224D01*
X142446403Y-103133748D01*
X142466108Y-103119134D01*
X142487152Y-103106521D01*
X142509330Y-103096031D01*
X142532430Y-103087766D01*
X142556228Y-103081805D01*
X142580497Y-103078205D01*
X142605001Y-103077001D01*
X143705001Y-103077001D01*
X143729505Y-103078205D01*
X143729505Y-103078205D01*
G37*
D17*
X143155001Y-104827001D03*
D18*
X141487000Y-108458000D03*
X146050000Y-99314000D03*
X152654000Y-98298000D03*
X147320000Y-99568000D03*
X145796000Y-108458000D03*
X147985000Y-108458000D03*
X147828000Y-100584000D03*
D19*
X149704000Y-98339000D02*
X148729000Y-98339000D01*
X148729000Y-98339000D02*
X147025000Y-98339000D01*
X147025000Y-98339000D02*
X146050000Y-99314000D01*
D20*
X149704000Y-102888000D02*
X149940000Y-103124000D01*
X149704000Y-100289000D02*
X149704000Y-102888000D01*
X151912000Y-107696000D02*
X153162000Y-107696000D01*
X149940000Y-105724000D02*
X151912000Y-107696000D01*
X149940000Y-103124000D02*
X149940000Y-105724000D01*
X144858002Y-103124000D02*
X143155001Y-104827001D01*
X149940000Y-103124000D02*
X144858002Y-103124000D01*
X139928000Y-101600000D02*
X143155001Y-104827001D01*
X136144000Y-101600000D02*
X139928000Y-101600000D01*
X154940000Y-101824000D02*
X154940000Y-103124000D01*
X154478999Y-101362999D02*
X154940000Y-101824000D01*
X154478999Y-99093999D02*
X154478999Y-101362999D01*
X154583998Y-98989000D02*
X154478999Y-99093999D01*
X155604000Y-98989000D02*
X154583998Y-98989000D01*
X154940000Y-106934000D02*
X155702000Y-107696000D01*
X154940000Y-103124000D02*
X154940000Y-106934000D01*
D19*
X155604000Y-98339000D02*
X152695000Y-98339000D01*
X152695000Y-98339000D02*
X152654000Y-98298000D01*
X149704000Y-98989000D02*
X147899000Y-98989000D01*
X147899000Y-98989000D02*
X147320000Y-99568000D01*
X149704000Y-99639000D02*
X148729000Y-99639000D01*
X148729000Y-99683000D02*
X148729000Y-99639000D01*
X147828000Y-100584000D02*
X148729000Y-99683000D01*
D21*
G36*
X141903816Y-97225816D02*
G01*
X141824464Y-97322507D01*
X141765499Y-97432821D01*
X141729189Y-97552519D01*
X141716929Y-97677001D01*
X141720001Y-99141251D01*
X141878751Y-99300001D01*
X143028001Y-99300001D01*
X143028001Y-99280001D01*
X143282001Y-99280001D01*
X143282001Y-99300001D01*
X144431251Y-99300001D01*
X144590001Y-99141251D01*
X144593073Y-97677001D01*
X144580813Y-97552519D01*
X144544503Y-97432821D01*
X144485538Y-97322507D01*
X144406186Y-97225816D01*
X144350359Y-97180000D01*
X157328000Y-97180000D01*
X157328001Y-109322000D01*
X150961324Y-109322000D01*
X150973312Y-109282482D01*
X150985572Y-109158000D01*
X150982500Y-108743750D01*
X150823750Y-108585000D01*
X149987000Y-108585000D01*
X149987000Y-108605000D01*
X149733000Y-108605000D01*
X149733000Y-108585000D01*
X149713000Y-108585000D01*
X149713000Y-108331000D01*
X149733000Y-108331000D01*
X149733000Y-107281750D01*
X149574250Y-107123000D01*
X149372500Y-107119928D01*
X149248018Y-107132188D01*
X149128320Y-107168498D01*
X149018006Y-107227463D01*
X148921315Y-107306815D01*
X148841963Y-107403506D01*
X148782998Y-107513820D01*
X148746688Y-107633518D01*
X148745246Y-107648155D01*
X148671818Y-107558682D01*
X148576866Y-107480757D01*
X148468537Y-107422854D01*
X148350992Y-107387197D01*
X148228750Y-107375157D01*
X147741250Y-107375157D01*
X147619008Y-107387197D01*
X147501463Y-107422854D01*
X147393134Y-107480757D01*
X147298182Y-107558682D01*
X147220257Y-107653634D01*
X147162354Y-107761963D01*
X147126697Y-107879508D01*
X147114657Y-108001750D01*
X147114657Y-108914250D01*
X147126697Y-109036492D01*
X147162354Y-109154037D01*
X147220257Y-109262366D01*
X147269197Y-109322000D01*
X146511803Y-109322000D01*
X146560743Y-109262366D01*
X146618646Y-109154037D01*
X146654303Y-109036492D01*
X146666343Y-108914250D01*
X146666343Y-108001750D01*
X146654303Y-107879508D01*
X146618646Y-107761963D01*
X146560743Y-107653634D01*
X146482818Y-107558682D01*
X146387866Y-107480757D01*
X146279537Y-107422854D01*
X146161992Y-107387197D01*
X146039750Y-107375157D01*
X145552250Y-107375157D01*
X145430008Y-107387197D01*
X145312463Y-107422854D01*
X145204134Y-107480757D01*
X145109182Y-107558682D01*
X145035754Y-107648155D01*
X145034312Y-107633518D01*
X144998002Y-107513820D01*
X144939037Y-107403506D01*
X144859685Y-107306815D01*
X144762994Y-107227463D01*
X144652680Y-107168498D01*
X144532982Y-107132188D01*
X144408500Y-107119928D01*
X144206750Y-107123000D01*
X144048000Y-107281750D01*
X144048000Y-108331000D01*
X144068000Y-108331000D01*
X144068000Y-108585000D01*
X144048000Y-108585000D01*
X144048000Y-108605000D01*
X143794000Y-108605000D01*
X143794000Y-108585000D01*
X142957250Y-108585000D01*
X142798500Y-108743750D01*
X142795428Y-109158000D01*
X142807688Y-109282482D01*
X142819676Y-109322000D01*
X142286971Y-109322000D01*
X142338190Y-109259589D01*
X142396671Y-109150179D01*
X142432683Y-109031462D01*
X142444843Y-108908001D01*
X142444843Y-108007999D01*
X142432683Y-107884538D01*
X142396671Y-107765821D01*
X142392491Y-107758000D01*
X142795428Y-107758000D01*
X142798500Y-108172250D01*
X142957250Y-108331000D01*
X143794000Y-108331000D01*
X143794000Y-107281750D01*
X143635250Y-107123000D01*
X143433500Y-107119928D01*
X143309018Y-107132188D01*
X143189320Y-107168498D01*
X143079006Y-107227463D01*
X142982315Y-107306815D01*
X142902963Y-107403506D01*
X142843998Y-107513820D01*
X142807688Y-107633518D01*
X142795428Y-107758000D01*
X142392491Y-107758000D01*
X142338190Y-107656411D01*
X142259488Y-107560512D01*
X142163589Y-107481810D01*
X142054179Y-107423329D01*
X141935462Y-107387317D01*
X141812001Y-107375157D01*
X141161999Y-107375157D01*
X141038538Y-107387317D01*
X140919821Y-107423329D01*
X140810411Y-107481810D01*
X140714512Y-107560512D01*
X140639611Y-107651780D01*
X140637812Y-107633518D01*
X140601502Y-107513820D01*
X140542537Y-107403506D01*
X140463185Y-107306815D01*
X140366494Y-107227463D01*
X140256180Y-107168498D01*
X140136482Y-107132188D01*
X140012000Y-107119928D01*
X139722750Y-107123000D01*
X139564000Y-107281750D01*
X139564000Y-108331000D01*
X139584000Y-108331000D01*
X139584000Y-108585000D01*
X139564000Y-108585000D01*
X139564000Y-108605000D01*
X139310000Y-108605000D01*
X139310000Y-108585000D01*
X138385750Y-108585000D01*
X138227000Y-108743750D01*
X138223928Y-109158000D01*
X138236188Y-109282482D01*
X138248176Y-109322000D01*
X134518000Y-109322000D01*
X134518000Y-105512890D01*
X134702524Y-105512890D01*
X134747175Y-105660099D01*
X134872359Y-105922920D01*
X135046412Y-106156269D01*
X135262645Y-106351178D01*
X135450633Y-106463157D01*
X135294000Y-106463157D01*
X135219311Y-106470513D01*
X135147492Y-106492299D01*
X135081304Y-106527678D01*
X135023289Y-106575289D01*
X134975678Y-106633304D01*
X134940299Y-106699492D01*
X134918513Y-106771311D01*
X134911157Y-106846000D01*
X134911157Y-108546000D01*
X134918513Y-108620689D01*
X134940299Y-108692508D01*
X134975678Y-108758696D01*
X135023289Y-108816711D01*
X135081304Y-108864322D01*
X135147492Y-108899701D01*
X135219311Y-108921487D01*
X135294000Y-108928843D01*
X136994000Y-108928843D01*
X137068689Y-108921487D01*
X137140508Y-108899701D01*
X137206696Y-108864322D01*
X137264711Y-108816711D01*
X137312322Y-108758696D01*
X137347701Y-108692508D01*
X137369487Y-108620689D01*
X137376843Y-108546000D01*
X137376843Y-107758000D01*
X138223928Y-107758000D01*
X138227000Y-108172250D01*
X138385750Y-108331000D01*
X139310000Y-108331000D01*
X139310000Y-107281750D01*
X139151250Y-107123000D01*
X138862000Y-107119928D01*
X138737518Y-107132188D01*
X138617820Y-107168498D01*
X138507506Y-107227463D01*
X138410815Y-107306815D01*
X138331463Y-107403506D01*
X138272498Y-107513820D01*
X138236188Y-107633518D01*
X138223928Y-107758000D01*
X137376843Y-107758000D01*
X137376843Y-106846000D01*
X137369487Y-106771311D01*
X137347701Y-106699492D01*
X137312322Y-106633304D01*
X137264711Y-106575289D01*
X137206696Y-106527678D01*
X137140508Y-106492299D01*
X137068689Y-106470513D01*
X136994000Y-106463157D01*
X136837367Y-106463157D01*
X137025355Y-106351178D01*
X137241588Y-106156269D01*
X137415641Y-105922920D01*
X137540825Y-105660099D01*
X137585476Y-105512890D01*
X137464155Y-105283000D01*
X136271000Y-105283000D01*
X136271000Y-105303000D01*
X136017000Y-105303000D01*
X136017000Y-105283000D01*
X134823845Y-105283000D01*
X134702524Y-105512890D01*
X134518000Y-105512890D01*
X134518000Y-104799110D01*
X134702524Y-104799110D01*
X134823845Y-105029000D01*
X136017000Y-105029000D01*
X136017000Y-103835186D01*
X136271000Y-103835186D01*
X136271000Y-105029000D01*
X137464155Y-105029000D01*
X137585476Y-104799110D01*
X137540825Y-104651901D01*
X137415641Y-104389080D01*
X137241588Y-104155731D01*
X137025355Y-103960822D01*
X136775252Y-103811843D01*
X136500891Y-103714519D01*
X136271000Y-103835186D01*
X136017000Y-103835186D01*
X135787109Y-103714519D01*
X135512748Y-103811843D01*
X135262645Y-103960822D01*
X135046412Y-104155731D01*
X134872359Y-104389080D01*
X134747175Y-104651901D01*
X134702524Y-104799110D01*
X134518000Y-104799110D01*
X134518000Y-99416890D01*
X134702524Y-99416890D01*
X134747175Y-99564099D01*
X134872359Y-99826920D01*
X135046412Y-100060269D01*
X135262645Y-100255178D01*
X135450633Y-100367157D01*
X135294000Y-100367157D01*
X135219311Y-100374513D01*
X135147492Y-100396299D01*
X135081304Y-100431678D01*
X135023289Y-100479289D01*
X134975678Y-100537304D01*
X134940299Y-100603492D01*
X134918513Y-100675311D01*
X134911157Y-100750000D01*
X134911157Y-102450000D01*
X134918513Y-102524689D01*
X134940299Y-102596508D01*
X134975678Y-102662696D01*
X135023289Y-102720711D01*
X135081304Y-102768322D01*
X135147492Y-102803701D01*
X135219311Y-102825487D01*
X135294000Y-102832843D01*
X136994000Y-102832843D01*
X137068689Y-102825487D01*
X137140508Y-102803701D01*
X137206696Y-102768322D01*
X137264711Y-102720711D01*
X137312322Y-102662696D01*
X137347701Y-102596508D01*
X137369487Y-102524689D01*
X137376843Y-102450000D01*
X137376843Y-102181000D01*
X139687343Y-102181000D01*
X141972158Y-104465816D01*
X141972158Y-106327001D01*
X141984318Y-106450463D01*
X142020330Y-106569180D01*
X142078811Y-106678590D01*
X142157513Y-106774489D01*
X142253412Y-106853191D01*
X142362822Y-106911672D01*
X142481539Y-106947684D01*
X142605001Y-106959844D01*
X143705001Y-106959844D01*
X143828463Y-106947684D01*
X143947180Y-106911672D01*
X144056590Y-106853191D01*
X144152489Y-106774489D01*
X144231191Y-106678590D01*
X144289672Y-106569180D01*
X144325684Y-106450463D01*
X144337844Y-106327001D01*
X144337844Y-104465815D01*
X145098660Y-103705000D01*
X147807157Y-103705000D01*
X147807157Y-104024000D01*
X147814513Y-104098689D01*
X147836299Y-104170508D01*
X147871678Y-104236696D01*
X147919289Y-104294711D01*
X147977304Y-104342322D01*
X148043492Y-104377701D01*
X148115311Y-104399487D01*
X148190000Y-104406843D01*
X149359000Y-104406843D01*
X149359001Y-105695450D01*
X149356189Y-105724000D01*
X149367407Y-105837895D01*
X149400629Y-105947414D01*
X149400630Y-105947415D01*
X149454580Y-106048348D01*
X149527184Y-106136817D01*
X149549356Y-106155013D01*
X150550283Y-107155940D01*
X150471982Y-107132188D01*
X150347500Y-107119928D01*
X150145750Y-107123000D01*
X149987000Y-107281750D01*
X149987000Y-108331000D01*
X150823750Y-108331000D01*
X150982500Y-108172250D01*
X150985572Y-107758000D01*
X150973312Y-107633518D01*
X150949560Y-107555218D01*
X151480987Y-108086645D01*
X151499183Y-108108817D01*
X151587652Y-108181421D01*
X151678894Y-108230191D01*
X151688585Y-108235371D01*
X151798104Y-108268593D01*
X151911999Y-108279811D01*
X151929157Y-108278121D01*
X151929157Y-108546000D01*
X151936513Y-108620689D01*
X151958299Y-108692508D01*
X151993678Y-108758696D01*
X152041289Y-108816711D01*
X152099304Y-108864322D01*
X152165492Y-108899701D01*
X152237311Y-108921487D01*
X152312000Y-108928843D01*
X154012000Y-108928843D01*
X154086689Y-108921487D01*
X154158508Y-108899701D01*
X154224696Y-108864322D01*
X154282711Y-108816711D01*
X154330322Y-108758696D01*
X154365701Y-108692508D01*
X154387487Y-108620689D01*
X154394843Y-108546000D01*
X154394843Y-107138340D01*
X154400629Y-107157414D01*
X154454579Y-107258347D01*
X154454580Y-107258348D01*
X154523058Y-107341789D01*
X154488812Y-107454682D01*
X154465044Y-107696000D01*
X154488812Y-107937318D01*
X154559202Y-108169363D01*
X154673509Y-108383216D01*
X154827340Y-108570660D01*
X155014784Y-108724491D01*
X155228637Y-108838798D01*
X155460682Y-108909188D01*
X155641528Y-108927000D01*
X155762472Y-108927000D01*
X155943318Y-108909188D01*
X156175363Y-108838798D01*
X156389216Y-108724491D01*
X156576660Y-108570660D01*
X156730491Y-108383216D01*
X156844798Y-108169363D01*
X156915188Y-107937318D01*
X156938956Y-107696000D01*
X156915188Y-107454682D01*
X156844798Y-107222637D01*
X156730491Y-107008784D01*
X156576660Y-106821340D01*
X156389216Y-106667509D01*
X156175363Y-106553202D01*
X155943318Y-106482812D01*
X155762472Y-106465000D01*
X155641528Y-106465000D01*
X155521000Y-106476871D01*
X155521000Y-104406843D01*
X156690000Y-104406843D01*
X156764689Y-104399487D01*
X156836508Y-104377701D01*
X156902696Y-104342322D01*
X156960711Y-104294711D01*
X157008322Y-104236696D01*
X157043701Y-104170508D01*
X157065487Y-104098689D01*
X157072843Y-104024000D01*
X157072843Y-102224000D01*
X157065487Y-102149311D01*
X157043701Y-102077492D01*
X157008322Y-102011304D01*
X156960711Y-101953289D01*
X156902696Y-101905678D01*
X156836508Y-101870299D01*
X156764689Y-101848513D01*
X156690000Y-101841157D01*
X155522121Y-101841157D01*
X155523811Y-101824000D01*
X155512593Y-101710104D01*
X155479371Y-101600585D01*
X155425421Y-101499652D01*
X155414303Y-101486105D01*
X155352817Y-101411183D01*
X155330646Y-101392988D01*
X155088263Y-101150605D01*
X155318250Y-101149000D01*
X155477000Y-100990250D01*
X155477000Y-100387000D01*
X155731000Y-100387000D01*
X155731000Y-100990250D01*
X155889750Y-101149000D01*
X156319285Y-101151998D01*
X156443939Y-101141634D01*
X156564175Y-101107151D01*
X156675375Y-101049874D01*
X156773263Y-100972003D01*
X156854078Y-100876531D01*
X156914715Y-100767127D01*
X156952844Y-100647996D01*
X156964000Y-100545750D01*
X156805250Y-100387000D01*
X155731000Y-100387000D01*
X155477000Y-100387000D01*
X155457000Y-100387000D01*
X155457000Y-100246843D01*
X156329000Y-100246843D01*
X156403689Y-100239487D01*
X156475508Y-100217701D01*
X156525461Y-100191000D01*
X156805250Y-100191000D01*
X156964000Y-100032250D01*
X156952844Y-99930004D01*
X156914715Y-99810873D01*
X156854078Y-99701469D01*
X156773263Y-99605997D01*
X156711843Y-99557137D01*
X156711843Y-99414000D01*
X156704487Y-99339311D01*
X156696809Y-99314000D01*
X156704487Y-99288689D01*
X156711843Y-99214000D01*
X156711843Y-98764000D01*
X156704487Y-98689311D01*
X156696809Y-98664000D01*
X156704487Y-98638689D01*
X156711843Y-98564000D01*
X156711843Y-98114000D01*
X156704487Y-98039311D01*
X156682701Y-97967492D01*
X156647322Y-97901304D01*
X156599711Y-97843289D01*
X156541696Y-97795678D01*
X156475508Y-97760299D01*
X156403689Y-97738513D01*
X156329000Y-97731157D01*
X154879000Y-97731157D01*
X154804311Y-97738513D01*
X154732492Y-97760299D01*
X154666304Y-97795678D01*
X154620826Y-97833000D01*
X153282598Y-97833000D01*
X153260642Y-97800141D01*
X153151859Y-97691358D01*
X153023942Y-97605887D01*
X152881809Y-97547013D01*
X152730922Y-97517000D01*
X152577078Y-97517000D01*
X152426191Y-97547013D01*
X152284058Y-97605887D01*
X152156141Y-97691358D01*
X152047358Y-97800141D01*
X151961887Y-97928058D01*
X151903013Y-98070191D01*
X151873000Y-98221078D01*
X151873000Y-98374922D01*
X151903013Y-98525809D01*
X151961887Y-98667942D01*
X152047358Y-98795859D01*
X152156141Y-98904642D01*
X152284058Y-98990113D01*
X152426191Y-99048987D01*
X152577078Y-99079000D01*
X152730922Y-99079000D01*
X152881809Y-99048987D01*
X153023942Y-98990113D01*
X153151859Y-98904642D01*
X153211501Y-98845000D01*
X153953304Y-98845000D01*
X153939628Y-98870585D01*
X153906406Y-98980104D01*
X153895188Y-99093999D01*
X153897999Y-99122539D01*
X153898000Y-101334449D01*
X153895188Y-101362999D01*
X153906406Y-101476894D01*
X153939628Y-101586413D01*
X153975354Y-101653251D01*
X153993579Y-101687347D01*
X154066183Y-101775816D01*
X154088354Y-101794011D01*
X154135500Y-101841157D01*
X153190000Y-101841157D01*
X153115311Y-101848513D01*
X153043492Y-101870299D01*
X152977304Y-101905678D01*
X152919289Y-101953289D01*
X152871678Y-102011304D01*
X152836299Y-102077492D01*
X152814513Y-102149311D01*
X152807157Y-102224000D01*
X152807157Y-104024000D01*
X152814513Y-104098689D01*
X152836299Y-104170508D01*
X152871678Y-104236696D01*
X152919289Y-104294711D01*
X152977304Y-104342322D01*
X153043492Y-104377701D01*
X153115311Y-104399487D01*
X153190000Y-104406843D01*
X154359000Y-104406843D01*
X154359001Y-106686957D01*
X154330322Y-106633304D01*
X154282711Y-106575289D01*
X154224696Y-106527678D01*
X154158508Y-106492299D01*
X154086689Y-106470513D01*
X154012000Y-106463157D01*
X152312000Y-106463157D01*
X152237311Y-106470513D01*
X152165492Y-106492299D01*
X152099304Y-106527678D01*
X152041289Y-106575289D01*
X151993678Y-106633304D01*
X151958299Y-106699492D01*
X151936513Y-106771311D01*
X151929157Y-106846000D01*
X151929157Y-106891499D01*
X150521000Y-105483343D01*
X150521000Y-104406843D01*
X151690000Y-104406843D01*
X151764689Y-104399487D01*
X151836508Y-104377701D01*
X151902696Y-104342322D01*
X151960711Y-104294711D01*
X152008322Y-104236696D01*
X152043701Y-104170508D01*
X152065487Y-104098689D01*
X152072843Y-104024000D01*
X152072843Y-102224000D01*
X152065487Y-102149311D01*
X152043701Y-102077492D01*
X152008322Y-102011304D01*
X151960711Y-101953289D01*
X151902696Y-101905678D01*
X151836508Y-101870299D01*
X151764689Y-101848513D01*
X151690000Y-101841157D01*
X150285000Y-101841157D01*
X150285000Y-100896843D01*
X150429000Y-100896843D01*
X150503689Y-100889487D01*
X150575508Y-100867701D01*
X150641696Y-100832322D01*
X150699711Y-100784711D01*
X150747322Y-100726696D01*
X150782701Y-100660508D01*
X150804487Y-100588689D01*
X150811843Y-100514000D01*
X150811843Y-100064000D01*
X150804487Y-99989311D01*
X150796809Y-99964000D01*
X150804487Y-99938689D01*
X150811843Y-99864000D01*
X150811843Y-99414000D01*
X150804487Y-99339311D01*
X150796809Y-99314000D01*
X150804487Y-99288689D01*
X150811843Y-99214000D01*
X150811843Y-98764000D01*
X150804487Y-98689311D01*
X150796809Y-98664000D01*
X150804487Y-98638689D01*
X150811843Y-98564000D01*
X150811843Y-98114000D01*
X150804487Y-98039311D01*
X150782701Y-97967492D01*
X150747322Y-97901304D01*
X150699711Y-97843289D01*
X150641696Y-97795678D01*
X150575508Y-97760299D01*
X150503689Y-97738513D01*
X150429000Y-97731157D01*
X148979000Y-97731157D01*
X148904311Y-97738513D01*
X148832492Y-97760299D01*
X148766304Y-97795678D01*
X148720826Y-97833000D01*
X147049845Y-97833000D01*
X147024999Y-97830553D01*
X147000153Y-97833000D01*
X147000146Y-97833000D01*
X146935694Y-97839348D01*
X146925806Y-97840322D01*
X146845039Y-97864822D01*
X146830425Y-97869255D01*
X146742521Y-97916241D01*
X146665473Y-97979473D01*
X146649629Y-97998779D01*
X146115409Y-98533000D01*
X145973078Y-98533000D01*
X145822191Y-98563013D01*
X145680058Y-98621887D01*
X145552141Y-98707358D01*
X145443358Y-98816141D01*
X145357887Y-98944058D01*
X145299013Y-99086191D01*
X145269000Y-99237078D01*
X145269000Y-99390922D01*
X145299013Y-99541809D01*
X145357887Y-99683942D01*
X145443358Y-99811859D01*
X145552141Y-99920642D01*
X145680058Y-100006113D01*
X145822191Y-100064987D01*
X145973078Y-100095000D01*
X146126922Y-100095000D01*
X146277809Y-100064987D01*
X146419942Y-100006113D01*
X146547859Y-99920642D01*
X146599380Y-99869121D01*
X146627887Y-99937942D01*
X146713358Y-100065859D01*
X146822141Y-100174642D01*
X146950058Y-100260113D01*
X147092191Y-100318987D01*
X147092406Y-100319030D01*
X147077013Y-100356191D01*
X147047000Y-100507078D01*
X147047000Y-100660922D01*
X147077013Y-100811809D01*
X147135887Y-100953942D01*
X147221358Y-101081859D01*
X147330141Y-101190642D01*
X147458058Y-101276113D01*
X147600191Y-101334987D01*
X147751078Y-101365000D01*
X147904922Y-101365000D01*
X148055809Y-101334987D01*
X148197942Y-101276113D01*
X148325859Y-101190642D01*
X148434642Y-101081859D01*
X148520113Y-100953942D01*
X148578987Y-100811809D01*
X148609000Y-100660922D01*
X148609000Y-100606777D01*
X148625299Y-100660508D01*
X148660678Y-100726696D01*
X148708289Y-100784711D01*
X148766304Y-100832322D01*
X148832492Y-100867701D01*
X148904311Y-100889487D01*
X148979000Y-100896843D01*
X149123000Y-100896843D01*
X149123001Y-101841157D01*
X148190000Y-101841157D01*
X148115311Y-101848513D01*
X148043492Y-101870299D01*
X147977304Y-101905678D01*
X147919289Y-101953289D01*
X147871678Y-102011304D01*
X147836299Y-102077492D01*
X147814513Y-102149311D01*
X147807157Y-102224000D01*
X147807157Y-102543000D01*
X144886541Y-102543000D01*
X144858001Y-102540189D01*
X144744106Y-102551407D01*
X144634587Y-102584629D01*
X144533654Y-102638579D01*
X144445185Y-102711183D01*
X144426992Y-102733352D01*
X144210340Y-102950004D01*
X144152489Y-102879513D01*
X144056590Y-102800811D01*
X143947180Y-102742330D01*
X143828463Y-102706318D01*
X143705001Y-102694158D01*
X142605001Y-102694158D01*
X142481539Y-102706318D01*
X142362822Y-102742330D01*
X142253412Y-102800811D01*
X142157513Y-102879513D01*
X142099662Y-102950005D01*
X140359017Y-101209360D01*
X140340817Y-101187183D01*
X140328411Y-101177001D01*
X141716929Y-101177001D01*
X141729189Y-101301483D01*
X141765499Y-101421181D01*
X141824464Y-101531495D01*
X141903816Y-101628186D01*
X142000507Y-101707538D01*
X142110821Y-101766503D01*
X142230519Y-101802813D01*
X142355001Y-101815073D01*
X142869251Y-101812001D01*
X143028001Y-101653251D01*
X143028001Y-99554001D01*
X143282001Y-99554001D01*
X143282001Y-101653251D01*
X143440751Y-101812001D01*
X143955001Y-101815073D01*
X144079483Y-101802813D01*
X144199181Y-101766503D01*
X144309495Y-101707538D01*
X144406186Y-101628186D01*
X144485538Y-101531495D01*
X144544503Y-101421181D01*
X144580813Y-101301483D01*
X144593073Y-101177001D01*
X144590001Y-99712751D01*
X144431251Y-99554001D01*
X143282001Y-99554001D01*
X143028001Y-99554001D01*
X141878751Y-99554001D01*
X141720001Y-99712751D01*
X141716929Y-101177001D01*
X140328411Y-101177001D01*
X140252348Y-101114579D01*
X140151415Y-101060629D01*
X140041896Y-101027407D01*
X139956540Y-101019000D01*
X139928000Y-101016189D01*
X139899460Y-101019000D01*
X137376843Y-101019000D01*
X137376843Y-100750000D01*
X137369487Y-100675311D01*
X137347701Y-100603492D01*
X137312322Y-100537304D01*
X137264711Y-100479289D01*
X137206696Y-100431678D01*
X137140508Y-100396299D01*
X137068689Y-100374513D01*
X136994000Y-100367157D01*
X136837367Y-100367157D01*
X137025355Y-100255178D01*
X137241588Y-100060269D01*
X137415641Y-99826920D01*
X137540825Y-99564099D01*
X137585476Y-99416890D01*
X137464155Y-99187000D01*
X136271000Y-99187000D01*
X136271000Y-99207000D01*
X136017000Y-99207000D01*
X136017000Y-99187000D01*
X134823845Y-99187000D01*
X134702524Y-99416890D01*
X134518000Y-99416890D01*
X134518000Y-98703110D01*
X134702524Y-98703110D01*
X134823845Y-98933000D01*
X136017000Y-98933000D01*
X136017000Y-97739186D01*
X136271000Y-97739186D01*
X136271000Y-98933000D01*
X137464155Y-98933000D01*
X137585476Y-98703110D01*
X137540825Y-98555901D01*
X137415641Y-98293080D01*
X137241588Y-98059731D01*
X137025355Y-97864822D01*
X136775252Y-97715843D01*
X136500891Y-97618519D01*
X136271000Y-97739186D01*
X136017000Y-97739186D01*
X135787109Y-97618519D01*
X135512748Y-97715843D01*
X135262645Y-97864822D01*
X135046412Y-98059731D01*
X134872359Y-98293080D01*
X134747175Y-98555901D01*
X134702524Y-98703110D01*
X134518000Y-98703110D01*
X134518000Y-97180000D01*
X141959643Y-97180000D01*
X141903816Y-97225816D01*
X141903816Y-97225816D01*
G37*
X141903816Y-97225816D02*
X141824464Y-97322507D01*
X141765499Y-97432821D01*
X141729189Y-97552519D01*
X141716929Y-97677001D01*
X141720001Y-99141251D01*
X141878751Y-99300001D01*
X143028001Y-99300001D01*
X143028001Y-99280001D01*
X143282001Y-99280001D01*
X143282001Y-99300001D01*
X144431251Y-99300001D01*
X144590001Y-99141251D01*
X144593073Y-97677001D01*
X144580813Y-97552519D01*
X144544503Y-97432821D01*
X144485538Y-97322507D01*
X144406186Y-97225816D01*
X144350359Y-97180000D01*
X157328000Y-97180000D01*
X157328001Y-109322000D01*
X150961324Y-109322000D01*
X150973312Y-109282482D01*
X150985572Y-109158000D01*
X150982500Y-108743750D01*
X150823750Y-108585000D01*
X149987000Y-108585000D01*
X149987000Y-108605000D01*
X149733000Y-108605000D01*
X149733000Y-108585000D01*
X149713000Y-108585000D01*
X149713000Y-108331000D01*
X149733000Y-108331000D01*
X149733000Y-107281750D01*
X149574250Y-107123000D01*
X149372500Y-107119928D01*
X149248018Y-107132188D01*
X149128320Y-107168498D01*
X149018006Y-107227463D01*
X148921315Y-107306815D01*
X148841963Y-107403506D01*
X148782998Y-107513820D01*
X148746688Y-107633518D01*
X148745246Y-107648155D01*
X148671818Y-107558682D01*
X148576866Y-107480757D01*
X148468537Y-107422854D01*
X148350992Y-107387197D01*
X148228750Y-107375157D01*
X147741250Y-107375157D01*
X147619008Y-107387197D01*
X147501463Y-107422854D01*
X147393134Y-107480757D01*
X147298182Y-107558682D01*
X147220257Y-107653634D01*
X147162354Y-107761963D01*
X147126697Y-107879508D01*
X147114657Y-108001750D01*
X147114657Y-108914250D01*
X147126697Y-109036492D01*
X147162354Y-109154037D01*
X147220257Y-109262366D01*
X147269197Y-109322000D01*
X146511803Y-109322000D01*
X146560743Y-109262366D01*
X146618646Y-109154037D01*
X146654303Y-109036492D01*
X146666343Y-108914250D01*
X146666343Y-108001750D01*
X146654303Y-107879508D01*
X146618646Y-107761963D01*
X146560743Y-107653634D01*
X146482818Y-107558682D01*
X146387866Y-107480757D01*
X146279537Y-107422854D01*
X146161992Y-107387197D01*
X146039750Y-107375157D01*
X145552250Y-107375157D01*
X145430008Y-107387197D01*
X145312463Y-107422854D01*
X145204134Y-107480757D01*
X145109182Y-107558682D01*
X145035754Y-107648155D01*
X145034312Y-107633518D01*
X144998002Y-107513820D01*
X144939037Y-107403506D01*
X144859685Y-107306815D01*
X144762994Y-107227463D01*
X144652680Y-107168498D01*
X144532982Y-107132188D01*
X144408500Y-107119928D01*
X144206750Y-107123000D01*
X144048000Y-107281750D01*
X144048000Y-108331000D01*
X144068000Y-108331000D01*
X144068000Y-108585000D01*
X144048000Y-108585000D01*
X144048000Y-108605000D01*
X143794000Y-108605000D01*
X143794000Y-108585000D01*
X142957250Y-108585000D01*
X142798500Y-108743750D01*
X142795428Y-109158000D01*
X142807688Y-109282482D01*
X142819676Y-109322000D01*
X142286971Y-109322000D01*
X142338190Y-109259589D01*
X142396671Y-109150179D01*
X142432683Y-109031462D01*
X142444843Y-108908001D01*
X142444843Y-108007999D01*
X142432683Y-107884538D01*
X142396671Y-107765821D01*
X142392491Y-107758000D01*
X142795428Y-107758000D01*
X142798500Y-108172250D01*
X142957250Y-108331000D01*
X143794000Y-108331000D01*
X143794000Y-107281750D01*
X143635250Y-107123000D01*
X143433500Y-107119928D01*
X143309018Y-107132188D01*
X143189320Y-107168498D01*
X143079006Y-107227463D01*
X142982315Y-107306815D01*
X142902963Y-107403506D01*
X142843998Y-107513820D01*
X142807688Y-107633518D01*
X142795428Y-107758000D01*
X142392491Y-107758000D01*
X142338190Y-107656411D01*
X142259488Y-107560512D01*
X142163589Y-107481810D01*
X142054179Y-107423329D01*
X141935462Y-107387317D01*
X141812001Y-107375157D01*
X141161999Y-107375157D01*
X141038538Y-107387317D01*
X140919821Y-107423329D01*
X140810411Y-107481810D01*
X140714512Y-107560512D01*
X140639611Y-107651780D01*
X140637812Y-107633518D01*
X140601502Y-107513820D01*
X140542537Y-107403506D01*
X140463185Y-107306815D01*
X140366494Y-107227463D01*
X140256180Y-107168498D01*
X140136482Y-107132188D01*
X140012000Y-107119928D01*
X139722750Y-107123000D01*
X139564000Y-107281750D01*
X139564000Y-108331000D01*
X139584000Y-108331000D01*
X139584000Y-108585000D01*
X139564000Y-108585000D01*
X139564000Y-108605000D01*
X139310000Y-108605000D01*
X139310000Y-108585000D01*
X138385750Y-108585000D01*
X138227000Y-108743750D01*
X138223928Y-109158000D01*
X138236188Y-109282482D01*
X138248176Y-109322000D01*
X134518000Y-109322000D01*
X134518000Y-105512890D01*
X134702524Y-105512890D01*
X134747175Y-105660099D01*
X134872359Y-105922920D01*
X135046412Y-106156269D01*
X135262645Y-106351178D01*
X135450633Y-106463157D01*
X135294000Y-106463157D01*
X135219311Y-106470513D01*
X135147492Y-106492299D01*
X135081304Y-106527678D01*
X135023289Y-106575289D01*
X134975678Y-106633304D01*
X134940299Y-106699492D01*
X134918513Y-106771311D01*
X134911157Y-106846000D01*
X134911157Y-108546000D01*
X134918513Y-108620689D01*
X134940299Y-108692508D01*
X134975678Y-108758696D01*
X135023289Y-108816711D01*
X135081304Y-108864322D01*
X135147492Y-108899701D01*
X135219311Y-108921487D01*
X135294000Y-108928843D01*
X136994000Y-108928843D01*
X137068689Y-108921487D01*
X137140508Y-108899701D01*
X137206696Y-108864322D01*
X137264711Y-108816711D01*
X137312322Y-108758696D01*
X137347701Y-108692508D01*
X137369487Y-108620689D01*
X137376843Y-108546000D01*
X137376843Y-107758000D01*
X138223928Y-107758000D01*
X138227000Y-108172250D01*
X138385750Y-108331000D01*
X139310000Y-108331000D01*
X139310000Y-107281750D01*
X139151250Y-107123000D01*
X138862000Y-107119928D01*
X138737518Y-107132188D01*
X138617820Y-107168498D01*
X138507506Y-107227463D01*
X138410815Y-107306815D01*
X138331463Y-107403506D01*
X138272498Y-107513820D01*
X138236188Y-107633518D01*
X138223928Y-107758000D01*
X137376843Y-107758000D01*
X137376843Y-106846000D01*
X137369487Y-106771311D01*
X137347701Y-106699492D01*
X137312322Y-106633304D01*
X137264711Y-106575289D01*
X137206696Y-106527678D01*
X137140508Y-106492299D01*
X137068689Y-106470513D01*
X136994000Y-106463157D01*
X136837367Y-106463157D01*
X137025355Y-106351178D01*
X137241588Y-106156269D01*
X137415641Y-105922920D01*
X137540825Y-105660099D01*
X137585476Y-105512890D01*
X137464155Y-105283000D01*
X136271000Y-105283000D01*
X136271000Y-105303000D01*
X136017000Y-105303000D01*
X136017000Y-105283000D01*
X134823845Y-105283000D01*
X134702524Y-105512890D01*
X134518000Y-105512890D01*
X134518000Y-104799110D01*
X134702524Y-104799110D01*
X134823845Y-105029000D01*
X136017000Y-105029000D01*
X136017000Y-103835186D01*
X136271000Y-103835186D01*
X136271000Y-105029000D01*
X137464155Y-105029000D01*
X137585476Y-104799110D01*
X137540825Y-104651901D01*
X137415641Y-104389080D01*
X137241588Y-104155731D01*
X137025355Y-103960822D01*
X136775252Y-103811843D01*
X136500891Y-103714519D01*
X136271000Y-103835186D01*
X136017000Y-103835186D01*
X135787109Y-103714519D01*
X135512748Y-103811843D01*
X135262645Y-103960822D01*
X135046412Y-104155731D01*
X134872359Y-104389080D01*
X134747175Y-104651901D01*
X134702524Y-104799110D01*
X134518000Y-104799110D01*
X134518000Y-99416890D01*
X134702524Y-99416890D01*
X134747175Y-99564099D01*
X134872359Y-99826920D01*
X135046412Y-100060269D01*
X135262645Y-100255178D01*
X135450633Y-100367157D01*
X135294000Y-100367157D01*
X135219311Y-100374513D01*
X135147492Y-100396299D01*
X135081304Y-100431678D01*
X135023289Y-100479289D01*
X134975678Y-100537304D01*
X134940299Y-100603492D01*
X134918513Y-100675311D01*
X134911157Y-100750000D01*
X134911157Y-102450000D01*
X134918513Y-102524689D01*
X134940299Y-102596508D01*
X134975678Y-102662696D01*
X135023289Y-102720711D01*
X135081304Y-102768322D01*
X135147492Y-102803701D01*
X135219311Y-102825487D01*
X135294000Y-102832843D01*
X136994000Y-102832843D01*
X137068689Y-102825487D01*
X137140508Y-102803701D01*
X137206696Y-102768322D01*
X137264711Y-102720711D01*
X137312322Y-102662696D01*
X137347701Y-102596508D01*
X137369487Y-102524689D01*
X137376843Y-102450000D01*
X137376843Y-102181000D01*
X139687343Y-102181000D01*
X141972158Y-104465816D01*
X141972158Y-106327001D01*
X141984318Y-106450463D01*
X142020330Y-106569180D01*
X142078811Y-106678590D01*
X142157513Y-106774489D01*
X142253412Y-106853191D01*
X142362822Y-106911672D01*
X142481539Y-106947684D01*
X142605001Y-106959844D01*
X143705001Y-106959844D01*
X143828463Y-106947684D01*
X143947180Y-106911672D01*
X144056590Y-106853191D01*
X144152489Y-106774489D01*
X144231191Y-106678590D01*
X144289672Y-106569180D01*
X144325684Y-106450463D01*
X144337844Y-106327001D01*
X144337844Y-104465815D01*
X145098660Y-103705000D01*
X147807157Y-103705000D01*
X147807157Y-104024000D01*
X147814513Y-104098689D01*
X147836299Y-104170508D01*
X147871678Y-104236696D01*
X147919289Y-104294711D01*
X147977304Y-104342322D01*
X148043492Y-104377701D01*
X148115311Y-104399487D01*
X148190000Y-104406843D01*
X149359000Y-104406843D01*
X149359001Y-105695450D01*
X149356189Y-105724000D01*
X149367407Y-105837895D01*
X149400629Y-105947414D01*
X149400630Y-105947415D01*
X149454580Y-106048348D01*
X149527184Y-106136817D01*
X149549356Y-106155013D01*
X150550283Y-107155940D01*
X150471982Y-107132188D01*
X150347500Y-107119928D01*
X150145750Y-107123000D01*
X149987000Y-107281750D01*
X149987000Y-108331000D01*
X150823750Y-108331000D01*
X150982500Y-108172250D01*
X150985572Y-107758000D01*
X150973312Y-107633518D01*
X150949560Y-107555218D01*
X151480987Y-108086645D01*
X151499183Y-108108817D01*
X151587652Y-108181421D01*
X151678894Y-108230191D01*
X151688585Y-108235371D01*
X151798104Y-108268593D01*
X151911999Y-108279811D01*
X151929157Y-108278121D01*
X151929157Y-108546000D01*
X151936513Y-108620689D01*
X151958299Y-108692508D01*
X151993678Y-108758696D01*
X152041289Y-108816711D01*
X152099304Y-108864322D01*
X152165492Y-108899701D01*
X152237311Y-108921487D01*
X152312000Y-108928843D01*
X154012000Y-108928843D01*
X154086689Y-108921487D01*
X154158508Y-108899701D01*
X154224696Y-108864322D01*
X154282711Y-108816711D01*
X154330322Y-108758696D01*
X154365701Y-108692508D01*
X154387487Y-108620689D01*
X154394843Y-108546000D01*
X154394843Y-107138340D01*
X154400629Y-107157414D01*
X154454579Y-107258347D01*
X154454580Y-107258348D01*
X154523058Y-107341789D01*
X154488812Y-107454682D01*
X154465044Y-107696000D01*
X154488812Y-107937318D01*
X154559202Y-108169363D01*
X154673509Y-108383216D01*
X154827340Y-108570660D01*
X155014784Y-108724491D01*
X155228637Y-108838798D01*
X155460682Y-108909188D01*
X155641528Y-108927000D01*
X155762472Y-108927000D01*
X155943318Y-108909188D01*
X156175363Y-108838798D01*
X156389216Y-108724491D01*
X156576660Y-108570660D01*
X156730491Y-108383216D01*
X156844798Y-108169363D01*
X156915188Y-107937318D01*
X156938956Y-107696000D01*
X156915188Y-107454682D01*
X156844798Y-107222637D01*
X156730491Y-107008784D01*
X156576660Y-106821340D01*
X156389216Y-106667509D01*
X156175363Y-106553202D01*
X155943318Y-106482812D01*
X155762472Y-106465000D01*
X155641528Y-106465000D01*
X155521000Y-106476871D01*
X155521000Y-104406843D01*
X156690000Y-104406843D01*
X156764689Y-104399487D01*
X156836508Y-104377701D01*
X156902696Y-104342322D01*
X156960711Y-104294711D01*
X157008322Y-104236696D01*
X157043701Y-104170508D01*
X157065487Y-104098689D01*
X157072843Y-104024000D01*
X157072843Y-102224000D01*
X157065487Y-102149311D01*
X157043701Y-102077492D01*
X157008322Y-102011304D01*
X156960711Y-101953289D01*
X156902696Y-101905678D01*
X156836508Y-101870299D01*
X156764689Y-101848513D01*
X156690000Y-101841157D01*
X155522121Y-101841157D01*
X155523811Y-101824000D01*
X155512593Y-101710104D01*
X155479371Y-101600585D01*
X155425421Y-101499652D01*
X155414303Y-101486105D01*
X155352817Y-101411183D01*
X155330646Y-101392988D01*
X155088263Y-101150605D01*
X155318250Y-101149000D01*
X155477000Y-100990250D01*
X155477000Y-100387000D01*
X155731000Y-100387000D01*
X155731000Y-100990250D01*
X155889750Y-101149000D01*
X156319285Y-101151998D01*
X156443939Y-101141634D01*
X156564175Y-101107151D01*
X156675375Y-101049874D01*
X156773263Y-100972003D01*
X156854078Y-100876531D01*
X156914715Y-100767127D01*
X156952844Y-100647996D01*
X156964000Y-100545750D01*
X156805250Y-100387000D01*
X155731000Y-100387000D01*
X155477000Y-100387000D01*
X155457000Y-100387000D01*
X155457000Y-100246843D01*
X156329000Y-100246843D01*
X156403689Y-100239487D01*
X156475508Y-100217701D01*
X156525461Y-100191000D01*
X156805250Y-100191000D01*
X156964000Y-100032250D01*
X156952844Y-99930004D01*
X156914715Y-99810873D01*
X156854078Y-99701469D01*
X156773263Y-99605997D01*
X156711843Y-99557137D01*
X156711843Y-99414000D01*
X156704487Y-99339311D01*
X156696809Y-99314000D01*
X156704487Y-99288689D01*
X156711843Y-99214000D01*
X156711843Y-98764000D01*
X156704487Y-98689311D01*
X156696809Y-98664000D01*
X156704487Y-98638689D01*
X156711843Y-98564000D01*
X156711843Y-98114000D01*
X156704487Y-98039311D01*
X156682701Y-97967492D01*
X156647322Y-97901304D01*
X156599711Y-97843289D01*
X156541696Y-97795678D01*
X156475508Y-97760299D01*
X156403689Y-97738513D01*
X156329000Y-97731157D01*
X154879000Y-97731157D01*
X154804311Y-97738513D01*
X154732492Y-97760299D01*
X154666304Y-97795678D01*
X154620826Y-97833000D01*
X153282598Y-97833000D01*
X153260642Y-97800141D01*
X153151859Y-97691358D01*
X153023942Y-97605887D01*
X152881809Y-97547013D01*
X152730922Y-97517000D01*
X152577078Y-97517000D01*
X152426191Y-97547013D01*
X152284058Y-97605887D01*
X152156141Y-97691358D01*
X152047358Y-97800141D01*
X151961887Y-97928058D01*
X151903013Y-98070191D01*
X151873000Y-98221078D01*
X151873000Y-98374922D01*
X151903013Y-98525809D01*
X151961887Y-98667942D01*
X152047358Y-98795859D01*
X152156141Y-98904642D01*
X152284058Y-98990113D01*
X152426191Y-99048987D01*
X152577078Y-99079000D01*
X152730922Y-99079000D01*
X152881809Y-99048987D01*
X153023942Y-98990113D01*
X153151859Y-98904642D01*
X153211501Y-98845000D01*
X153953304Y-98845000D01*
X153939628Y-98870585D01*
X153906406Y-98980104D01*
X153895188Y-99093999D01*
X153897999Y-99122539D01*
X153898000Y-101334449D01*
X153895188Y-101362999D01*
X153906406Y-101476894D01*
X153939628Y-101586413D01*
X153975354Y-101653251D01*
X153993579Y-101687347D01*
X154066183Y-101775816D01*
X154088354Y-101794011D01*
X154135500Y-101841157D01*
X153190000Y-101841157D01*
X153115311Y-101848513D01*
X153043492Y-101870299D01*
X152977304Y-101905678D01*
X152919289Y-101953289D01*
X152871678Y-102011304D01*
X152836299Y-102077492D01*
X152814513Y-102149311D01*
X152807157Y-102224000D01*
X152807157Y-104024000D01*
X152814513Y-104098689D01*
X152836299Y-104170508D01*
X152871678Y-104236696D01*
X152919289Y-104294711D01*
X152977304Y-104342322D01*
X153043492Y-104377701D01*
X153115311Y-104399487D01*
X153190000Y-104406843D01*
X154359000Y-104406843D01*
X154359001Y-106686957D01*
X154330322Y-106633304D01*
X154282711Y-106575289D01*
X154224696Y-106527678D01*
X154158508Y-106492299D01*
X154086689Y-106470513D01*
X154012000Y-106463157D01*
X152312000Y-106463157D01*
X152237311Y-106470513D01*
X152165492Y-106492299D01*
X152099304Y-106527678D01*
X152041289Y-106575289D01*
X151993678Y-106633304D01*
X151958299Y-106699492D01*
X151936513Y-106771311D01*
X151929157Y-106846000D01*
X151929157Y-106891499D01*
X150521000Y-105483343D01*
X150521000Y-104406843D01*
X151690000Y-104406843D01*
X151764689Y-104399487D01*
X151836508Y-104377701D01*
X151902696Y-104342322D01*
X151960711Y-104294711D01*
X152008322Y-104236696D01*
X152043701Y-104170508D01*
X152065487Y-104098689D01*
X152072843Y-104024000D01*
X152072843Y-102224000D01*
X152065487Y-102149311D01*
X152043701Y-102077492D01*
X152008322Y-102011304D01*
X151960711Y-101953289D01*
X151902696Y-101905678D01*
X151836508Y-101870299D01*
X151764689Y-101848513D01*
X151690000Y-101841157D01*
X150285000Y-101841157D01*
X150285000Y-100896843D01*
X150429000Y-100896843D01*
X150503689Y-100889487D01*
X150575508Y-100867701D01*
X150641696Y-100832322D01*
X150699711Y-100784711D01*
X150747322Y-100726696D01*
X150782701Y-100660508D01*
X150804487Y-100588689D01*
X150811843Y-100514000D01*
X150811843Y-100064000D01*
X150804487Y-99989311D01*
X150796809Y-99964000D01*
X150804487Y-99938689D01*
X150811843Y-99864000D01*
X150811843Y-99414000D01*
X150804487Y-99339311D01*
X150796809Y-99314000D01*
X150804487Y-99288689D01*
X150811843Y-99214000D01*
X150811843Y-98764000D01*
X150804487Y-98689311D01*
X150796809Y-98664000D01*
X150804487Y-98638689D01*
X150811843Y-98564000D01*
X150811843Y-98114000D01*
X150804487Y-98039311D01*
X150782701Y-97967492D01*
X150747322Y-97901304D01*
X150699711Y-97843289D01*
X150641696Y-97795678D01*
X150575508Y-97760299D01*
X150503689Y-97738513D01*
X150429000Y-97731157D01*
X148979000Y-97731157D01*
X148904311Y-97738513D01*
X148832492Y-97760299D01*
X148766304Y-97795678D01*
X148720826Y-97833000D01*
X147049845Y-97833000D01*
X147024999Y-97830553D01*
X147000153Y-97833000D01*
X147000146Y-97833000D01*
X146935694Y-97839348D01*
X146925806Y-97840322D01*
X146845039Y-97864822D01*
X146830425Y-97869255D01*
X146742521Y-97916241D01*
X146665473Y-97979473D01*
X146649629Y-97998779D01*
X146115409Y-98533000D01*
X145973078Y-98533000D01*
X145822191Y-98563013D01*
X145680058Y-98621887D01*
X145552141Y-98707358D01*
X145443358Y-98816141D01*
X145357887Y-98944058D01*
X145299013Y-99086191D01*
X145269000Y-99237078D01*
X145269000Y-99390922D01*
X145299013Y-99541809D01*
X145357887Y-99683942D01*
X145443358Y-99811859D01*
X145552141Y-99920642D01*
X145680058Y-100006113D01*
X145822191Y-100064987D01*
X145973078Y-100095000D01*
X146126922Y-100095000D01*
X146277809Y-100064987D01*
X146419942Y-100006113D01*
X146547859Y-99920642D01*
X146599380Y-99869121D01*
X146627887Y-99937942D01*
X146713358Y-100065859D01*
X146822141Y-100174642D01*
X146950058Y-100260113D01*
X147092191Y-100318987D01*
X147092406Y-100319030D01*
X147077013Y-100356191D01*
X147047000Y-100507078D01*
X147047000Y-100660922D01*
X147077013Y-100811809D01*
X147135887Y-100953942D01*
X147221358Y-101081859D01*
X147330141Y-101190642D01*
X147458058Y-101276113D01*
X147600191Y-101334987D01*
X147751078Y-101365000D01*
X147904922Y-101365000D01*
X148055809Y-101334987D01*
X148197942Y-101276113D01*
X148325859Y-101190642D01*
X148434642Y-101081859D01*
X148520113Y-100953942D01*
X148578987Y-100811809D01*
X148609000Y-100660922D01*
X148609000Y-100606777D01*
X148625299Y-100660508D01*
X148660678Y-100726696D01*
X148708289Y-100784711D01*
X148766304Y-100832322D01*
X148832492Y-100867701D01*
X148904311Y-100889487D01*
X148979000Y-100896843D01*
X149123000Y-100896843D01*
X149123001Y-101841157D01*
X148190000Y-101841157D01*
X148115311Y-101848513D01*
X148043492Y-101870299D01*
X147977304Y-101905678D01*
X147919289Y-101953289D01*
X147871678Y-102011304D01*
X147836299Y-102077492D01*
X147814513Y-102149311D01*
X147807157Y-102224000D01*
X147807157Y-102543000D01*
X144886541Y-102543000D01*
X144858001Y-102540189D01*
X144744106Y-102551407D01*
X144634587Y-102584629D01*
X144533654Y-102638579D01*
X144445185Y-102711183D01*
X144426992Y-102733352D01*
X144210340Y-102950004D01*
X144152489Y-102879513D01*
X144056590Y-102800811D01*
X143947180Y-102742330D01*
X143828463Y-102706318D01*
X143705001Y-102694158D01*
X142605001Y-102694158D01*
X142481539Y-102706318D01*
X142362822Y-102742330D01*
X142253412Y-102800811D01*
X142157513Y-102879513D01*
X142099662Y-102950005D01*
X140359017Y-101209360D01*
X140340817Y-101187183D01*
X140328411Y-101177001D01*
X141716929Y-101177001D01*
X141729189Y-101301483D01*
X141765499Y-101421181D01*
X141824464Y-101531495D01*
X141903816Y-101628186D01*
X142000507Y-101707538D01*
X142110821Y-101766503D01*
X142230519Y-101802813D01*
X142355001Y-101815073D01*
X142869251Y-101812001D01*
X143028001Y-101653251D01*
X143028001Y-99554001D01*
X143282001Y-99554001D01*
X143282001Y-101653251D01*
X143440751Y-101812001D01*
X143955001Y-101815073D01*
X144079483Y-101802813D01*
X144199181Y-101766503D01*
X144309495Y-101707538D01*
X144406186Y-101628186D01*
X144485538Y-101531495D01*
X144544503Y-101421181D01*
X144580813Y-101301483D01*
X144593073Y-101177001D01*
X144590001Y-99712751D01*
X144431251Y-99554001D01*
X143282001Y-99554001D01*
X143028001Y-99554001D01*
X141878751Y-99554001D01*
X141720001Y-99712751D01*
X141716929Y-101177001D01*
X140328411Y-101177001D01*
X140252348Y-101114579D01*
X140151415Y-101060629D01*
X140041896Y-101027407D01*
X139956540Y-101019000D01*
X139928000Y-101016189D01*
X139899460Y-101019000D01*
X137376843Y-101019000D01*
X137376843Y-100750000D01*
X137369487Y-100675311D01*
X137347701Y-100603492D01*
X137312322Y-100537304D01*
X137264711Y-100479289D01*
X137206696Y-100431678D01*
X137140508Y-100396299D01*
X137068689Y-100374513D01*
X136994000Y-100367157D01*
X136837367Y-100367157D01*
X137025355Y-100255178D01*
X137241588Y-100060269D01*
X137415641Y-99826920D01*
X137540825Y-99564099D01*
X137585476Y-99416890D01*
X137464155Y-99187000D01*
X136271000Y-99187000D01*
X136271000Y-99207000D01*
X136017000Y-99207000D01*
X136017000Y-99187000D01*
X134823845Y-99187000D01*
X134702524Y-99416890D01*
X134518000Y-99416890D01*
X134518000Y-98703110D01*
X134702524Y-98703110D01*
X134823845Y-98933000D01*
X136017000Y-98933000D01*
X136017000Y-97739186D01*
X136271000Y-97739186D01*
X136271000Y-98933000D01*
X137464155Y-98933000D01*
X137585476Y-98703110D01*
X137540825Y-98555901D01*
X137415641Y-98293080D01*
X137241588Y-98059731D01*
X137025355Y-97864822D01*
X136775252Y-97715843D01*
X136500891Y-97618519D01*
X136271000Y-97739186D01*
X136017000Y-97739186D01*
X135787109Y-97618519D01*
X135512748Y-97715843D01*
X135262645Y-97864822D01*
X135046412Y-98059731D01*
X134872359Y-98293080D01*
X134747175Y-98555901D01*
X134702524Y-98703110D01*
X134518000Y-98703110D01*
X134518000Y-97180000D01*
X141959643Y-97180000D01*
X141903816Y-97225816D01*
M02*
