G04 #@! TF.GenerationSoftware,KiCad,Pcbnew,(5.1.10)-1*
G04 #@! TF.CreationDate,2021-10-26T19:42:33+01:00*
G04 #@! TF.ProjectId,drv120_solenoid_driver,64727631-3230-45f7-936f-6c656e6f6964,rev?*
G04 #@! TF.SameCoordinates,Original*
G04 #@! TF.FileFunction,Profile,NP*
%FSLAX46Y46*%
G04 Gerber Fmt 4.6, Leading zero omitted, Abs format (unit mm)*
G04 Created by KiCad (PCBNEW (5.1.10)-1) date 2021-10-26 19:42:33*
%MOMM*%
%LPD*%
G01*
G04 APERTURE LIST*
G04 #@! TA.AperFunction,Profile*
%ADD10C,0.050000*%
G04 #@! TD*
G04 APERTURE END LIST*
D10*
X163639500Y-104635300D02*
X163639500Y-105219500D01*
X162648900Y-103644700D02*
X142608300Y-103644700D01*
X141160500Y-105219500D02*
X141160500Y-104635300D01*
X141160500Y-117614700D02*
X141160500Y-117030500D01*
X163639500Y-117614700D02*
X163639500Y-117030500D01*
X165671500Y-114998500D02*
X166751000Y-114998500D01*
X166751000Y-107251500D02*
X165671500Y-107251500D01*
X139128500Y-107251500D02*
X138049000Y-107251500D01*
X139128500Y-114998500D02*
X138049000Y-114998500D01*
X139128500Y-114998500D02*
G75*
G02*
X141160500Y-117030500I0J-2032000D01*
G01*
X141160500Y-105219500D02*
G75*
G02*
X139128500Y-107251500I-2032000J0D01*
G01*
X165671500Y-107251500D02*
G75*
G02*
X163639500Y-105219500I0J2032000D01*
G01*
X163639500Y-117030500D02*
G75*
G02*
X165671500Y-114998500I2032000J0D01*
G01*
X166751000Y-107251500D02*
G75*
G02*
X166751000Y-114998500I0J-3873500D01*
G01*
X138049000Y-114998500D02*
G75*
G02*
X138049000Y-107251500I0J3873500D01*
G01*
X142151100Y-118605300D02*
X162191700Y-118605300D01*
X142151100Y-118605300D02*
G75*
G02*
X141160500Y-117614700I0J990600D01*
G01*
X163639500Y-117614700D02*
G75*
G02*
X162648900Y-118605300I-990600J0D01*
G01*
X162191700Y-118605300D02*
X162648900Y-118605300D01*
X142608300Y-103644700D02*
X142151100Y-103644700D01*
X141160500Y-104635300D02*
G75*
G02*
X142151100Y-103644700I990600J0D01*
G01*
X162648900Y-103644700D02*
G75*
G02*
X163639500Y-104635300I0J-990600D01*
G01*
M02*
