%FSLAX45Y45*%
G04 Gerber Fmt 4.5, Leading zero omitted, Abs format (unit mm)*
G04 Created by KiCad (PCBNEW (5.1.10)-1) date 2021-10-26 19:42:28*
%MOMM*%
%LPD*%
G01*
G04 APERTURE LIST*
%TA.AperFunction,Profile*%
%ADD10C,0.050000*%
%TD*%
%ADD11C,0.200000*%
%ADD12C,0.300000*%
G04 APERTURE END LIST*
D10*
X16363950Y-10463530D02*
X16363950Y-10521950D01*
X16264890Y-10364470D02*
X14260830Y-10364470D01*
X14116050Y-10521950D02*
X14116050Y-10463530D01*
X14116050Y-11761470D02*
X14116050Y-11703050D01*
X16363950Y-11761470D02*
X16363950Y-11703050D01*
X16567150Y-11499850D02*
X16675100Y-11499850D01*
X16675100Y-10725150D02*
X16567150Y-10725150D01*
X13912850Y-10725150D02*
X13804900Y-10725150D01*
X13912850Y-11499850D02*
X13804900Y-11499850D01*
X13912850Y-11499850D02*
G75*
G02*
X14116050Y-11703050I0J-203200D01*
G01*
X14116050Y-10521950D02*
G75*
G02*
X13912850Y-10725150I-203200J0D01*
G01*
X16567150Y-10725150D02*
G75*
G02*
X16363950Y-10521950I0J203200D01*
G01*
X16363950Y-11703050D02*
G75*
G02*
X16567150Y-11499850I203200J0D01*
G01*
X16675100Y-10725150D02*
G75*
G02*
X16675100Y-11499850I0J-387350D01*
G01*
X13804900Y-11499850D02*
G75*
G02*
X13804900Y-10725150I0J387350D01*
G01*
X14215110Y-11860530D02*
X16219170Y-11860530D01*
X14215110Y-11860530D02*
G75*
G02*
X14116050Y-11761470I0J99060D01*
G01*
X16363950Y-11761470D02*
G75*
G02*
X16264890Y-11860530I-99060J0D01*
G01*
X16219170Y-11860530D02*
X16264890Y-11860530D01*
X14260830Y-10364470D02*
X14215110Y-10364470D01*
X14116050Y-10463530D02*
G75*
G02*
X14215110Y-10364470I99060J0D01*
G01*
X16264890Y-10364470D02*
G75*
G02*
X16363950Y-10463530I0J-99060D01*
G01*
D11*
X13644900Y-10952500D02*
X13964900Y-11272500D01*
X13964900Y-10952500D02*
X13644900Y-11272500D01*
X16515100Y-10952500D02*
X16835100Y-11272500D01*
X16835100Y-10952500D02*
X16515100Y-11272500D01*
D12*
X13701478Y-12328744D02*
X13701478Y-12028744D01*
X13772907Y-12028744D01*
X13815764Y-12043030D01*
X13844336Y-12071601D01*
X13858621Y-12100173D01*
X13872907Y-12157316D01*
X13872907Y-12200173D01*
X13858621Y-12257316D01*
X13844336Y-12285887D01*
X13815764Y-12314459D01*
X13772907Y-12328744D01*
X13701478Y-12328744D01*
X14001478Y-12328744D02*
X14001478Y-12128744D01*
X14001478Y-12185887D02*
X14015764Y-12157316D01*
X14030050Y-12143030D01*
X14058621Y-12128744D01*
X14087193Y-12128744D01*
X14187193Y-12328744D02*
X14187193Y-12128744D01*
X14187193Y-12028744D02*
X14172907Y-12043030D01*
X14187193Y-12057316D01*
X14201478Y-12043030D01*
X14187193Y-12028744D01*
X14187193Y-12057316D01*
X14372907Y-12328744D02*
X14344336Y-12314459D01*
X14330050Y-12285887D01*
X14330050Y-12028744D01*
X14530050Y-12328744D02*
X14501478Y-12314459D01*
X14487193Y-12285887D01*
X14487193Y-12028744D01*
X14872907Y-12328744D02*
X14872907Y-12028744D01*
X14972907Y-12243030D01*
X15072907Y-12028744D01*
X15072907Y-12328744D01*
X15344336Y-12328744D02*
X15344336Y-12171601D01*
X15330050Y-12143030D01*
X15301478Y-12128744D01*
X15244336Y-12128744D01*
X15215764Y-12143030D01*
X15344336Y-12314459D02*
X15315764Y-12328744D01*
X15244336Y-12328744D01*
X15215764Y-12314459D01*
X15201478Y-12285887D01*
X15201478Y-12257316D01*
X15215764Y-12228744D01*
X15244336Y-12214459D01*
X15315764Y-12214459D01*
X15344336Y-12200173D01*
X15487193Y-12128744D02*
X15487193Y-12428744D01*
X15487193Y-12143030D02*
X15515764Y-12128744D01*
X15572907Y-12128744D01*
X15601478Y-12143030D01*
X15615764Y-12157316D01*
X15630050Y-12185887D01*
X15630050Y-12271601D01*
X15615764Y-12300173D01*
X15601478Y-12314459D01*
X15572907Y-12328744D01*
X15515764Y-12328744D01*
X15487193Y-12314459D01*
X15758621Y-12300173D02*
X15772907Y-12314459D01*
X15758621Y-12328744D01*
X15744336Y-12314459D01*
X15758621Y-12300173D01*
X15758621Y-12328744D01*
X15758621Y-12143030D02*
X15772907Y-12157316D01*
X15758621Y-12171601D01*
X15744336Y-12157316D01*
X15758621Y-12143030D01*
X15758621Y-12171601D01*
X13095050Y-12663030D02*
X13415050Y-12983030D01*
X13415050Y-12663030D02*
X13095050Y-12983030D01*
X13672907Y-12658744D02*
X13858621Y-12658744D01*
X13758621Y-12773030D01*
X13801478Y-12773030D01*
X13830050Y-12787316D01*
X13844336Y-12801601D01*
X13858621Y-12830173D01*
X13858621Y-12901601D01*
X13844336Y-12930173D01*
X13830050Y-12944459D01*
X13801478Y-12958744D01*
X13715764Y-12958744D01*
X13687193Y-12944459D01*
X13672907Y-12930173D01*
X13987193Y-12930173D02*
X14001478Y-12944459D01*
X13987193Y-12958744D01*
X13972907Y-12944459D01*
X13987193Y-12930173D01*
X13987193Y-12958744D01*
X14115764Y-12687316D02*
X14130050Y-12673030D01*
X14158621Y-12658744D01*
X14230050Y-12658744D01*
X14258621Y-12673030D01*
X14272907Y-12687316D01*
X14287193Y-12715887D01*
X14287193Y-12744459D01*
X14272907Y-12787316D01*
X14101478Y-12958744D01*
X14287193Y-12958744D01*
X14472907Y-12658744D02*
X14501478Y-12658744D01*
X14530050Y-12673030D01*
X14544336Y-12687316D01*
X14558621Y-12715887D01*
X14572907Y-12773030D01*
X14572907Y-12844459D01*
X14558621Y-12901601D01*
X14544336Y-12930173D01*
X14530050Y-12944459D01*
X14501478Y-12958744D01*
X14472907Y-12958744D01*
X14444336Y-12944459D01*
X14430050Y-12930173D01*
X14415764Y-12901601D01*
X14401478Y-12844459D01*
X14401478Y-12773030D01*
X14415764Y-12715887D01*
X14430050Y-12687316D01*
X14444336Y-12673030D01*
X14472907Y-12658744D01*
X14758621Y-12658744D02*
X14787193Y-12658744D01*
X14815764Y-12673030D01*
X14830050Y-12687316D01*
X14844336Y-12715887D01*
X14858621Y-12773030D01*
X14858621Y-12844459D01*
X14844336Y-12901601D01*
X14830050Y-12930173D01*
X14815764Y-12944459D01*
X14787193Y-12958744D01*
X14758621Y-12958744D01*
X14730050Y-12944459D01*
X14715764Y-12930173D01*
X14701478Y-12901601D01*
X14687193Y-12844459D01*
X14687193Y-12773030D01*
X14701478Y-12715887D01*
X14715764Y-12687316D01*
X14730050Y-12673030D01*
X14758621Y-12658744D01*
X14987193Y-12958744D02*
X14987193Y-12758744D01*
X14987193Y-12787316D02*
X15001478Y-12773030D01*
X15030050Y-12758744D01*
X15072907Y-12758744D01*
X15101478Y-12773030D01*
X15115764Y-12801601D01*
X15115764Y-12958744D01*
X15115764Y-12801601D02*
X15130050Y-12773030D01*
X15158621Y-12758744D01*
X15201478Y-12758744D01*
X15230050Y-12773030D01*
X15244336Y-12801601D01*
X15244336Y-12958744D01*
X15387193Y-12958744D02*
X15387193Y-12758744D01*
X15387193Y-12787316D02*
X15401478Y-12773030D01*
X15430050Y-12758744D01*
X15472907Y-12758744D01*
X15501478Y-12773030D01*
X15515764Y-12801601D01*
X15515764Y-12958744D01*
X15515764Y-12801601D02*
X15530050Y-12773030D01*
X15558621Y-12758744D01*
X15601478Y-12758744D01*
X15630050Y-12773030D01*
X15644336Y-12801601D01*
X15644336Y-12958744D01*
X16230050Y-12644459D02*
X15972907Y-13030173D01*
X16615764Y-12658744D02*
X16644336Y-12658744D01*
X16672907Y-12673030D01*
X16687193Y-12687316D01*
X16701478Y-12715887D01*
X16715764Y-12773030D01*
X16715764Y-12844459D01*
X16701478Y-12901601D01*
X16687193Y-12930173D01*
X16672907Y-12944459D01*
X16644336Y-12958744D01*
X16615764Y-12958744D01*
X16587193Y-12944459D01*
X16572907Y-12930173D01*
X16558621Y-12901601D01*
X16544336Y-12844459D01*
X16544336Y-12773030D01*
X16558621Y-12715887D01*
X16572907Y-12687316D01*
X16587193Y-12673030D01*
X16615764Y-12658744D01*
X16844336Y-12930173D02*
X16858621Y-12944459D01*
X16844336Y-12958744D01*
X16830050Y-12944459D01*
X16844336Y-12930173D01*
X16844336Y-12958744D01*
X17144336Y-12958744D02*
X16972907Y-12958744D01*
X17058621Y-12958744D02*
X17058621Y-12658744D01*
X17030050Y-12701601D01*
X17001478Y-12730173D01*
X16972907Y-12744459D01*
X17258621Y-12687316D02*
X17272907Y-12673030D01*
X17301478Y-12658744D01*
X17372907Y-12658744D01*
X17401478Y-12673030D01*
X17415764Y-12687316D01*
X17430050Y-12715887D01*
X17430050Y-12744459D01*
X17415764Y-12787316D01*
X17244336Y-12958744D01*
X17430050Y-12958744D01*
X17687193Y-12658744D02*
X17630050Y-12658744D01*
X17601478Y-12673030D01*
X17587193Y-12687316D01*
X17558621Y-12730173D01*
X17544336Y-12787316D01*
X17544336Y-12901601D01*
X17558621Y-12930173D01*
X17572907Y-12944459D01*
X17601478Y-12958744D01*
X17658621Y-12958744D01*
X17687193Y-12944459D01*
X17701478Y-12930173D01*
X17715764Y-12901601D01*
X17715764Y-12830173D01*
X17701478Y-12801601D01*
X17687193Y-12787316D01*
X17658621Y-12773030D01*
X17601478Y-12773030D01*
X17572907Y-12787316D01*
X17558621Y-12801601D01*
X17544336Y-12830173D01*
X17901478Y-12658744D02*
X17930050Y-12658744D01*
X17958621Y-12673030D01*
X17972907Y-12687316D01*
X17987193Y-12715887D01*
X18001478Y-12773030D01*
X18001478Y-12844459D01*
X17987193Y-12901601D01*
X17972907Y-12930173D01*
X17958621Y-12944459D01*
X17930050Y-12958744D01*
X17901478Y-12958744D01*
X17872907Y-12944459D01*
X17858621Y-12930173D01*
X17844336Y-12901601D01*
X17830050Y-12844459D01*
X17830050Y-12773030D01*
X17844336Y-12715887D01*
X17858621Y-12687316D01*
X17872907Y-12673030D01*
X17901478Y-12658744D01*
X18115764Y-12658744D02*
X18115764Y-12715887D01*
X18230050Y-12658744D02*
X18230050Y-12715887D01*
X18672907Y-13073030D02*
X18658621Y-13058744D01*
X18630050Y-13015887D01*
X18615764Y-12987316D01*
X18601478Y-12944459D01*
X18587193Y-12873030D01*
X18587193Y-12815887D01*
X18601478Y-12744459D01*
X18615764Y-12701601D01*
X18630050Y-12673030D01*
X18658621Y-12630173D01*
X18672907Y-12615887D01*
X18772907Y-12687316D02*
X18787193Y-12673030D01*
X18815764Y-12658744D01*
X18887193Y-12658744D01*
X18915764Y-12673030D01*
X18930050Y-12687316D01*
X18944336Y-12715887D01*
X18944336Y-12744459D01*
X18930050Y-12787316D01*
X18758621Y-12958744D01*
X18944336Y-12958744D01*
X19301478Y-12958744D02*
X19301478Y-12658744D01*
X19430050Y-12958744D02*
X19430050Y-12801601D01*
X19415764Y-12773030D01*
X19387193Y-12758744D01*
X19344336Y-12758744D01*
X19315764Y-12773030D01*
X19301478Y-12787316D01*
X19615764Y-12958744D02*
X19587193Y-12944459D01*
X19572907Y-12930173D01*
X19558621Y-12901601D01*
X19558621Y-12815887D01*
X19572907Y-12787316D01*
X19587193Y-12773030D01*
X19615764Y-12758744D01*
X19658621Y-12758744D01*
X19687193Y-12773030D01*
X19701478Y-12787316D01*
X19715764Y-12815887D01*
X19715764Y-12901601D01*
X19701478Y-12930173D01*
X19687193Y-12944459D01*
X19658621Y-12958744D01*
X19615764Y-12958744D01*
X19887193Y-12958744D02*
X19858621Y-12944459D01*
X19844336Y-12915887D01*
X19844336Y-12658744D01*
X20115764Y-12944459D02*
X20087193Y-12958744D01*
X20030050Y-12958744D01*
X20001478Y-12944459D01*
X19987193Y-12915887D01*
X19987193Y-12801601D01*
X20001478Y-12773030D01*
X20030050Y-12758744D01*
X20087193Y-12758744D01*
X20115764Y-12773030D01*
X20130050Y-12801601D01*
X20130050Y-12830173D01*
X19987193Y-12858744D01*
X20244336Y-12944459D02*
X20272907Y-12958744D01*
X20330050Y-12958744D01*
X20358621Y-12944459D01*
X20372907Y-12915887D01*
X20372907Y-12901601D01*
X20358621Y-12873030D01*
X20330050Y-12858744D01*
X20287193Y-12858744D01*
X20258621Y-12844459D01*
X20244336Y-12815887D01*
X20244336Y-12801601D01*
X20258621Y-12773030D01*
X20287193Y-12758744D01*
X20330050Y-12758744D01*
X20358621Y-12773030D01*
X20472907Y-13073030D02*
X20487193Y-13058744D01*
X20515764Y-13015887D01*
X20530050Y-12987316D01*
X20544336Y-12944459D01*
X20558621Y-12873030D01*
X20558621Y-12815887D01*
X20544336Y-12744459D01*
X20530050Y-12701601D01*
X20515764Y-12673030D01*
X20487193Y-12630173D01*
X20472907Y-12615887D01*
X21015764Y-13073030D02*
X21001478Y-13058744D01*
X20972907Y-13015887D01*
X20958621Y-12987316D01*
X20944336Y-12944459D01*
X20930050Y-12873030D01*
X20930050Y-12815887D01*
X20944336Y-12744459D01*
X20958621Y-12701601D01*
X20972907Y-12673030D01*
X21001478Y-12630173D01*
X21015764Y-12615887D01*
X21130050Y-12758744D02*
X21130050Y-12958744D01*
X21130050Y-12787316D02*
X21144336Y-12773030D01*
X21172907Y-12758744D01*
X21215764Y-12758744D01*
X21244336Y-12773030D01*
X21258621Y-12801601D01*
X21258621Y-12958744D01*
X21444336Y-12958744D02*
X21415764Y-12944459D01*
X21401478Y-12930173D01*
X21387193Y-12901601D01*
X21387193Y-12815887D01*
X21401478Y-12787316D01*
X21415764Y-12773030D01*
X21444336Y-12758744D01*
X21487193Y-12758744D01*
X21515764Y-12773030D01*
X21530050Y-12787316D01*
X21544336Y-12815887D01*
X21544336Y-12901601D01*
X21530050Y-12930173D01*
X21515764Y-12944459D01*
X21487193Y-12958744D01*
X21444336Y-12958744D01*
X21630050Y-12758744D02*
X21744336Y-12758744D01*
X21672907Y-12658744D02*
X21672907Y-12915887D01*
X21687193Y-12944459D01*
X21715764Y-12958744D01*
X21744336Y-12958744D01*
X22072907Y-12758744D02*
X22072907Y-13058744D01*
X22072907Y-12773030D02*
X22101478Y-12758744D01*
X22158621Y-12758744D01*
X22187193Y-12773030D01*
X22201478Y-12787316D01*
X22215764Y-12815887D01*
X22215764Y-12901601D01*
X22201478Y-12930173D01*
X22187193Y-12944459D01*
X22158621Y-12958744D01*
X22101478Y-12958744D01*
X22072907Y-12944459D01*
X22387193Y-12958744D02*
X22358621Y-12944459D01*
X22344336Y-12915887D01*
X22344336Y-12658744D01*
X22630050Y-12958744D02*
X22630050Y-12801601D01*
X22615764Y-12773030D01*
X22587193Y-12758744D01*
X22530050Y-12758744D01*
X22501478Y-12773030D01*
X22630050Y-12944459D02*
X22601478Y-12958744D01*
X22530050Y-12958744D01*
X22501478Y-12944459D01*
X22487193Y-12915887D01*
X22487193Y-12887316D01*
X22501478Y-12858744D01*
X22530050Y-12844459D01*
X22601478Y-12844459D01*
X22630050Y-12830173D01*
X22730050Y-12758744D02*
X22844336Y-12758744D01*
X22772907Y-12658744D02*
X22772907Y-12915887D01*
X22787193Y-12944459D01*
X22815764Y-12958744D01*
X22844336Y-12958744D01*
X23058621Y-12944459D02*
X23030050Y-12958744D01*
X22972907Y-12958744D01*
X22944336Y-12944459D01*
X22930050Y-12915887D01*
X22930050Y-12801601D01*
X22944336Y-12773030D01*
X22972907Y-12758744D01*
X23030050Y-12758744D01*
X23058621Y-12773030D01*
X23072907Y-12801601D01*
X23072907Y-12830173D01*
X22930050Y-12858744D01*
X23330050Y-12958744D02*
X23330050Y-12658744D01*
X23330050Y-12944459D02*
X23301478Y-12958744D01*
X23244336Y-12958744D01*
X23215764Y-12944459D01*
X23201478Y-12930173D01*
X23187193Y-12901601D01*
X23187193Y-12815887D01*
X23201478Y-12787316D01*
X23215764Y-12773030D01*
X23244336Y-12758744D01*
X23301478Y-12758744D01*
X23330050Y-12773030D01*
X23444336Y-13073030D02*
X23458621Y-13058744D01*
X23487193Y-13015887D01*
X23501478Y-12987316D01*
X23515764Y-12944459D01*
X23530050Y-12873030D01*
X23530050Y-12815887D01*
X23515764Y-12744459D01*
X23501478Y-12701601D01*
X23487193Y-12673030D01*
X23458621Y-12630173D01*
X23444336Y-12615887D01*
M02*
