G04 #@! TF.GenerationSoftware,KiCad,Pcbnew,(5.1.10)-1*
G04 #@! TF.CreationDate,2021-10-26T19:42:31+01:00*
G04 #@! TF.ProjectId,drv120_solenoid_driver,64727631-3230-45f7-936f-6c656e6f6964,rev?*
G04 #@! TF.SameCoordinates,Original*
G04 #@! TF.FileFunction,Copper,L1,Top*
G04 #@! TF.FilePolarity,Positive*
%FSLAX46Y46*%
G04 Gerber Fmt 4.6, Leading zero omitted, Abs format (unit mm)*
G04 Created by KiCad (PCBNEW (5.1.10)-1) date 2021-10-26 19:42:31*
%MOMM*%
%LPD*%
G01*
G04 APERTURE LIST*
G04 #@! TA.AperFunction,ComponentPad*
%ADD10O,1.750000X1.200000*%
G04 #@! TD*
G04 #@! TA.AperFunction,SMDPad,CuDef*
%ADD11R,1.800000X3.500000*%
G04 #@! TD*
G04 #@! TA.AperFunction,Conductor*
%ADD12C,0.250000*%
G04 #@! TD*
G04 #@! TA.AperFunction,Conductor*
%ADD13C,0.400000*%
G04 #@! TD*
G04 #@! TA.AperFunction,Conductor*
%ADD14C,0.254000*%
G04 #@! TD*
G04 #@! TA.AperFunction,Conductor*
%ADD15C,0.100000*%
G04 #@! TD*
G04 APERTURE END LIST*
G04 #@! TA.AperFunction,ComponentPad*
G36*
G01*
X160537999Y-105381500D02*
X161788001Y-105381500D01*
G75*
G02*
X162038000Y-105631499I0J-249999D01*
G01*
X162038000Y-106331501D01*
G75*
G02*
X161788001Y-106581500I-249999J0D01*
G01*
X160537999Y-106581500D01*
G75*
G02*
X160288000Y-106331501I0J249999D01*
G01*
X160288000Y-105631499D01*
G75*
G02*
X160537999Y-105381500I249999J0D01*
G01*
G37*
G04 #@! TD.AperFunction*
D10*
X161163000Y-107981500D03*
G04 #@! TA.AperFunction,ComponentPad*
G36*
G01*
X160537999Y-111731500D02*
X161788001Y-111731500D01*
G75*
G02*
X162038000Y-111981499I0J-249999D01*
G01*
X162038000Y-112681501D01*
G75*
G02*
X161788001Y-112931500I-249999J0D01*
G01*
X160537999Y-112931500D01*
G75*
G02*
X160288000Y-112681501I0J249999D01*
G01*
X160288000Y-111981499D01*
G75*
G02*
X160537999Y-111731500I249999J0D01*
G01*
G37*
G04 #@! TD.AperFunction*
X161163000Y-114331500D03*
X161163000Y-116331500D03*
G04 #@! TA.AperFunction,SMDPad,CuDef*
G36*
G01*
X151779000Y-107095000D02*
X151579000Y-107095000D01*
G75*
G02*
X151479000Y-106995000I0J100000D01*
G01*
X151479000Y-105720000D01*
G75*
G02*
X151579000Y-105620000I100000J0D01*
G01*
X151779000Y-105620000D01*
G75*
G02*
X151879000Y-105720000I0J-100000D01*
G01*
X151879000Y-106995000D01*
G75*
G02*
X151779000Y-107095000I-100000J0D01*
G01*
G37*
G04 #@! TD.AperFunction*
G04 #@! TA.AperFunction,SMDPad,CuDef*
G36*
G01*
X152429000Y-107095000D02*
X152229000Y-107095000D01*
G75*
G02*
X152129000Y-106995000I0J100000D01*
G01*
X152129000Y-105720000D01*
G75*
G02*
X152229000Y-105620000I100000J0D01*
G01*
X152429000Y-105620000D01*
G75*
G02*
X152529000Y-105720000I0J-100000D01*
G01*
X152529000Y-106995000D01*
G75*
G02*
X152429000Y-107095000I-100000J0D01*
G01*
G37*
G04 #@! TD.AperFunction*
G04 #@! TA.AperFunction,SMDPad,CuDef*
G36*
G01*
X153079000Y-107095000D02*
X152879000Y-107095000D01*
G75*
G02*
X152779000Y-106995000I0J100000D01*
G01*
X152779000Y-105720000D01*
G75*
G02*
X152879000Y-105620000I100000J0D01*
G01*
X153079000Y-105620000D01*
G75*
G02*
X153179000Y-105720000I0J-100000D01*
G01*
X153179000Y-106995000D01*
G75*
G02*
X153079000Y-107095000I-100000J0D01*
G01*
G37*
G04 #@! TD.AperFunction*
G04 #@! TA.AperFunction,SMDPad,CuDef*
G36*
G01*
X153729000Y-107095000D02*
X153529000Y-107095000D01*
G75*
G02*
X153429000Y-106995000I0J100000D01*
G01*
X153429000Y-105720000D01*
G75*
G02*
X153529000Y-105620000I100000J0D01*
G01*
X153729000Y-105620000D01*
G75*
G02*
X153829000Y-105720000I0J-100000D01*
G01*
X153829000Y-106995000D01*
G75*
G02*
X153729000Y-107095000I-100000J0D01*
G01*
G37*
G04 #@! TD.AperFunction*
G04 #@! TA.AperFunction,SMDPad,CuDef*
G36*
G01*
X153729000Y-112820000D02*
X153529000Y-112820000D01*
G75*
G02*
X153429000Y-112720000I0J100000D01*
G01*
X153429000Y-111445000D01*
G75*
G02*
X153529000Y-111345000I100000J0D01*
G01*
X153729000Y-111345000D01*
G75*
G02*
X153829000Y-111445000I0J-100000D01*
G01*
X153829000Y-112720000D01*
G75*
G02*
X153729000Y-112820000I-100000J0D01*
G01*
G37*
G04 #@! TD.AperFunction*
G04 #@! TA.AperFunction,SMDPad,CuDef*
G36*
G01*
X153079000Y-112820000D02*
X152879000Y-112820000D01*
G75*
G02*
X152779000Y-112720000I0J100000D01*
G01*
X152779000Y-111445000D01*
G75*
G02*
X152879000Y-111345000I100000J0D01*
G01*
X153079000Y-111345000D01*
G75*
G02*
X153179000Y-111445000I0J-100000D01*
G01*
X153179000Y-112720000D01*
G75*
G02*
X153079000Y-112820000I-100000J0D01*
G01*
G37*
G04 #@! TD.AperFunction*
G04 #@! TA.AperFunction,SMDPad,CuDef*
G36*
G01*
X152429000Y-112820000D02*
X152229000Y-112820000D01*
G75*
G02*
X152129000Y-112720000I0J100000D01*
G01*
X152129000Y-111445000D01*
G75*
G02*
X152229000Y-111345000I100000J0D01*
G01*
X152429000Y-111345000D01*
G75*
G02*
X152529000Y-111445000I0J-100000D01*
G01*
X152529000Y-112720000D01*
G75*
G02*
X152429000Y-112820000I-100000J0D01*
G01*
G37*
G04 #@! TD.AperFunction*
G04 #@! TA.AperFunction,SMDPad,CuDef*
G36*
G01*
X151779000Y-112820000D02*
X151579000Y-112820000D01*
G75*
G02*
X151479000Y-112720000I0J100000D01*
G01*
X151479000Y-111445000D01*
G75*
G02*
X151579000Y-111345000I100000J0D01*
G01*
X151779000Y-111345000D01*
G75*
G02*
X151879000Y-111445000I0J-100000D01*
G01*
X151879000Y-112720000D01*
G75*
G02*
X151779000Y-112820000I-100000J0D01*
G01*
G37*
G04 #@! TD.AperFunction*
D11*
X156337000Y-111743500D03*
X156337000Y-106743500D03*
G04 #@! TA.AperFunction,SMDPad,CuDef*
G36*
G01*
X150500000Y-108797000D02*
X150500000Y-109897000D01*
G75*
G02*
X150250000Y-110147000I-250000J0D01*
G01*
X147250000Y-110147000D01*
G75*
G02*
X147000000Y-109897000I0J250000D01*
G01*
X147000000Y-108797000D01*
G75*
G02*
X147250000Y-108547000I250000J0D01*
G01*
X150250000Y-108547000D01*
G75*
G02*
X150500000Y-108797000I0J-250000D01*
G01*
G37*
G04 #@! TD.AperFunction*
G04 #@! TA.AperFunction,SMDPad,CuDef*
G36*
G01*
X145100000Y-108797000D02*
X145100000Y-109897000D01*
G75*
G02*
X144850000Y-110147000I-250000J0D01*
G01*
X141850000Y-110147000D01*
G75*
G02*
X141600000Y-109897000I0J250000D01*
G01*
X141600000Y-108797000D01*
G75*
G02*
X141850000Y-108547000I250000J0D01*
G01*
X144850000Y-108547000D01*
G75*
G02*
X145100000Y-108797000I0J-250000D01*
G01*
G37*
G04 #@! TD.AperFunction*
G04 #@! TA.AperFunction,SMDPad,CuDef*
G36*
G01*
X146869998Y-113978000D02*
X147770002Y-113978000D01*
G75*
G02*
X148020000Y-114227998I0J-249998D01*
G01*
X148020000Y-114753002D01*
G75*
G02*
X147770002Y-115003000I-249998J0D01*
G01*
X146869998Y-115003000D01*
G75*
G02*
X146620000Y-114753002I0J249998D01*
G01*
X146620000Y-114227998D01*
G75*
G02*
X146869998Y-113978000I249998J0D01*
G01*
G37*
G04 #@! TD.AperFunction*
G04 #@! TA.AperFunction,SMDPad,CuDef*
G36*
G01*
X146869998Y-115803000D02*
X147770002Y-115803000D01*
G75*
G02*
X148020000Y-116052998I0J-249998D01*
G01*
X148020000Y-116578002D01*
G75*
G02*
X147770002Y-116828000I-249998J0D01*
G01*
X146869998Y-116828000D01*
G75*
G02*
X146620000Y-116578002I0J249998D01*
G01*
X146620000Y-116052998D01*
G75*
G02*
X146869998Y-115803000I249998J0D01*
G01*
G37*
G04 #@! TD.AperFunction*
G04 #@! TA.AperFunction,SMDPad,CuDef*
G36*
G01*
X149409998Y-115803000D02*
X150310002Y-115803000D01*
G75*
G02*
X150560000Y-116052998I0J-249998D01*
G01*
X150560000Y-116578002D01*
G75*
G02*
X150310002Y-116828000I-249998J0D01*
G01*
X149409998Y-116828000D01*
G75*
G02*
X149160000Y-116578002I0J249998D01*
G01*
X149160000Y-116052998D01*
G75*
G02*
X149409998Y-115803000I249998J0D01*
G01*
G37*
G04 #@! TD.AperFunction*
G04 #@! TA.AperFunction,SMDPad,CuDef*
G36*
G01*
X149409998Y-113978000D02*
X150310002Y-113978000D01*
G75*
G02*
X150560000Y-114227998I0J-249998D01*
G01*
X150560000Y-114753002D01*
G75*
G02*
X150310002Y-115003000I-249998J0D01*
G01*
X149409998Y-115003000D01*
G75*
G02*
X149160000Y-114753002I0J249998D01*
G01*
X149160000Y-114227998D01*
G75*
G02*
X149409998Y-113978000I249998J0D01*
G01*
G37*
G04 #@! TD.AperFunction*
G04 #@! TA.AperFunction,SMDPad,CuDef*
G36*
G01*
X144305000Y-113712500D02*
X145255000Y-113712500D01*
G75*
G02*
X145505000Y-113962500I0J-250000D01*
G01*
X145505000Y-114637500D01*
G75*
G02*
X145255000Y-114887500I-250000J0D01*
G01*
X144305000Y-114887500D01*
G75*
G02*
X144055000Y-114637500I0J250000D01*
G01*
X144055000Y-113962500D01*
G75*
G02*
X144305000Y-113712500I250000J0D01*
G01*
G37*
G04 #@! TD.AperFunction*
G04 #@! TA.AperFunction,SMDPad,CuDef*
G36*
G01*
X144305000Y-115787500D02*
X145255000Y-115787500D01*
G75*
G02*
X145505000Y-116037500I0J-250000D01*
G01*
X145505000Y-116712500D01*
G75*
G02*
X145255000Y-116962500I-250000J0D01*
G01*
X144305000Y-116962500D01*
G75*
G02*
X144055000Y-116712500I0J250000D01*
G01*
X144055000Y-116037500D01*
G75*
G02*
X144305000Y-115787500I250000J0D01*
G01*
G37*
G04 #@! TD.AperFunction*
D12*
X146997500Y-112082500D02*
X144780000Y-114300000D01*
X146997500Y-112082500D02*
X151679000Y-112082500D01*
X150003500Y-116459000D02*
X149860000Y-116315500D01*
X149876000Y-116331500D02*
X149860000Y-116315500D01*
X161163000Y-116331500D02*
X149876000Y-116331500D01*
X149860000Y-116315500D02*
X147320000Y-116315500D01*
X144839500Y-116315500D02*
X144780000Y-116375000D01*
X147320000Y-116315500D02*
X144839500Y-116315500D01*
X153629000Y-106357500D02*
X153629000Y-104797500D01*
X153629000Y-104797500D02*
X153606500Y-104775000D01*
X153606500Y-104775000D02*
X145224500Y-104775000D01*
X143350000Y-106649500D02*
X143350000Y-109347000D01*
X145224500Y-104775000D02*
X143350000Y-106649500D01*
X143350000Y-116194500D02*
X143530500Y-116375000D01*
X143350000Y-109347000D02*
X143350000Y-116194500D01*
X144780000Y-116375000D02*
X143530500Y-116375000D01*
D13*
X153629000Y-111287876D02*
X153629000Y-112082500D01*
X151688124Y-109347000D02*
X153629000Y-111287876D01*
X148750000Y-109347000D02*
X151688124Y-109347000D01*
X155998000Y-112082500D02*
X156337000Y-111743500D01*
X153629000Y-112082500D02*
X155998000Y-112082500D01*
X156337000Y-111743500D02*
X156337000Y-111760000D01*
X158908500Y-114331500D02*
X161163000Y-114331500D01*
X156337000Y-111760000D02*
X158908500Y-114331500D01*
X161163000Y-114331500D02*
X161766500Y-114331500D01*
X162438010Y-107256510D02*
X161163000Y-105981500D01*
X162438010Y-113659990D02*
X162438010Y-107256510D01*
X161766500Y-114331500D02*
X162438010Y-113659990D01*
D12*
X157067000Y-106013500D02*
X156337000Y-106743500D01*
D13*
X157575000Y-107981500D02*
X156337000Y-106743500D01*
X161163000Y-107981500D02*
X157575000Y-107981500D01*
X152329000Y-107152124D02*
X153253876Y-108077000D01*
X152329000Y-106357500D02*
X152329000Y-107152124D01*
X155003500Y-108077000D02*
X156337000Y-106743500D01*
X153253876Y-108077000D02*
X155003500Y-108077000D01*
D12*
X154102899Y-109668499D02*
X157928499Y-109668499D01*
X151679000Y-107244600D02*
X154102899Y-109668499D01*
X151679000Y-106357500D02*
X151679000Y-107244600D01*
X160591500Y-112331500D02*
X161163000Y-112331500D01*
X157928499Y-109668499D02*
X160591500Y-112331500D01*
X148157510Y-113652990D02*
X147320000Y-114490500D01*
X150482990Y-113652990D02*
X148157510Y-113652990D01*
X152329000Y-112820000D02*
X151496010Y-113652990D01*
X151496010Y-113652990D02*
X150482990Y-113652990D01*
X152329000Y-112082500D02*
X152329000Y-112820000D01*
X152979000Y-112820000D02*
X152979000Y-112082500D01*
X151308500Y-114490500D02*
X152979000Y-112820000D01*
X149860000Y-114490500D02*
X151308500Y-114490500D01*
D14*
X162712496Y-104314101D02*
X162773676Y-104332572D01*
X162830105Y-104362575D01*
X162879618Y-104402958D01*
X162920356Y-104452201D01*
X162950751Y-104508416D01*
X162969647Y-104569461D01*
X162979500Y-104663199D01*
X162979500Y-105251919D01*
X162982354Y-105280897D01*
X162982266Y-105293503D01*
X162983165Y-105302674D01*
X163024618Y-105697077D01*
X163036648Y-105755683D01*
X163047855Y-105814435D01*
X163050519Y-105823257D01*
X163167790Y-106202099D01*
X163190974Y-106257250D01*
X163213380Y-106312708D01*
X163217706Y-106320845D01*
X163406328Y-106669693D01*
X163439783Y-106719292D01*
X163472532Y-106769338D01*
X163478355Y-106776477D01*
X163478358Y-106776481D01*
X163478362Y-106776485D01*
X163731144Y-107082047D01*
X163773561Y-107124169D01*
X163815443Y-107166938D01*
X163822544Y-107172811D01*
X164129869Y-107423460D01*
X164179678Y-107456552D01*
X164229050Y-107490359D01*
X164237156Y-107494741D01*
X164587313Y-107680923D01*
X164642605Y-107703712D01*
X164697601Y-107727284D01*
X164706405Y-107730009D01*
X165086056Y-107844632D01*
X165144750Y-107856254D01*
X165203247Y-107868688D01*
X165212411Y-107869651D01*
X165607096Y-107908350D01*
X165607098Y-107908350D01*
X165639081Y-107911500D01*
X166718721Y-107911500D01*
X167374556Y-107975805D01*
X167974365Y-108156898D01*
X168527569Y-108451042D01*
X169013112Y-108847041D01*
X169412489Y-109329805D01*
X169710489Y-109880944D01*
X169895766Y-110479476D01*
X169961257Y-111102584D01*
X169904471Y-111726559D01*
X169727571Y-112327614D01*
X169437295Y-112882860D01*
X169044695Y-113371155D01*
X168564734Y-113773891D01*
X168015686Y-114075732D01*
X167418466Y-114265182D01*
X166765885Y-114338380D01*
X166748676Y-114338500D01*
X165639081Y-114338500D01*
X165610103Y-114341354D01*
X165597497Y-114341266D01*
X165588326Y-114342166D01*
X165193922Y-114383618D01*
X165135329Y-114395645D01*
X165076565Y-114406855D01*
X165067743Y-114409519D01*
X164688901Y-114526790D01*
X164633750Y-114549974D01*
X164578292Y-114572380D01*
X164570155Y-114576706D01*
X164221307Y-114765328D01*
X164171708Y-114798783D01*
X164121662Y-114831532D01*
X164114521Y-114837356D01*
X163808953Y-115090144D01*
X163766815Y-115132577D01*
X163724062Y-115174443D01*
X163718194Y-115181538D01*
X163718189Y-115181543D01*
X163718185Y-115181548D01*
X163467541Y-115488869D01*
X163434459Y-115538662D01*
X163400641Y-115588051D01*
X163396259Y-115596157D01*
X163210077Y-115946313D01*
X163187276Y-116001633D01*
X163163716Y-116056601D01*
X163160991Y-116065405D01*
X163046368Y-116445056D01*
X163034749Y-116503736D01*
X163022312Y-116562246D01*
X163021349Y-116571411D01*
X162982650Y-116966095D01*
X162979500Y-116998081D01*
X162979500Y-117582421D01*
X162970099Y-117678299D01*
X162951627Y-117739478D01*
X162921627Y-117795901D01*
X162881241Y-117845419D01*
X162831998Y-117886157D01*
X162775784Y-117916551D01*
X162714740Y-117935447D01*
X162621001Y-117945300D01*
X142183379Y-117945300D01*
X142087501Y-117935899D01*
X142026322Y-117917427D01*
X141969899Y-117887427D01*
X141920381Y-117847041D01*
X141879643Y-117797798D01*
X141849249Y-117741584D01*
X141830353Y-117680540D01*
X141820500Y-117586801D01*
X141820500Y-116998081D01*
X141817646Y-116969103D01*
X141817692Y-116962500D01*
X143416928Y-116962500D01*
X143429188Y-117086982D01*
X143465498Y-117206680D01*
X143524463Y-117316994D01*
X143603815Y-117413685D01*
X143700506Y-117493037D01*
X143810820Y-117552002D01*
X143930518Y-117588312D01*
X144055000Y-117600572D01*
X144494250Y-117597500D01*
X144653000Y-117438750D01*
X144653000Y-116502000D01*
X144907000Y-116502000D01*
X144907000Y-117438750D01*
X145065750Y-117597500D01*
X145505000Y-117600572D01*
X145629482Y-117588312D01*
X145749180Y-117552002D01*
X145859494Y-117493037D01*
X145956185Y-117413685D01*
X146035537Y-117316994D01*
X146094502Y-117206680D01*
X146098499Y-117193504D01*
X146168815Y-117279185D01*
X146265506Y-117358537D01*
X146375820Y-117417502D01*
X146495518Y-117453812D01*
X146620000Y-117466072D01*
X147034250Y-117463000D01*
X147193000Y-117304250D01*
X147193000Y-116442500D01*
X147447000Y-116442500D01*
X147447000Y-117304250D01*
X147605750Y-117463000D01*
X148020000Y-117466072D01*
X148144482Y-117453812D01*
X148264180Y-117417502D01*
X148374494Y-117358537D01*
X148471185Y-117279185D01*
X148550537Y-117182494D01*
X148590000Y-117108665D01*
X148629463Y-117182494D01*
X148708815Y-117279185D01*
X148805506Y-117358537D01*
X148915820Y-117417502D01*
X149035518Y-117453812D01*
X149160000Y-117466072D01*
X149574250Y-117463000D01*
X149733000Y-117304250D01*
X149733000Y-116442500D01*
X149987000Y-116442500D01*
X149987000Y-117304250D01*
X150145750Y-117463000D01*
X150560000Y-117466072D01*
X150684482Y-117453812D01*
X150804180Y-117417502D01*
X150914494Y-117358537D01*
X151011185Y-117279185D01*
X151090537Y-117182494D01*
X151149502Y-117072180D01*
X151185812Y-116952482D01*
X151198072Y-116828000D01*
X151195649Y-116649109D01*
X159694538Y-116649109D01*
X159698409Y-116686782D01*
X159790579Y-116912033D01*
X159924922Y-117114974D01*
X160096275Y-117287807D01*
X160298054Y-117423890D01*
X160522504Y-117517993D01*
X160761000Y-117566500D01*
X161036000Y-117566500D01*
X161036000Y-116458500D01*
X161290000Y-116458500D01*
X161290000Y-117566500D01*
X161565000Y-117566500D01*
X161803496Y-117517993D01*
X162027946Y-117423890D01*
X162229725Y-117287807D01*
X162401078Y-117114974D01*
X162535421Y-116912033D01*
X162627591Y-116686782D01*
X162631462Y-116649109D01*
X162506731Y-116458500D01*
X161290000Y-116458500D01*
X161036000Y-116458500D01*
X159819269Y-116458500D01*
X159694538Y-116649109D01*
X151195649Y-116649109D01*
X151195000Y-116601250D01*
X151036250Y-116442500D01*
X149987000Y-116442500D01*
X149733000Y-116442500D01*
X148683750Y-116442500D01*
X148590000Y-116536250D01*
X148496250Y-116442500D01*
X147447000Y-116442500D01*
X147193000Y-116442500D01*
X146143750Y-116442500D01*
X146032750Y-116553500D01*
X145981250Y-116502000D01*
X144907000Y-116502000D01*
X144653000Y-116502000D01*
X143578750Y-116502000D01*
X143420000Y-116660750D01*
X143416928Y-116962500D01*
X141817692Y-116962500D01*
X141817734Y-116956497D01*
X141816834Y-116947326D01*
X141775382Y-116552922D01*
X141763355Y-116494329D01*
X141752145Y-116435565D01*
X141749481Y-116426743D01*
X141632210Y-116047901D01*
X141609026Y-115992750D01*
X141586620Y-115937292D01*
X141582294Y-115929155D01*
X141393672Y-115580307D01*
X141360217Y-115530708D01*
X141327468Y-115480662D01*
X141321644Y-115473521D01*
X141068856Y-115167953D01*
X141026423Y-115125815D01*
X140984557Y-115083062D01*
X140977462Y-115077194D01*
X140977457Y-115077189D01*
X140977452Y-115077185D01*
X140670131Y-114826541D01*
X140620338Y-114793459D01*
X140570949Y-114759641D01*
X140562843Y-114755259D01*
X140212687Y-114569077D01*
X140157367Y-114546276D01*
X140102399Y-114522716D01*
X140093599Y-114519992D01*
X140093593Y-114519990D01*
X139713944Y-114405368D01*
X139655264Y-114393749D01*
X139596754Y-114381312D01*
X139587589Y-114380349D01*
X139192905Y-114341650D01*
X139192902Y-114341650D01*
X139160919Y-114338500D01*
X138081279Y-114338500D01*
X137425443Y-114274195D01*
X136825636Y-114093102D01*
X136580010Y-113962500D01*
X143416928Y-113962500D01*
X143416928Y-114637500D01*
X143433992Y-114810754D01*
X143484528Y-114977350D01*
X143566595Y-115130886D01*
X143677038Y-115265462D01*
X143683594Y-115270842D01*
X143603815Y-115336315D01*
X143524463Y-115433006D01*
X143465498Y-115543320D01*
X143429188Y-115663018D01*
X143416928Y-115787500D01*
X143420000Y-116089250D01*
X143578750Y-116248000D01*
X144653000Y-116248000D01*
X144653000Y-116228000D01*
X144907000Y-116228000D01*
X144907000Y-116248000D01*
X145981250Y-116248000D01*
X146092250Y-116137000D01*
X146143750Y-116188500D01*
X147193000Y-116188500D01*
X147193000Y-116168500D01*
X147447000Y-116168500D01*
X147447000Y-116188500D01*
X148496250Y-116188500D01*
X148590000Y-116094750D01*
X148683750Y-116188500D01*
X149733000Y-116188500D01*
X149733000Y-116168500D01*
X149987000Y-116168500D01*
X149987000Y-116188500D01*
X151036250Y-116188500D01*
X151195000Y-116029750D01*
X151198072Y-115803000D01*
X151185812Y-115678518D01*
X151149502Y-115558820D01*
X151090537Y-115448506D01*
X151011185Y-115351815D01*
X150981724Y-115327637D01*
X151045030Y-115250500D01*
X151271178Y-115250500D01*
X151308500Y-115254176D01*
X151345822Y-115250500D01*
X151345833Y-115250500D01*
X151457486Y-115239503D01*
X151600747Y-115196046D01*
X151732776Y-115125474D01*
X151848501Y-115030501D01*
X151872304Y-115001497D01*
X153425886Y-113447916D01*
X153529000Y-113458072D01*
X153729000Y-113458072D01*
X153872991Y-113443890D01*
X154011448Y-113401890D01*
X154139051Y-113333684D01*
X154250896Y-113241896D01*
X154342684Y-113130051D01*
X154410890Y-113002448D01*
X154436658Y-112917500D01*
X154798928Y-112917500D01*
X154798928Y-113493500D01*
X154811188Y-113617982D01*
X154847498Y-113737680D01*
X154906463Y-113847994D01*
X154985815Y-113944685D01*
X155082506Y-114024037D01*
X155192820Y-114083002D01*
X155312518Y-114119312D01*
X155437000Y-114131572D01*
X157237000Y-114131572D01*
X157361482Y-114119312D01*
X157479610Y-114083478D01*
X158289059Y-114892927D01*
X158315209Y-114924791D01*
X158428924Y-115018114D01*
X158442354Y-115029136D01*
X158587413Y-115106672D01*
X158744811Y-115154418D01*
X158908499Y-115170540D01*
X158949518Y-115166500D01*
X159975618Y-115166500D01*
X160010498Y-115209002D01*
X160160348Y-115331981D01*
X160096275Y-115375193D01*
X159924922Y-115548026D01*
X159790579Y-115750967D01*
X159698409Y-115976218D01*
X159694538Y-116013891D01*
X159819269Y-116204500D01*
X161036000Y-116204500D01*
X161036000Y-116184500D01*
X161290000Y-116184500D01*
X161290000Y-116204500D01*
X162506731Y-116204500D01*
X162631462Y-116013891D01*
X162627591Y-115976218D01*
X162535421Y-115750967D01*
X162401078Y-115548026D01*
X162229725Y-115375193D01*
X162165652Y-115331981D01*
X162315502Y-115209002D01*
X162469833Y-115020949D01*
X162584511Y-114806401D01*
X162633299Y-114645569D01*
X162999443Y-114279426D01*
X163031301Y-114253281D01*
X163076461Y-114198254D01*
X163101444Y-114167811D01*
X163135646Y-114126136D01*
X163213182Y-113981077D01*
X163260928Y-113823679D01*
X163273010Y-113701009D01*
X163273010Y-113701008D01*
X163277050Y-113659990D01*
X163273010Y-113618972D01*
X163273010Y-110904872D01*
X164516000Y-110904872D01*
X164516000Y-111345128D01*
X164601890Y-111776925D01*
X164770369Y-112183669D01*
X165014962Y-112549729D01*
X165326271Y-112861038D01*
X165692331Y-113105631D01*
X166099075Y-113274110D01*
X166530872Y-113360000D01*
X166971128Y-113360000D01*
X167402925Y-113274110D01*
X167809669Y-113105631D01*
X168175729Y-112861038D01*
X168487038Y-112549729D01*
X168731631Y-112183669D01*
X168900110Y-111776925D01*
X168986000Y-111345128D01*
X168986000Y-110904872D01*
X168900110Y-110473075D01*
X168731631Y-110066331D01*
X168487038Y-109700271D01*
X168175729Y-109388962D01*
X167809669Y-109144369D01*
X167402925Y-108975890D01*
X166971128Y-108890000D01*
X166530872Y-108890000D01*
X166099075Y-108975890D01*
X165692331Y-109144369D01*
X165326271Y-109388962D01*
X165014962Y-109700271D01*
X164770369Y-110066331D01*
X164601890Y-110473075D01*
X164516000Y-110904872D01*
X163273010Y-110904872D01*
X163273010Y-107297517D01*
X163277049Y-107256509D01*
X163273010Y-107215501D01*
X163273010Y-107215491D01*
X163260928Y-107092821D01*
X163213182Y-106935423D01*
X163135646Y-106790364D01*
X163031301Y-106663219D01*
X162999436Y-106637068D01*
X162676072Y-106313704D01*
X162676072Y-105631499D01*
X162659008Y-105458245D01*
X162608472Y-105291649D01*
X162526405Y-105138113D01*
X162415962Y-105003538D01*
X162281387Y-104893095D01*
X162127851Y-104811028D01*
X161961255Y-104760492D01*
X161788001Y-104743428D01*
X160537999Y-104743428D01*
X160364745Y-104760492D01*
X160198149Y-104811028D01*
X160044613Y-104893095D01*
X159910038Y-105003538D01*
X159799595Y-105138113D01*
X159717528Y-105291649D01*
X159666992Y-105458245D01*
X159649928Y-105631499D01*
X159649928Y-106331501D01*
X159666992Y-106504755D01*
X159717528Y-106671351D01*
X159799595Y-106824887D01*
X159910038Y-106959462D01*
X160044613Y-107069905D01*
X160049111Y-107072309D01*
X160010498Y-107103998D01*
X159975618Y-107146500D01*
X157920868Y-107146500D01*
X157875072Y-107100704D01*
X157875072Y-104993500D01*
X157862812Y-104869018D01*
X157826502Y-104749320D01*
X157767537Y-104639006D01*
X157688185Y-104542315D01*
X157591494Y-104462963D01*
X157481180Y-104403998D01*
X157361482Y-104367688D01*
X157237000Y-104355428D01*
X155437000Y-104355428D01*
X155312518Y-104367688D01*
X155192820Y-104403998D01*
X155082506Y-104462963D01*
X154985815Y-104542315D01*
X154906463Y-104639006D01*
X154847498Y-104749320D01*
X154811188Y-104869018D01*
X154798928Y-104993500D01*
X154798928Y-107100704D01*
X154657633Y-107242000D01*
X154447445Y-107242000D01*
X154456614Y-107210052D01*
X154467000Y-107085400D01*
X154464000Y-106643250D01*
X154305250Y-106484500D01*
X153817072Y-106484500D01*
X153817072Y-106230500D01*
X154305250Y-106230500D01*
X154464000Y-106071750D01*
X154467000Y-105629600D01*
X154456614Y-105504948D01*
X154422109Y-105384718D01*
X154364811Y-105273529D01*
X154286922Y-105175654D01*
X154191436Y-105094856D01*
X154082021Y-105034239D01*
X153962883Y-104996132D01*
X153860750Y-104985000D01*
X153702000Y-105143750D01*
X153702000Y-105327378D01*
X153692684Y-105309949D01*
X153600896Y-105198104D01*
X153556000Y-105161259D01*
X153556000Y-105143750D01*
X153397250Y-104985000D01*
X153295117Y-104996132D01*
X153260045Y-105007350D01*
X153222991Y-104996110D01*
X153079000Y-104981928D01*
X152879000Y-104981928D01*
X152735009Y-104996110D01*
X152654000Y-105020684D01*
X152572991Y-104996110D01*
X152429000Y-104981928D01*
X152229000Y-104981928D01*
X152085009Y-104996110D01*
X152004000Y-105020684D01*
X151922991Y-104996110D01*
X151779000Y-104981928D01*
X151579000Y-104981928D01*
X151435009Y-104996110D01*
X151296552Y-105038110D01*
X151168949Y-105106316D01*
X151057104Y-105198104D01*
X150965316Y-105309949D01*
X150897110Y-105437552D01*
X150855110Y-105576009D01*
X150840928Y-105720000D01*
X150840928Y-106995000D01*
X150855110Y-107138991D01*
X150897110Y-107277448D01*
X150923404Y-107326639D01*
X150929998Y-107393586D01*
X150935779Y-107412643D01*
X150973454Y-107536846D01*
X151044026Y-107668876D01*
X151109874Y-107749111D01*
X151139000Y-107784601D01*
X151167998Y-107808399D01*
X151897557Y-108537958D01*
X151851813Y-108524082D01*
X151729143Y-108512000D01*
X151729142Y-108512000D01*
X151688124Y-108507960D01*
X151647106Y-108512000D01*
X151087110Y-108512000D01*
X151070472Y-108457150D01*
X150988405Y-108303614D01*
X150877962Y-108169038D01*
X150743386Y-108058595D01*
X150589850Y-107976528D01*
X150423254Y-107925992D01*
X150250000Y-107908928D01*
X147250000Y-107908928D01*
X147076746Y-107925992D01*
X146910150Y-107976528D01*
X146756614Y-108058595D01*
X146622038Y-108169038D01*
X146511595Y-108303614D01*
X146429528Y-108457150D01*
X146378992Y-108623746D01*
X146361928Y-108797000D01*
X146361928Y-109897000D01*
X146378992Y-110070254D01*
X146429528Y-110236850D01*
X146511595Y-110390386D01*
X146622038Y-110524962D01*
X146756614Y-110635405D01*
X146910150Y-110717472D01*
X147076746Y-110768008D01*
X147250000Y-110785072D01*
X150250000Y-110785072D01*
X150423254Y-110768008D01*
X150589850Y-110717472D01*
X150743386Y-110635405D01*
X150877962Y-110524962D01*
X150988405Y-110390386D01*
X151070472Y-110236850D01*
X151087110Y-110182000D01*
X151342257Y-110182000D01*
X151876819Y-110716562D01*
X151779000Y-110706928D01*
X151579000Y-110706928D01*
X151435009Y-110721110D01*
X151296552Y-110763110D01*
X151168949Y-110831316D01*
X151057104Y-110923104D01*
X150965316Y-111034949D01*
X150897110Y-111162552D01*
X150855110Y-111301009D01*
X150852993Y-111322500D01*
X147034833Y-111322500D01*
X146997500Y-111318823D01*
X146960167Y-111322500D01*
X146848514Y-111333497D01*
X146705253Y-111376954D01*
X146573224Y-111447526D01*
X146457499Y-111542499D01*
X146433701Y-111571497D01*
X144930771Y-113074428D01*
X144305000Y-113074428D01*
X144131746Y-113091492D01*
X143965150Y-113142028D01*
X143811614Y-113224095D01*
X143677038Y-113334538D01*
X143566595Y-113469114D01*
X143484528Y-113622650D01*
X143433992Y-113789246D01*
X143416928Y-113962500D01*
X136580010Y-113962500D01*
X136272429Y-113798956D01*
X135786888Y-113402959D01*
X135387511Y-112920195D01*
X135089512Y-112369057D01*
X134904234Y-111770524D01*
X134838743Y-111147416D01*
X134860816Y-110904872D01*
X135814000Y-110904872D01*
X135814000Y-111345128D01*
X135899890Y-111776925D01*
X136068369Y-112183669D01*
X136312962Y-112549729D01*
X136624271Y-112861038D01*
X136990331Y-113105631D01*
X137397075Y-113274110D01*
X137828872Y-113360000D01*
X138269128Y-113360000D01*
X138700925Y-113274110D01*
X139107669Y-113105631D01*
X139473729Y-112861038D01*
X139785038Y-112549729D01*
X140029631Y-112183669D01*
X140198110Y-111776925D01*
X140284000Y-111345128D01*
X140284000Y-110904872D01*
X140198110Y-110473075D01*
X140063046Y-110147000D01*
X140961928Y-110147000D01*
X140974188Y-110271482D01*
X141010498Y-110391180D01*
X141069463Y-110501494D01*
X141148815Y-110598185D01*
X141245506Y-110677537D01*
X141355820Y-110736502D01*
X141475518Y-110772812D01*
X141600000Y-110785072D01*
X143064250Y-110782000D01*
X143223000Y-110623250D01*
X143223000Y-109474000D01*
X143477000Y-109474000D01*
X143477000Y-110623250D01*
X143635750Y-110782000D01*
X145100000Y-110785072D01*
X145224482Y-110772812D01*
X145344180Y-110736502D01*
X145454494Y-110677537D01*
X145551185Y-110598185D01*
X145630537Y-110501494D01*
X145689502Y-110391180D01*
X145725812Y-110271482D01*
X145738072Y-110147000D01*
X145735000Y-109632750D01*
X145576250Y-109474000D01*
X143477000Y-109474000D01*
X143223000Y-109474000D01*
X141123750Y-109474000D01*
X140965000Y-109632750D01*
X140961928Y-110147000D01*
X140063046Y-110147000D01*
X140029631Y-110066331D01*
X139785038Y-109700271D01*
X139473729Y-109388962D01*
X139107669Y-109144369D01*
X138700925Y-108975890D01*
X138269128Y-108890000D01*
X137828872Y-108890000D01*
X137397075Y-108975890D01*
X136990331Y-109144369D01*
X136624271Y-109388962D01*
X136312962Y-109700271D01*
X136068369Y-110066331D01*
X135899890Y-110473075D01*
X135814000Y-110904872D01*
X134860816Y-110904872D01*
X134895529Y-110523439D01*
X135072428Y-109922388D01*
X135362705Y-109367140D01*
X135755305Y-108878845D01*
X136150783Y-108547000D01*
X140961928Y-108547000D01*
X140965000Y-109061250D01*
X141123750Y-109220000D01*
X143223000Y-109220000D01*
X143223000Y-108070750D01*
X143477000Y-108070750D01*
X143477000Y-109220000D01*
X145576250Y-109220000D01*
X145735000Y-109061250D01*
X145738072Y-108547000D01*
X145725812Y-108422518D01*
X145689502Y-108302820D01*
X145630537Y-108192506D01*
X145551185Y-108095815D01*
X145454494Y-108016463D01*
X145344180Y-107957498D01*
X145224482Y-107921188D01*
X145100000Y-107908928D01*
X143635750Y-107912000D01*
X143477000Y-108070750D01*
X143223000Y-108070750D01*
X143064250Y-107912000D01*
X141600000Y-107908928D01*
X141475518Y-107921188D01*
X141355820Y-107957498D01*
X141245506Y-108016463D01*
X141148815Y-108095815D01*
X141069463Y-108192506D01*
X141010498Y-108302820D01*
X140974188Y-108422518D01*
X140961928Y-108547000D01*
X136150783Y-108547000D01*
X136235269Y-108476108D01*
X136784312Y-108174268D01*
X137381534Y-107984818D01*
X138034115Y-107911620D01*
X138051323Y-107911500D01*
X139160919Y-107911500D01*
X139189897Y-107908646D01*
X139202503Y-107908734D01*
X139211674Y-107907835D01*
X139606077Y-107866382D01*
X139664683Y-107854352D01*
X139723435Y-107843145D01*
X139732257Y-107840481D01*
X140111099Y-107723210D01*
X140166250Y-107700026D01*
X140221708Y-107677620D01*
X140229845Y-107673294D01*
X140578693Y-107484672D01*
X140628292Y-107451217D01*
X140678338Y-107418468D01*
X140685477Y-107412645D01*
X140685481Y-107412642D01*
X140685485Y-107412638D01*
X140991047Y-107159856D01*
X141033169Y-107117439D01*
X141075938Y-107075557D01*
X141081811Y-107068456D01*
X141332460Y-106761131D01*
X141365552Y-106711322D01*
X141399359Y-106661950D01*
X141403741Y-106653844D01*
X141589923Y-106303687D01*
X141612712Y-106248395D01*
X141636284Y-106193399D01*
X141639009Y-106184595D01*
X141753632Y-105804944D01*
X141765254Y-105746250D01*
X141777688Y-105687753D01*
X141778651Y-105678589D01*
X141817350Y-105283904D01*
X141817350Y-105283902D01*
X141820500Y-105251919D01*
X141820500Y-104667579D01*
X141829901Y-104571704D01*
X141848372Y-104510524D01*
X141878375Y-104454095D01*
X141918758Y-104404582D01*
X141968001Y-104363844D01*
X142024216Y-104333449D01*
X142085261Y-104314553D01*
X142178999Y-104304700D01*
X162616621Y-104304700D01*
X162712496Y-104314101D01*
G04 #@! TA.AperFunction,Conductor*
D15*
G36*
X162712496Y-104314101D02*
G01*
X162773676Y-104332572D01*
X162830105Y-104362575D01*
X162879618Y-104402958D01*
X162920356Y-104452201D01*
X162950751Y-104508416D01*
X162969647Y-104569461D01*
X162979500Y-104663199D01*
X162979500Y-105251919D01*
X162982354Y-105280897D01*
X162982266Y-105293503D01*
X162983165Y-105302674D01*
X163024618Y-105697077D01*
X163036648Y-105755683D01*
X163047855Y-105814435D01*
X163050519Y-105823257D01*
X163167790Y-106202099D01*
X163190974Y-106257250D01*
X163213380Y-106312708D01*
X163217706Y-106320845D01*
X163406328Y-106669693D01*
X163439783Y-106719292D01*
X163472532Y-106769338D01*
X163478355Y-106776477D01*
X163478358Y-106776481D01*
X163478362Y-106776485D01*
X163731144Y-107082047D01*
X163773561Y-107124169D01*
X163815443Y-107166938D01*
X163822544Y-107172811D01*
X164129869Y-107423460D01*
X164179678Y-107456552D01*
X164229050Y-107490359D01*
X164237156Y-107494741D01*
X164587313Y-107680923D01*
X164642605Y-107703712D01*
X164697601Y-107727284D01*
X164706405Y-107730009D01*
X165086056Y-107844632D01*
X165144750Y-107856254D01*
X165203247Y-107868688D01*
X165212411Y-107869651D01*
X165607096Y-107908350D01*
X165607098Y-107908350D01*
X165639081Y-107911500D01*
X166718721Y-107911500D01*
X167374556Y-107975805D01*
X167974365Y-108156898D01*
X168527569Y-108451042D01*
X169013112Y-108847041D01*
X169412489Y-109329805D01*
X169710489Y-109880944D01*
X169895766Y-110479476D01*
X169961257Y-111102584D01*
X169904471Y-111726559D01*
X169727571Y-112327614D01*
X169437295Y-112882860D01*
X169044695Y-113371155D01*
X168564734Y-113773891D01*
X168015686Y-114075732D01*
X167418466Y-114265182D01*
X166765885Y-114338380D01*
X166748676Y-114338500D01*
X165639081Y-114338500D01*
X165610103Y-114341354D01*
X165597497Y-114341266D01*
X165588326Y-114342166D01*
X165193922Y-114383618D01*
X165135329Y-114395645D01*
X165076565Y-114406855D01*
X165067743Y-114409519D01*
X164688901Y-114526790D01*
X164633750Y-114549974D01*
X164578292Y-114572380D01*
X164570155Y-114576706D01*
X164221307Y-114765328D01*
X164171708Y-114798783D01*
X164121662Y-114831532D01*
X164114521Y-114837356D01*
X163808953Y-115090144D01*
X163766815Y-115132577D01*
X163724062Y-115174443D01*
X163718194Y-115181538D01*
X163718189Y-115181543D01*
X163718185Y-115181548D01*
X163467541Y-115488869D01*
X163434459Y-115538662D01*
X163400641Y-115588051D01*
X163396259Y-115596157D01*
X163210077Y-115946313D01*
X163187276Y-116001633D01*
X163163716Y-116056601D01*
X163160991Y-116065405D01*
X163046368Y-116445056D01*
X163034749Y-116503736D01*
X163022312Y-116562246D01*
X163021349Y-116571411D01*
X162982650Y-116966095D01*
X162979500Y-116998081D01*
X162979500Y-117582421D01*
X162970099Y-117678299D01*
X162951627Y-117739478D01*
X162921627Y-117795901D01*
X162881241Y-117845419D01*
X162831998Y-117886157D01*
X162775784Y-117916551D01*
X162714740Y-117935447D01*
X162621001Y-117945300D01*
X142183379Y-117945300D01*
X142087501Y-117935899D01*
X142026322Y-117917427D01*
X141969899Y-117887427D01*
X141920381Y-117847041D01*
X141879643Y-117797798D01*
X141849249Y-117741584D01*
X141830353Y-117680540D01*
X141820500Y-117586801D01*
X141820500Y-116998081D01*
X141817646Y-116969103D01*
X141817692Y-116962500D01*
X143416928Y-116962500D01*
X143429188Y-117086982D01*
X143465498Y-117206680D01*
X143524463Y-117316994D01*
X143603815Y-117413685D01*
X143700506Y-117493037D01*
X143810820Y-117552002D01*
X143930518Y-117588312D01*
X144055000Y-117600572D01*
X144494250Y-117597500D01*
X144653000Y-117438750D01*
X144653000Y-116502000D01*
X144907000Y-116502000D01*
X144907000Y-117438750D01*
X145065750Y-117597500D01*
X145505000Y-117600572D01*
X145629482Y-117588312D01*
X145749180Y-117552002D01*
X145859494Y-117493037D01*
X145956185Y-117413685D01*
X146035537Y-117316994D01*
X146094502Y-117206680D01*
X146098499Y-117193504D01*
X146168815Y-117279185D01*
X146265506Y-117358537D01*
X146375820Y-117417502D01*
X146495518Y-117453812D01*
X146620000Y-117466072D01*
X147034250Y-117463000D01*
X147193000Y-117304250D01*
X147193000Y-116442500D01*
X147447000Y-116442500D01*
X147447000Y-117304250D01*
X147605750Y-117463000D01*
X148020000Y-117466072D01*
X148144482Y-117453812D01*
X148264180Y-117417502D01*
X148374494Y-117358537D01*
X148471185Y-117279185D01*
X148550537Y-117182494D01*
X148590000Y-117108665D01*
X148629463Y-117182494D01*
X148708815Y-117279185D01*
X148805506Y-117358537D01*
X148915820Y-117417502D01*
X149035518Y-117453812D01*
X149160000Y-117466072D01*
X149574250Y-117463000D01*
X149733000Y-117304250D01*
X149733000Y-116442500D01*
X149987000Y-116442500D01*
X149987000Y-117304250D01*
X150145750Y-117463000D01*
X150560000Y-117466072D01*
X150684482Y-117453812D01*
X150804180Y-117417502D01*
X150914494Y-117358537D01*
X151011185Y-117279185D01*
X151090537Y-117182494D01*
X151149502Y-117072180D01*
X151185812Y-116952482D01*
X151198072Y-116828000D01*
X151195649Y-116649109D01*
X159694538Y-116649109D01*
X159698409Y-116686782D01*
X159790579Y-116912033D01*
X159924922Y-117114974D01*
X160096275Y-117287807D01*
X160298054Y-117423890D01*
X160522504Y-117517993D01*
X160761000Y-117566500D01*
X161036000Y-117566500D01*
X161036000Y-116458500D01*
X161290000Y-116458500D01*
X161290000Y-117566500D01*
X161565000Y-117566500D01*
X161803496Y-117517993D01*
X162027946Y-117423890D01*
X162229725Y-117287807D01*
X162401078Y-117114974D01*
X162535421Y-116912033D01*
X162627591Y-116686782D01*
X162631462Y-116649109D01*
X162506731Y-116458500D01*
X161290000Y-116458500D01*
X161036000Y-116458500D01*
X159819269Y-116458500D01*
X159694538Y-116649109D01*
X151195649Y-116649109D01*
X151195000Y-116601250D01*
X151036250Y-116442500D01*
X149987000Y-116442500D01*
X149733000Y-116442500D01*
X148683750Y-116442500D01*
X148590000Y-116536250D01*
X148496250Y-116442500D01*
X147447000Y-116442500D01*
X147193000Y-116442500D01*
X146143750Y-116442500D01*
X146032750Y-116553500D01*
X145981250Y-116502000D01*
X144907000Y-116502000D01*
X144653000Y-116502000D01*
X143578750Y-116502000D01*
X143420000Y-116660750D01*
X143416928Y-116962500D01*
X141817692Y-116962500D01*
X141817734Y-116956497D01*
X141816834Y-116947326D01*
X141775382Y-116552922D01*
X141763355Y-116494329D01*
X141752145Y-116435565D01*
X141749481Y-116426743D01*
X141632210Y-116047901D01*
X141609026Y-115992750D01*
X141586620Y-115937292D01*
X141582294Y-115929155D01*
X141393672Y-115580307D01*
X141360217Y-115530708D01*
X141327468Y-115480662D01*
X141321644Y-115473521D01*
X141068856Y-115167953D01*
X141026423Y-115125815D01*
X140984557Y-115083062D01*
X140977462Y-115077194D01*
X140977457Y-115077189D01*
X140977452Y-115077185D01*
X140670131Y-114826541D01*
X140620338Y-114793459D01*
X140570949Y-114759641D01*
X140562843Y-114755259D01*
X140212687Y-114569077D01*
X140157367Y-114546276D01*
X140102399Y-114522716D01*
X140093599Y-114519992D01*
X140093593Y-114519990D01*
X139713944Y-114405368D01*
X139655264Y-114393749D01*
X139596754Y-114381312D01*
X139587589Y-114380349D01*
X139192905Y-114341650D01*
X139192902Y-114341650D01*
X139160919Y-114338500D01*
X138081279Y-114338500D01*
X137425443Y-114274195D01*
X136825636Y-114093102D01*
X136580010Y-113962500D01*
X143416928Y-113962500D01*
X143416928Y-114637500D01*
X143433992Y-114810754D01*
X143484528Y-114977350D01*
X143566595Y-115130886D01*
X143677038Y-115265462D01*
X143683594Y-115270842D01*
X143603815Y-115336315D01*
X143524463Y-115433006D01*
X143465498Y-115543320D01*
X143429188Y-115663018D01*
X143416928Y-115787500D01*
X143420000Y-116089250D01*
X143578750Y-116248000D01*
X144653000Y-116248000D01*
X144653000Y-116228000D01*
X144907000Y-116228000D01*
X144907000Y-116248000D01*
X145981250Y-116248000D01*
X146092250Y-116137000D01*
X146143750Y-116188500D01*
X147193000Y-116188500D01*
X147193000Y-116168500D01*
X147447000Y-116168500D01*
X147447000Y-116188500D01*
X148496250Y-116188500D01*
X148590000Y-116094750D01*
X148683750Y-116188500D01*
X149733000Y-116188500D01*
X149733000Y-116168500D01*
X149987000Y-116168500D01*
X149987000Y-116188500D01*
X151036250Y-116188500D01*
X151195000Y-116029750D01*
X151198072Y-115803000D01*
X151185812Y-115678518D01*
X151149502Y-115558820D01*
X151090537Y-115448506D01*
X151011185Y-115351815D01*
X150981724Y-115327637D01*
X151045030Y-115250500D01*
X151271178Y-115250500D01*
X151308500Y-115254176D01*
X151345822Y-115250500D01*
X151345833Y-115250500D01*
X151457486Y-115239503D01*
X151600747Y-115196046D01*
X151732776Y-115125474D01*
X151848501Y-115030501D01*
X151872304Y-115001497D01*
X153425886Y-113447916D01*
X153529000Y-113458072D01*
X153729000Y-113458072D01*
X153872991Y-113443890D01*
X154011448Y-113401890D01*
X154139051Y-113333684D01*
X154250896Y-113241896D01*
X154342684Y-113130051D01*
X154410890Y-113002448D01*
X154436658Y-112917500D01*
X154798928Y-112917500D01*
X154798928Y-113493500D01*
X154811188Y-113617982D01*
X154847498Y-113737680D01*
X154906463Y-113847994D01*
X154985815Y-113944685D01*
X155082506Y-114024037D01*
X155192820Y-114083002D01*
X155312518Y-114119312D01*
X155437000Y-114131572D01*
X157237000Y-114131572D01*
X157361482Y-114119312D01*
X157479610Y-114083478D01*
X158289059Y-114892927D01*
X158315209Y-114924791D01*
X158428924Y-115018114D01*
X158442354Y-115029136D01*
X158587413Y-115106672D01*
X158744811Y-115154418D01*
X158908499Y-115170540D01*
X158949518Y-115166500D01*
X159975618Y-115166500D01*
X160010498Y-115209002D01*
X160160348Y-115331981D01*
X160096275Y-115375193D01*
X159924922Y-115548026D01*
X159790579Y-115750967D01*
X159698409Y-115976218D01*
X159694538Y-116013891D01*
X159819269Y-116204500D01*
X161036000Y-116204500D01*
X161036000Y-116184500D01*
X161290000Y-116184500D01*
X161290000Y-116204500D01*
X162506731Y-116204500D01*
X162631462Y-116013891D01*
X162627591Y-115976218D01*
X162535421Y-115750967D01*
X162401078Y-115548026D01*
X162229725Y-115375193D01*
X162165652Y-115331981D01*
X162315502Y-115209002D01*
X162469833Y-115020949D01*
X162584511Y-114806401D01*
X162633299Y-114645569D01*
X162999443Y-114279426D01*
X163031301Y-114253281D01*
X163076461Y-114198254D01*
X163101444Y-114167811D01*
X163135646Y-114126136D01*
X163213182Y-113981077D01*
X163260928Y-113823679D01*
X163273010Y-113701009D01*
X163273010Y-113701008D01*
X163277050Y-113659990D01*
X163273010Y-113618972D01*
X163273010Y-110904872D01*
X164516000Y-110904872D01*
X164516000Y-111345128D01*
X164601890Y-111776925D01*
X164770369Y-112183669D01*
X165014962Y-112549729D01*
X165326271Y-112861038D01*
X165692331Y-113105631D01*
X166099075Y-113274110D01*
X166530872Y-113360000D01*
X166971128Y-113360000D01*
X167402925Y-113274110D01*
X167809669Y-113105631D01*
X168175729Y-112861038D01*
X168487038Y-112549729D01*
X168731631Y-112183669D01*
X168900110Y-111776925D01*
X168986000Y-111345128D01*
X168986000Y-110904872D01*
X168900110Y-110473075D01*
X168731631Y-110066331D01*
X168487038Y-109700271D01*
X168175729Y-109388962D01*
X167809669Y-109144369D01*
X167402925Y-108975890D01*
X166971128Y-108890000D01*
X166530872Y-108890000D01*
X166099075Y-108975890D01*
X165692331Y-109144369D01*
X165326271Y-109388962D01*
X165014962Y-109700271D01*
X164770369Y-110066331D01*
X164601890Y-110473075D01*
X164516000Y-110904872D01*
X163273010Y-110904872D01*
X163273010Y-107297517D01*
X163277049Y-107256509D01*
X163273010Y-107215501D01*
X163273010Y-107215491D01*
X163260928Y-107092821D01*
X163213182Y-106935423D01*
X163135646Y-106790364D01*
X163031301Y-106663219D01*
X162999436Y-106637068D01*
X162676072Y-106313704D01*
X162676072Y-105631499D01*
X162659008Y-105458245D01*
X162608472Y-105291649D01*
X162526405Y-105138113D01*
X162415962Y-105003538D01*
X162281387Y-104893095D01*
X162127851Y-104811028D01*
X161961255Y-104760492D01*
X161788001Y-104743428D01*
X160537999Y-104743428D01*
X160364745Y-104760492D01*
X160198149Y-104811028D01*
X160044613Y-104893095D01*
X159910038Y-105003538D01*
X159799595Y-105138113D01*
X159717528Y-105291649D01*
X159666992Y-105458245D01*
X159649928Y-105631499D01*
X159649928Y-106331501D01*
X159666992Y-106504755D01*
X159717528Y-106671351D01*
X159799595Y-106824887D01*
X159910038Y-106959462D01*
X160044613Y-107069905D01*
X160049111Y-107072309D01*
X160010498Y-107103998D01*
X159975618Y-107146500D01*
X157920868Y-107146500D01*
X157875072Y-107100704D01*
X157875072Y-104993500D01*
X157862812Y-104869018D01*
X157826502Y-104749320D01*
X157767537Y-104639006D01*
X157688185Y-104542315D01*
X157591494Y-104462963D01*
X157481180Y-104403998D01*
X157361482Y-104367688D01*
X157237000Y-104355428D01*
X155437000Y-104355428D01*
X155312518Y-104367688D01*
X155192820Y-104403998D01*
X155082506Y-104462963D01*
X154985815Y-104542315D01*
X154906463Y-104639006D01*
X154847498Y-104749320D01*
X154811188Y-104869018D01*
X154798928Y-104993500D01*
X154798928Y-107100704D01*
X154657633Y-107242000D01*
X154447445Y-107242000D01*
X154456614Y-107210052D01*
X154467000Y-107085400D01*
X154464000Y-106643250D01*
X154305250Y-106484500D01*
X153817072Y-106484500D01*
X153817072Y-106230500D01*
X154305250Y-106230500D01*
X154464000Y-106071750D01*
X154467000Y-105629600D01*
X154456614Y-105504948D01*
X154422109Y-105384718D01*
X154364811Y-105273529D01*
X154286922Y-105175654D01*
X154191436Y-105094856D01*
X154082021Y-105034239D01*
X153962883Y-104996132D01*
X153860750Y-104985000D01*
X153702000Y-105143750D01*
X153702000Y-105327378D01*
X153692684Y-105309949D01*
X153600896Y-105198104D01*
X153556000Y-105161259D01*
X153556000Y-105143750D01*
X153397250Y-104985000D01*
X153295117Y-104996132D01*
X153260045Y-105007350D01*
X153222991Y-104996110D01*
X153079000Y-104981928D01*
X152879000Y-104981928D01*
X152735009Y-104996110D01*
X152654000Y-105020684D01*
X152572991Y-104996110D01*
X152429000Y-104981928D01*
X152229000Y-104981928D01*
X152085009Y-104996110D01*
X152004000Y-105020684D01*
X151922991Y-104996110D01*
X151779000Y-104981928D01*
X151579000Y-104981928D01*
X151435009Y-104996110D01*
X151296552Y-105038110D01*
X151168949Y-105106316D01*
X151057104Y-105198104D01*
X150965316Y-105309949D01*
X150897110Y-105437552D01*
X150855110Y-105576009D01*
X150840928Y-105720000D01*
X150840928Y-106995000D01*
X150855110Y-107138991D01*
X150897110Y-107277448D01*
X150923404Y-107326639D01*
X150929998Y-107393586D01*
X150935779Y-107412643D01*
X150973454Y-107536846D01*
X151044026Y-107668876D01*
X151109874Y-107749111D01*
X151139000Y-107784601D01*
X151167998Y-107808399D01*
X151897557Y-108537958D01*
X151851813Y-108524082D01*
X151729143Y-108512000D01*
X151729142Y-108512000D01*
X151688124Y-108507960D01*
X151647106Y-108512000D01*
X151087110Y-108512000D01*
X151070472Y-108457150D01*
X150988405Y-108303614D01*
X150877962Y-108169038D01*
X150743386Y-108058595D01*
X150589850Y-107976528D01*
X150423254Y-107925992D01*
X150250000Y-107908928D01*
X147250000Y-107908928D01*
X147076746Y-107925992D01*
X146910150Y-107976528D01*
X146756614Y-108058595D01*
X146622038Y-108169038D01*
X146511595Y-108303614D01*
X146429528Y-108457150D01*
X146378992Y-108623746D01*
X146361928Y-108797000D01*
X146361928Y-109897000D01*
X146378992Y-110070254D01*
X146429528Y-110236850D01*
X146511595Y-110390386D01*
X146622038Y-110524962D01*
X146756614Y-110635405D01*
X146910150Y-110717472D01*
X147076746Y-110768008D01*
X147250000Y-110785072D01*
X150250000Y-110785072D01*
X150423254Y-110768008D01*
X150589850Y-110717472D01*
X150743386Y-110635405D01*
X150877962Y-110524962D01*
X150988405Y-110390386D01*
X151070472Y-110236850D01*
X151087110Y-110182000D01*
X151342257Y-110182000D01*
X151876819Y-110716562D01*
X151779000Y-110706928D01*
X151579000Y-110706928D01*
X151435009Y-110721110D01*
X151296552Y-110763110D01*
X151168949Y-110831316D01*
X151057104Y-110923104D01*
X150965316Y-111034949D01*
X150897110Y-111162552D01*
X150855110Y-111301009D01*
X150852993Y-111322500D01*
X147034833Y-111322500D01*
X146997500Y-111318823D01*
X146960167Y-111322500D01*
X146848514Y-111333497D01*
X146705253Y-111376954D01*
X146573224Y-111447526D01*
X146457499Y-111542499D01*
X146433701Y-111571497D01*
X144930771Y-113074428D01*
X144305000Y-113074428D01*
X144131746Y-113091492D01*
X143965150Y-113142028D01*
X143811614Y-113224095D01*
X143677038Y-113334538D01*
X143566595Y-113469114D01*
X143484528Y-113622650D01*
X143433992Y-113789246D01*
X143416928Y-113962500D01*
X136580010Y-113962500D01*
X136272429Y-113798956D01*
X135786888Y-113402959D01*
X135387511Y-112920195D01*
X135089512Y-112369057D01*
X134904234Y-111770524D01*
X134838743Y-111147416D01*
X134860816Y-110904872D01*
X135814000Y-110904872D01*
X135814000Y-111345128D01*
X135899890Y-111776925D01*
X136068369Y-112183669D01*
X136312962Y-112549729D01*
X136624271Y-112861038D01*
X136990331Y-113105631D01*
X137397075Y-113274110D01*
X137828872Y-113360000D01*
X138269128Y-113360000D01*
X138700925Y-113274110D01*
X139107669Y-113105631D01*
X139473729Y-112861038D01*
X139785038Y-112549729D01*
X140029631Y-112183669D01*
X140198110Y-111776925D01*
X140284000Y-111345128D01*
X140284000Y-110904872D01*
X140198110Y-110473075D01*
X140063046Y-110147000D01*
X140961928Y-110147000D01*
X140974188Y-110271482D01*
X141010498Y-110391180D01*
X141069463Y-110501494D01*
X141148815Y-110598185D01*
X141245506Y-110677537D01*
X141355820Y-110736502D01*
X141475518Y-110772812D01*
X141600000Y-110785072D01*
X143064250Y-110782000D01*
X143223000Y-110623250D01*
X143223000Y-109474000D01*
X143477000Y-109474000D01*
X143477000Y-110623250D01*
X143635750Y-110782000D01*
X145100000Y-110785072D01*
X145224482Y-110772812D01*
X145344180Y-110736502D01*
X145454494Y-110677537D01*
X145551185Y-110598185D01*
X145630537Y-110501494D01*
X145689502Y-110391180D01*
X145725812Y-110271482D01*
X145738072Y-110147000D01*
X145735000Y-109632750D01*
X145576250Y-109474000D01*
X143477000Y-109474000D01*
X143223000Y-109474000D01*
X141123750Y-109474000D01*
X140965000Y-109632750D01*
X140961928Y-110147000D01*
X140063046Y-110147000D01*
X140029631Y-110066331D01*
X139785038Y-109700271D01*
X139473729Y-109388962D01*
X139107669Y-109144369D01*
X138700925Y-108975890D01*
X138269128Y-108890000D01*
X137828872Y-108890000D01*
X137397075Y-108975890D01*
X136990331Y-109144369D01*
X136624271Y-109388962D01*
X136312962Y-109700271D01*
X136068369Y-110066331D01*
X135899890Y-110473075D01*
X135814000Y-110904872D01*
X134860816Y-110904872D01*
X134895529Y-110523439D01*
X135072428Y-109922388D01*
X135362705Y-109367140D01*
X135755305Y-108878845D01*
X136150783Y-108547000D01*
X140961928Y-108547000D01*
X140965000Y-109061250D01*
X141123750Y-109220000D01*
X143223000Y-109220000D01*
X143223000Y-108070750D01*
X143477000Y-108070750D01*
X143477000Y-109220000D01*
X145576250Y-109220000D01*
X145735000Y-109061250D01*
X145738072Y-108547000D01*
X145725812Y-108422518D01*
X145689502Y-108302820D01*
X145630537Y-108192506D01*
X145551185Y-108095815D01*
X145454494Y-108016463D01*
X145344180Y-107957498D01*
X145224482Y-107921188D01*
X145100000Y-107908928D01*
X143635750Y-107912000D01*
X143477000Y-108070750D01*
X143223000Y-108070750D01*
X143064250Y-107912000D01*
X141600000Y-107908928D01*
X141475518Y-107921188D01*
X141355820Y-107957498D01*
X141245506Y-108016463D01*
X141148815Y-108095815D01*
X141069463Y-108192506D01*
X141010498Y-108302820D01*
X140974188Y-108422518D01*
X140961928Y-108547000D01*
X136150783Y-108547000D01*
X136235269Y-108476108D01*
X136784312Y-108174268D01*
X137381534Y-107984818D01*
X138034115Y-107911620D01*
X138051323Y-107911500D01*
X139160919Y-107911500D01*
X139189897Y-107908646D01*
X139202503Y-107908734D01*
X139211674Y-107907835D01*
X139606077Y-107866382D01*
X139664683Y-107854352D01*
X139723435Y-107843145D01*
X139732257Y-107840481D01*
X140111099Y-107723210D01*
X140166250Y-107700026D01*
X140221708Y-107677620D01*
X140229845Y-107673294D01*
X140578693Y-107484672D01*
X140628292Y-107451217D01*
X140678338Y-107418468D01*
X140685477Y-107412645D01*
X140685481Y-107412642D01*
X140685485Y-107412638D01*
X140991047Y-107159856D01*
X141033169Y-107117439D01*
X141075938Y-107075557D01*
X141081811Y-107068456D01*
X141332460Y-106761131D01*
X141365552Y-106711322D01*
X141399359Y-106661950D01*
X141403741Y-106653844D01*
X141589923Y-106303687D01*
X141612712Y-106248395D01*
X141636284Y-106193399D01*
X141639009Y-106184595D01*
X141753632Y-105804944D01*
X141765254Y-105746250D01*
X141777688Y-105687753D01*
X141778651Y-105678589D01*
X141817350Y-105283904D01*
X141817350Y-105283902D01*
X141820500Y-105251919D01*
X141820500Y-104667579D01*
X141829901Y-104571704D01*
X141848372Y-104510524D01*
X141878375Y-104454095D01*
X141918758Y-104404582D01*
X141968001Y-104363844D01*
X142024216Y-104333449D01*
X142085261Y-104314553D01*
X142178999Y-104304700D01*
X162616621Y-104304700D01*
X162712496Y-104314101D01*
G37*
G04 #@! TD.AperFunction*
M02*
