G04 #@! TF.GenerationSoftware,KiCad,Pcbnew,(5.1.4)-1*
G04 #@! TF.CreationDate,2020-02-26T20:20:47+00:00*
G04 #@! TF.ProjectId,drv120_solenoid_driver,64727631-3230-45f7-936f-6c656e6f6964,rev?*
G04 #@! TF.SameCoordinates,Original*
G04 #@! TF.FileFunction,Copper,L1,Top*
G04 #@! TF.FilePolarity,Positive*
%FSLAX46Y46*%
G04 Gerber Fmt 4.6, Leading zero omitted, Abs format (unit mm)*
G04 Created by KiCad (PCBNEW (5.1.4)-1) date 2020-02-26 20:20:47*
%MOMM*%
%LPD*%
G04 APERTURE LIST*
%ADD10C,0.100000*%
%ADD11C,1.600000*%
%ADD12R,1.700000X1.700000*%
%ADD13O,1.700000X1.700000*%
%ADD14C,1.150000*%
%ADD15R,1.800000X3.500000*%
%ADD16C,0.975000*%
%ADD17C,2.950000*%
%ADD18C,0.600000*%
%ADD19C,0.250000*%
%ADD20C,0.500000*%
%ADD21C,0.750000*%
%ADD22C,0.254000*%
G04 APERTURE END LIST*
D10*
G36*
X157186185Y-104161602D02*
G01*
X157210415Y-104165196D01*
X157234175Y-104171148D01*
X157257238Y-104179400D01*
X157279381Y-104189872D01*
X157300390Y-104202465D01*
X157320065Y-104217057D01*
X157338214Y-104233506D01*
X157354663Y-104251655D01*
X157369255Y-104271330D01*
X157381848Y-104292339D01*
X157392320Y-104314482D01*
X157400572Y-104337545D01*
X157406524Y-104361305D01*
X157410118Y-104385535D01*
X157411320Y-104410000D01*
X157411320Y-107410800D01*
X157410118Y-107435265D01*
X157406524Y-107459495D01*
X157400572Y-107483255D01*
X157392320Y-107506318D01*
X157381848Y-107528461D01*
X157369255Y-107549470D01*
X157354663Y-107569145D01*
X157338214Y-107587294D01*
X157320065Y-107603743D01*
X157300390Y-107618335D01*
X157279381Y-107630928D01*
X157257238Y-107641400D01*
X157234175Y-107649652D01*
X157210415Y-107655604D01*
X157186185Y-107659198D01*
X157161720Y-107660400D01*
X156060920Y-107660400D01*
X156036455Y-107659198D01*
X156012225Y-107655604D01*
X155988465Y-107649652D01*
X155965402Y-107641400D01*
X155943259Y-107630928D01*
X155922250Y-107618335D01*
X155902575Y-107603743D01*
X155884426Y-107587294D01*
X155867977Y-107569145D01*
X155853385Y-107549470D01*
X155840792Y-107528461D01*
X155830320Y-107506318D01*
X155822068Y-107483255D01*
X155816116Y-107459495D01*
X155812522Y-107435265D01*
X155811320Y-107410800D01*
X155811320Y-104410000D01*
X155812522Y-104385535D01*
X155816116Y-104361305D01*
X155822068Y-104337545D01*
X155830320Y-104314482D01*
X155840792Y-104292339D01*
X155853385Y-104271330D01*
X155867977Y-104251655D01*
X155884426Y-104233506D01*
X155902575Y-104217057D01*
X155922250Y-104202465D01*
X155943259Y-104189872D01*
X155965402Y-104179400D01*
X155988465Y-104171148D01*
X156012225Y-104165196D01*
X156036455Y-104161602D01*
X156060920Y-104160400D01*
X157161720Y-104160400D01*
X157186185Y-104161602D01*
X157186185Y-104161602D01*
G37*
D11*
X156611320Y-105910400D03*
D10*
G36*
X157185824Y-109561604D02*
G01*
X157210093Y-109565204D01*
X157233891Y-109571165D01*
X157256991Y-109579430D01*
X157279169Y-109589920D01*
X157300213Y-109602533D01*
X157319918Y-109617147D01*
X157338097Y-109633623D01*
X157354573Y-109651802D01*
X157369187Y-109671507D01*
X157381800Y-109692551D01*
X157392290Y-109714729D01*
X157400555Y-109737829D01*
X157406516Y-109761627D01*
X157410116Y-109785896D01*
X157411320Y-109810400D01*
X157411320Y-112810400D01*
X157410116Y-112834904D01*
X157406516Y-112859173D01*
X157400555Y-112882971D01*
X157392290Y-112906071D01*
X157381800Y-112928249D01*
X157369187Y-112949293D01*
X157354573Y-112968998D01*
X157338097Y-112987177D01*
X157319918Y-113003653D01*
X157300213Y-113018267D01*
X157279169Y-113030880D01*
X157256991Y-113041370D01*
X157233891Y-113049635D01*
X157210093Y-113055596D01*
X157185824Y-113059196D01*
X157161320Y-113060400D01*
X156061320Y-113060400D01*
X156036816Y-113059196D01*
X156012547Y-113055596D01*
X155988749Y-113049635D01*
X155965649Y-113041370D01*
X155943471Y-113030880D01*
X155922427Y-113018267D01*
X155902722Y-113003653D01*
X155884543Y-112987177D01*
X155868067Y-112968998D01*
X155853453Y-112949293D01*
X155840840Y-112928249D01*
X155830350Y-112906071D01*
X155822085Y-112882971D01*
X155816124Y-112859173D01*
X155812524Y-112834904D01*
X155811320Y-112810400D01*
X155811320Y-109810400D01*
X155812524Y-109785896D01*
X155816124Y-109761627D01*
X155822085Y-109737829D01*
X155830350Y-109714729D01*
X155840840Y-109692551D01*
X155853453Y-109671507D01*
X155868067Y-109651802D01*
X155884543Y-109633623D01*
X155902722Y-109617147D01*
X155922427Y-109602533D01*
X155943471Y-109589920D01*
X155965649Y-109579430D01*
X155988749Y-109571165D01*
X156012547Y-109565204D01*
X156036816Y-109561604D01*
X156061320Y-109560400D01*
X157161320Y-109560400D01*
X157185824Y-109561604D01*
X157185824Y-109561604D01*
G37*
D11*
X156611320Y-111310400D03*
D12*
X162570160Y-110281720D03*
D13*
X162570160Y-107741720D03*
D10*
G36*
X137851670Y-104891542D02*
G01*
X137875895Y-104895135D01*
X137899651Y-104901086D01*
X137922709Y-104909336D01*
X137944847Y-104919807D01*
X137965853Y-104932397D01*
X137985523Y-104946985D01*
X138003668Y-104963432D01*
X138020115Y-104981577D01*
X138034703Y-105001247D01*
X138047293Y-105022253D01*
X138057764Y-105044391D01*
X138066014Y-105067449D01*
X138071965Y-105091205D01*
X138075558Y-105115430D01*
X138076760Y-105139890D01*
X138076760Y-106040790D01*
X138075558Y-106065250D01*
X138071965Y-106089475D01*
X138066014Y-106113231D01*
X138057764Y-106136289D01*
X138047293Y-106158427D01*
X138034703Y-106179433D01*
X138020115Y-106199103D01*
X138003668Y-106217248D01*
X137985523Y-106233695D01*
X137965853Y-106248283D01*
X137944847Y-106260873D01*
X137922709Y-106271344D01*
X137899651Y-106279594D01*
X137875895Y-106285545D01*
X137851670Y-106289138D01*
X137827210Y-106290340D01*
X137176310Y-106290340D01*
X137151850Y-106289138D01*
X137127625Y-106285545D01*
X137103869Y-106279594D01*
X137080811Y-106271344D01*
X137058673Y-106260873D01*
X137037667Y-106248283D01*
X137017997Y-106233695D01*
X136999852Y-106217248D01*
X136983405Y-106199103D01*
X136968817Y-106179433D01*
X136956227Y-106158427D01*
X136945756Y-106136289D01*
X136937506Y-106113231D01*
X136931555Y-106089475D01*
X136927962Y-106065250D01*
X136926760Y-106040790D01*
X136926760Y-105139890D01*
X136927962Y-105115430D01*
X136931555Y-105091205D01*
X136937506Y-105067449D01*
X136945756Y-105044391D01*
X136956227Y-105022253D01*
X136968817Y-105001247D01*
X136983405Y-104981577D01*
X136999852Y-104963432D01*
X137017997Y-104946985D01*
X137037667Y-104932397D01*
X137058673Y-104919807D01*
X137080811Y-104909336D01*
X137103869Y-104901086D01*
X137127625Y-104895135D01*
X137151850Y-104891542D01*
X137176310Y-104890340D01*
X137827210Y-104890340D01*
X137851670Y-104891542D01*
X137851670Y-104891542D01*
G37*
D14*
X137501760Y-105590340D03*
D10*
G36*
X139901265Y-104891544D02*
G01*
X139925533Y-104895144D01*
X139949332Y-104901105D01*
X139972431Y-104909370D01*
X139994610Y-104919860D01*
X140015653Y-104932472D01*
X140035359Y-104947087D01*
X140053537Y-104963563D01*
X140070013Y-104981741D01*
X140084628Y-105001447D01*
X140097240Y-105022490D01*
X140107730Y-105044669D01*
X140115995Y-105067768D01*
X140121956Y-105091567D01*
X140125556Y-105115835D01*
X140126760Y-105140339D01*
X140126760Y-106040341D01*
X140125556Y-106064845D01*
X140121956Y-106089113D01*
X140115995Y-106112912D01*
X140107730Y-106136011D01*
X140097240Y-106158190D01*
X140084628Y-106179233D01*
X140070013Y-106198939D01*
X140053537Y-106217117D01*
X140035359Y-106233593D01*
X140015653Y-106248208D01*
X139994610Y-106260820D01*
X139972431Y-106271310D01*
X139949332Y-106279575D01*
X139925533Y-106285536D01*
X139901265Y-106289136D01*
X139876761Y-106290340D01*
X139226759Y-106290340D01*
X139202255Y-106289136D01*
X139177987Y-106285536D01*
X139154188Y-106279575D01*
X139131089Y-106271310D01*
X139108910Y-106260820D01*
X139087867Y-106248208D01*
X139068161Y-106233593D01*
X139049983Y-106217117D01*
X139033507Y-106198939D01*
X139018892Y-106179233D01*
X139006280Y-106158190D01*
X138995790Y-106136011D01*
X138987525Y-106112912D01*
X138981564Y-106089113D01*
X138977964Y-106064845D01*
X138976760Y-106040341D01*
X138976760Y-105140339D01*
X138977964Y-105115835D01*
X138981564Y-105091567D01*
X138987525Y-105067768D01*
X138995790Y-105044669D01*
X139006280Y-105022490D01*
X139018892Y-105001447D01*
X139033507Y-104981741D01*
X139049983Y-104963563D01*
X139068161Y-104947087D01*
X139087867Y-104932472D01*
X139108910Y-104919860D01*
X139131089Y-104909370D01*
X139154188Y-104901105D01*
X139177987Y-104895144D01*
X139202255Y-104891544D01*
X139226759Y-104890340D01*
X139876761Y-104890340D01*
X139901265Y-104891544D01*
X139901265Y-104891544D01*
G37*
D14*
X139551760Y-105590340D03*
D15*
X150195280Y-112547400D03*
X150195280Y-107547400D03*
D13*
X144569180Y-112687100D03*
D12*
X144569180Y-115227100D03*
X145976340Y-103418640D03*
D13*
X143436340Y-103418640D03*
D10*
G36*
X139749202Y-106887954D02*
G01*
X139772863Y-106891464D01*
X139796067Y-106897276D01*
X139818589Y-106905334D01*
X139840213Y-106915562D01*
X139860730Y-106927859D01*
X139879943Y-106942109D01*
X139897667Y-106958173D01*
X139913731Y-106975897D01*
X139927981Y-106995110D01*
X139940278Y-107015627D01*
X139950506Y-107037251D01*
X139958564Y-107059773D01*
X139964376Y-107082977D01*
X139967886Y-107106638D01*
X139969060Y-107130530D01*
X139969060Y-108043030D01*
X139967886Y-108066922D01*
X139964376Y-108090583D01*
X139958564Y-108113787D01*
X139950506Y-108136309D01*
X139940278Y-108157933D01*
X139927981Y-108178450D01*
X139913731Y-108197663D01*
X139897667Y-108215387D01*
X139879943Y-108231451D01*
X139860730Y-108245701D01*
X139840213Y-108257998D01*
X139818589Y-108268226D01*
X139796067Y-108276284D01*
X139772863Y-108282096D01*
X139749202Y-108285606D01*
X139725310Y-108286780D01*
X139237810Y-108286780D01*
X139213918Y-108285606D01*
X139190257Y-108282096D01*
X139167053Y-108276284D01*
X139144531Y-108268226D01*
X139122907Y-108257998D01*
X139102390Y-108245701D01*
X139083177Y-108231451D01*
X139065453Y-108215387D01*
X139049389Y-108197663D01*
X139035139Y-108178450D01*
X139022842Y-108157933D01*
X139012614Y-108136309D01*
X139004556Y-108113787D01*
X138998744Y-108090583D01*
X138995234Y-108066922D01*
X138994060Y-108043030D01*
X138994060Y-107130530D01*
X138995234Y-107106638D01*
X138998744Y-107082977D01*
X139004556Y-107059773D01*
X139012614Y-107037251D01*
X139022842Y-107015627D01*
X139035139Y-106995110D01*
X139049389Y-106975897D01*
X139065453Y-106958173D01*
X139083177Y-106942109D01*
X139102390Y-106927859D01*
X139122907Y-106915562D01*
X139144531Y-106905334D01*
X139167053Y-106897276D01*
X139190257Y-106891464D01*
X139213918Y-106887954D01*
X139237810Y-106886780D01*
X139725310Y-106886780D01*
X139749202Y-106887954D01*
X139749202Y-106887954D01*
G37*
D16*
X139481560Y-107586780D03*
D10*
G36*
X137874202Y-106887954D02*
G01*
X137897863Y-106891464D01*
X137921067Y-106897276D01*
X137943589Y-106905334D01*
X137965213Y-106915562D01*
X137985730Y-106927859D01*
X138004943Y-106942109D01*
X138022667Y-106958173D01*
X138038731Y-106975897D01*
X138052981Y-106995110D01*
X138065278Y-107015627D01*
X138075506Y-107037251D01*
X138083564Y-107059773D01*
X138089376Y-107082977D01*
X138092886Y-107106638D01*
X138094060Y-107130530D01*
X138094060Y-108043030D01*
X138092886Y-108066922D01*
X138089376Y-108090583D01*
X138083564Y-108113787D01*
X138075506Y-108136309D01*
X138065278Y-108157933D01*
X138052981Y-108178450D01*
X138038731Y-108197663D01*
X138022667Y-108215387D01*
X138004943Y-108231451D01*
X137985730Y-108245701D01*
X137965213Y-108257998D01*
X137943589Y-108268226D01*
X137921067Y-108276284D01*
X137897863Y-108282096D01*
X137874202Y-108285606D01*
X137850310Y-108286780D01*
X137362810Y-108286780D01*
X137338918Y-108285606D01*
X137315257Y-108282096D01*
X137292053Y-108276284D01*
X137269531Y-108268226D01*
X137247907Y-108257998D01*
X137227390Y-108245701D01*
X137208177Y-108231451D01*
X137190453Y-108215387D01*
X137174389Y-108197663D01*
X137160139Y-108178450D01*
X137147842Y-108157933D01*
X137137614Y-108136309D01*
X137129556Y-108113787D01*
X137123744Y-108090583D01*
X137120234Y-108066922D01*
X137119060Y-108043030D01*
X137119060Y-107130530D01*
X137120234Y-107106638D01*
X137123744Y-107082977D01*
X137129556Y-107059773D01*
X137137614Y-107037251D01*
X137147842Y-107015627D01*
X137160139Y-106995110D01*
X137174389Y-106975897D01*
X137190453Y-106958173D01*
X137208177Y-106942109D01*
X137227390Y-106927859D01*
X137247907Y-106915562D01*
X137269531Y-106905334D01*
X137292053Y-106897276D01*
X137315257Y-106891464D01*
X137338918Y-106887954D01*
X137362810Y-106886780D01*
X137850310Y-106886780D01*
X137874202Y-106887954D01*
X137874202Y-106887954D01*
G37*
D16*
X137606560Y-107586780D03*
D10*
G36*
X137848802Y-108907254D02*
G01*
X137872463Y-108910764D01*
X137895667Y-108916576D01*
X137918189Y-108924634D01*
X137939813Y-108934862D01*
X137960330Y-108947159D01*
X137979543Y-108961409D01*
X137997267Y-108977473D01*
X138013331Y-108995197D01*
X138027581Y-109014410D01*
X138039878Y-109034927D01*
X138050106Y-109056551D01*
X138058164Y-109079073D01*
X138063976Y-109102277D01*
X138067486Y-109125938D01*
X138068660Y-109149830D01*
X138068660Y-110062330D01*
X138067486Y-110086222D01*
X138063976Y-110109883D01*
X138058164Y-110133087D01*
X138050106Y-110155609D01*
X138039878Y-110177233D01*
X138027581Y-110197750D01*
X138013331Y-110216963D01*
X137997267Y-110234687D01*
X137979543Y-110250751D01*
X137960330Y-110265001D01*
X137939813Y-110277298D01*
X137918189Y-110287526D01*
X137895667Y-110295584D01*
X137872463Y-110301396D01*
X137848802Y-110304906D01*
X137824910Y-110306080D01*
X137337410Y-110306080D01*
X137313518Y-110304906D01*
X137289857Y-110301396D01*
X137266653Y-110295584D01*
X137244131Y-110287526D01*
X137222507Y-110277298D01*
X137201990Y-110265001D01*
X137182777Y-110250751D01*
X137165053Y-110234687D01*
X137148989Y-110216963D01*
X137134739Y-110197750D01*
X137122442Y-110177233D01*
X137112214Y-110155609D01*
X137104156Y-110133087D01*
X137098344Y-110109883D01*
X137094834Y-110086222D01*
X137093660Y-110062330D01*
X137093660Y-109149830D01*
X137094834Y-109125938D01*
X137098344Y-109102277D01*
X137104156Y-109079073D01*
X137112214Y-109056551D01*
X137122442Y-109034927D01*
X137134739Y-109014410D01*
X137148989Y-108995197D01*
X137165053Y-108977473D01*
X137182777Y-108961409D01*
X137201990Y-108947159D01*
X137222507Y-108934862D01*
X137244131Y-108924634D01*
X137266653Y-108916576D01*
X137289857Y-108910764D01*
X137313518Y-108907254D01*
X137337410Y-108906080D01*
X137824910Y-108906080D01*
X137848802Y-108907254D01*
X137848802Y-108907254D01*
G37*
D16*
X137581160Y-109606080D03*
D10*
G36*
X139723802Y-108907254D02*
G01*
X139747463Y-108910764D01*
X139770667Y-108916576D01*
X139793189Y-108924634D01*
X139814813Y-108934862D01*
X139835330Y-108947159D01*
X139854543Y-108961409D01*
X139872267Y-108977473D01*
X139888331Y-108995197D01*
X139902581Y-109014410D01*
X139914878Y-109034927D01*
X139925106Y-109056551D01*
X139933164Y-109079073D01*
X139938976Y-109102277D01*
X139942486Y-109125938D01*
X139943660Y-109149830D01*
X139943660Y-110062330D01*
X139942486Y-110086222D01*
X139938976Y-110109883D01*
X139933164Y-110133087D01*
X139925106Y-110155609D01*
X139914878Y-110177233D01*
X139902581Y-110197750D01*
X139888331Y-110216963D01*
X139872267Y-110234687D01*
X139854543Y-110250751D01*
X139835330Y-110265001D01*
X139814813Y-110277298D01*
X139793189Y-110287526D01*
X139770667Y-110295584D01*
X139747463Y-110301396D01*
X139723802Y-110304906D01*
X139699910Y-110306080D01*
X139212410Y-110306080D01*
X139188518Y-110304906D01*
X139164857Y-110301396D01*
X139141653Y-110295584D01*
X139119131Y-110287526D01*
X139097507Y-110277298D01*
X139076990Y-110265001D01*
X139057777Y-110250751D01*
X139040053Y-110234687D01*
X139023989Y-110216963D01*
X139009739Y-110197750D01*
X138997442Y-110177233D01*
X138987214Y-110155609D01*
X138979156Y-110133087D01*
X138973344Y-110109883D01*
X138969834Y-110086222D01*
X138968660Y-110062330D01*
X138968660Y-109149830D01*
X138969834Y-109125938D01*
X138973344Y-109102277D01*
X138979156Y-109079073D01*
X138987214Y-109056551D01*
X138997442Y-109034927D01*
X139009739Y-109014410D01*
X139023989Y-108995197D01*
X139040053Y-108977473D01*
X139057777Y-108961409D01*
X139076990Y-108947159D01*
X139097507Y-108934862D01*
X139119131Y-108924634D01*
X139141653Y-108916576D01*
X139164857Y-108910764D01*
X139188518Y-108907254D01*
X139212410Y-108906080D01*
X139699910Y-108906080D01*
X139723802Y-108907254D01*
X139723802Y-108907254D01*
G37*
D16*
X139456160Y-109606080D03*
D10*
G36*
X145720985Y-105735325D02*
G01*
X145745254Y-105738925D01*
X145769052Y-105744886D01*
X145792152Y-105753151D01*
X145814330Y-105763641D01*
X145835374Y-105776254D01*
X145855079Y-105790868D01*
X145873258Y-105807344D01*
X145889734Y-105825523D01*
X145904348Y-105845228D01*
X145916961Y-105866272D01*
X145927451Y-105888450D01*
X145935716Y-105911550D01*
X145941677Y-105935348D01*
X145945277Y-105959617D01*
X145946481Y-105984121D01*
X145946481Y-110384121D01*
X145945277Y-110408625D01*
X145941677Y-110432894D01*
X145935716Y-110456692D01*
X145927451Y-110479792D01*
X145916961Y-110501970D01*
X145904348Y-110523014D01*
X145889734Y-110542719D01*
X145873258Y-110560898D01*
X145855079Y-110577374D01*
X145835374Y-110591988D01*
X145814330Y-110604601D01*
X145792152Y-110615091D01*
X145769052Y-110623356D01*
X145745254Y-110629317D01*
X145720985Y-110632917D01*
X145696481Y-110634121D01*
X143246481Y-110634121D01*
X143221977Y-110632917D01*
X143197708Y-110629317D01*
X143173910Y-110623356D01*
X143150810Y-110615091D01*
X143128632Y-110604601D01*
X143107588Y-110591988D01*
X143087883Y-110577374D01*
X143069704Y-110560898D01*
X143053228Y-110542719D01*
X143038614Y-110523014D01*
X143026001Y-110501970D01*
X143015511Y-110479792D01*
X143007246Y-110456692D01*
X143001285Y-110432894D01*
X142997685Y-110408625D01*
X142996481Y-110384121D01*
X142996481Y-105984121D01*
X142997685Y-105959617D01*
X143001285Y-105935348D01*
X143007246Y-105911550D01*
X143015511Y-105888450D01*
X143026001Y-105866272D01*
X143038614Y-105845228D01*
X143053228Y-105825523D01*
X143069704Y-105807344D01*
X143087883Y-105790868D01*
X143107588Y-105776254D01*
X143128632Y-105763641D01*
X143150810Y-105753151D01*
X143173910Y-105744886D01*
X143197708Y-105738925D01*
X143221977Y-105735325D01*
X143246481Y-105734121D01*
X145696481Y-105734121D01*
X145720985Y-105735325D01*
X145720985Y-105735325D01*
G37*
D17*
X144471481Y-108184121D03*
D10*
G36*
X142661184Y-105979843D02*
G01*
X142675745Y-105982003D01*
X142690024Y-105985580D01*
X142703884Y-105990539D01*
X142717191Y-105996833D01*
X142729817Y-106004401D01*
X142741640Y-106013169D01*
X142752547Y-106023055D01*
X142762433Y-106033962D01*
X142771201Y-106045785D01*
X142778769Y-106058411D01*
X142785063Y-106071718D01*
X142790022Y-106085578D01*
X142793599Y-106099857D01*
X142795759Y-106114418D01*
X142796481Y-106129121D01*
X142796481Y-106429121D01*
X142795759Y-106443824D01*
X142793599Y-106458385D01*
X142790022Y-106472664D01*
X142785063Y-106486524D01*
X142778769Y-106499831D01*
X142771201Y-106512457D01*
X142762433Y-106524280D01*
X142752547Y-106535187D01*
X142741640Y-106545073D01*
X142729817Y-106553841D01*
X142717191Y-106561409D01*
X142703884Y-106567703D01*
X142690024Y-106572662D01*
X142675745Y-106576239D01*
X142661184Y-106578399D01*
X142646481Y-106579121D01*
X141171481Y-106579121D01*
X141156778Y-106578399D01*
X141142217Y-106576239D01*
X141127938Y-106572662D01*
X141114078Y-106567703D01*
X141100771Y-106561409D01*
X141088145Y-106553841D01*
X141076322Y-106545073D01*
X141065415Y-106535187D01*
X141055529Y-106524280D01*
X141046761Y-106512457D01*
X141039193Y-106499831D01*
X141032899Y-106486524D01*
X141027940Y-106472664D01*
X141024363Y-106458385D01*
X141022203Y-106443824D01*
X141021481Y-106429121D01*
X141021481Y-106129121D01*
X141022203Y-106114418D01*
X141024363Y-106099857D01*
X141027940Y-106085578D01*
X141032899Y-106071718D01*
X141039193Y-106058411D01*
X141046761Y-106045785D01*
X141055529Y-106033962D01*
X141065415Y-106023055D01*
X141076322Y-106013169D01*
X141088145Y-106004401D01*
X141100771Y-105996833D01*
X141114078Y-105990539D01*
X141127938Y-105985580D01*
X141142217Y-105982003D01*
X141156778Y-105979843D01*
X141171481Y-105979121D01*
X142646481Y-105979121D01*
X142661184Y-105979843D01*
X142661184Y-105979843D01*
G37*
D18*
X141908981Y-106279121D03*
D10*
G36*
X142661184Y-107249843D02*
G01*
X142675745Y-107252003D01*
X142690024Y-107255580D01*
X142703884Y-107260539D01*
X142717191Y-107266833D01*
X142729817Y-107274401D01*
X142741640Y-107283169D01*
X142752547Y-107293055D01*
X142762433Y-107303962D01*
X142771201Y-107315785D01*
X142778769Y-107328411D01*
X142785063Y-107341718D01*
X142790022Y-107355578D01*
X142793599Y-107369857D01*
X142795759Y-107384418D01*
X142796481Y-107399121D01*
X142796481Y-107699121D01*
X142795759Y-107713824D01*
X142793599Y-107728385D01*
X142790022Y-107742664D01*
X142785063Y-107756524D01*
X142778769Y-107769831D01*
X142771201Y-107782457D01*
X142762433Y-107794280D01*
X142752547Y-107805187D01*
X142741640Y-107815073D01*
X142729817Y-107823841D01*
X142717191Y-107831409D01*
X142703884Y-107837703D01*
X142690024Y-107842662D01*
X142675745Y-107846239D01*
X142661184Y-107848399D01*
X142646481Y-107849121D01*
X141171481Y-107849121D01*
X141156778Y-107848399D01*
X141142217Y-107846239D01*
X141127938Y-107842662D01*
X141114078Y-107837703D01*
X141100771Y-107831409D01*
X141088145Y-107823841D01*
X141076322Y-107815073D01*
X141065415Y-107805187D01*
X141055529Y-107794280D01*
X141046761Y-107782457D01*
X141039193Y-107769831D01*
X141032899Y-107756524D01*
X141027940Y-107742664D01*
X141024363Y-107728385D01*
X141022203Y-107713824D01*
X141021481Y-107699121D01*
X141021481Y-107399121D01*
X141022203Y-107384418D01*
X141024363Y-107369857D01*
X141027940Y-107355578D01*
X141032899Y-107341718D01*
X141039193Y-107328411D01*
X141046761Y-107315785D01*
X141055529Y-107303962D01*
X141065415Y-107293055D01*
X141076322Y-107283169D01*
X141088145Y-107274401D01*
X141100771Y-107266833D01*
X141114078Y-107260539D01*
X141127938Y-107255580D01*
X141142217Y-107252003D01*
X141156778Y-107249843D01*
X141171481Y-107249121D01*
X142646481Y-107249121D01*
X142661184Y-107249843D01*
X142661184Y-107249843D01*
G37*
D18*
X141908981Y-107549121D03*
D10*
G36*
X142661184Y-108519843D02*
G01*
X142675745Y-108522003D01*
X142690024Y-108525580D01*
X142703884Y-108530539D01*
X142717191Y-108536833D01*
X142729817Y-108544401D01*
X142741640Y-108553169D01*
X142752547Y-108563055D01*
X142762433Y-108573962D01*
X142771201Y-108585785D01*
X142778769Y-108598411D01*
X142785063Y-108611718D01*
X142790022Y-108625578D01*
X142793599Y-108639857D01*
X142795759Y-108654418D01*
X142796481Y-108669121D01*
X142796481Y-108969121D01*
X142795759Y-108983824D01*
X142793599Y-108998385D01*
X142790022Y-109012664D01*
X142785063Y-109026524D01*
X142778769Y-109039831D01*
X142771201Y-109052457D01*
X142762433Y-109064280D01*
X142752547Y-109075187D01*
X142741640Y-109085073D01*
X142729817Y-109093841D01*
X142717191Y-109101409D01*
X142703884Y-109107703D01*
X142690024Y-109112662D01*
X142675745Y-109116239D01*
X142661184Y-109118399D01*
X142646481Y-109119121D01*
X141171481Y-109119121D01*
X141156778Y-109118399D01*
X141142217Y-109116239D01*
X141127938Y-109112662D01*
X141114078Y-109107703D01*
X141100771Y-109101409D01*
X141088145Y-109093841D01*
X141076322Y-109085073D01*
X141065415Y-109075187D01*
X141055529Y-109064280D01*
X141046761Y-109052457D01*
X141039193Y-109039831D01*
X141032899Y-109026524D01*
X141027940Y-109012664D01*
X141024363Y-108998385D01*
X141022203Y-108983824D01*
X141021481Y-108969121D01*
X141021481Y-108669121D01*
X141022203Y-108654418D01*
X141024363Y-108639857D01*
X141027940Y-108625578D01*
X141032899Y-108611718D01*
X141039193Y-108598411D01*
X141046761Y-108585785D01*
X141055529Y-108573962D01*
X141065415Y-108563055D01*
X141076322Y-108553169D01*
X141088145Y-108544401D01*
X141100771Y-108536833D01*
X141114078Y-108530539D01*
X141127938Y-108525580D01*
X141142217Y-108522003D01*
X141156778Y-108519843D01*
X141171481Y-108519121D01*
X142646481Y-108519121D01*
X142661184Y-108519843D01*
X142661184Y-108519843D01*
G37*
D18*
X141908981Y-108819121D03*
D10*
G36*
X142661184Y-109789843D02*
G01*
X142675745Y-109792003D01*
X142690024Y-109795580D01*
X142703884Y-109800539D01*
X142717191Y-109806833D01*
X142729817Y-109814401D01*
X142741640Y-109823169D01*
X142752547Y-109833055D01*
X142762433Y-109843962D01*
X142771201Y-109855785D01*
X142778769Y-109868411D01*
X142785063Y-109881718D01*
X142790022Y-109895578D01*
X142793599Y-109909857D01*
X142795759Y-109924418D01*
X142796481Y-109939121D01*
X142796481Y-110239121D01*
X142795759Y-110253824D01*
X142793599Y-110268385D01*
X142790022Y-110282664D01*
X142785063Y-110296524D01*
X142778769Y-110309831D01*
X142771201Y-110322457D01*
X142762433Y-110334280D01*
X142752547Y-110345187D01*
X142741640Y-110355073D01*
X142729817Y-110363841D01*
X142717191Y-110371409D01*
X142703884Y-110377703D01*
X142690024Y-110382662D01*
X142675745Y-110386239D01*
X142661184Y-110388399D01*
X142646481Y-110389121D01*
X141171481Y-110389121D01*
X141156778Y-110388399D01*
X141142217Y-110386239D01*
X141127938Y-110382662D01*
X141114078Y-110377703D01*
X141100771Y-110371409D01*
X141088145Y-110363841D01*
X141076322Y-110355073D01*
X141065415Y-110345187D01*
X141055529Y-110334280D01*
X141046761Y-110322457D01*
X141039193Y-110309831D01*
X141032899Y-110296524D01*
X141027940Y-110282664D01*
X141024363Y-110268385D01*
X141022203Y-110253824D01*
X141021481Y-110239121D01*
X141021481Y-109939121D01*
X141022203Y-109924418D01*
X141024363Y-109909857D01*
X141027940Y-109895578D01*
X141032899Y-109881718D01*
X141039193Y-109868411D01*
X141046761Y-109855785D01*
X141055529Y-109843962D01*
X141065415Y-109833055D01*
X141076322Y-109823169D01*
X141088145Y-109814401D01*
X141100771Y-109806833D01*
X141114078Y-109800539D01*
X141127938Y-109795580D01*
X141142217Y-109792003D01*
X141156778Y-109789843D01*
X141171481Y-109789121D01*
X142646481Y-109789121D01*
X142661184Y-109789843D01*
X142661184Y-109789843D01*
G37*
D18*
X141908981Y-110089121D03*
D10*
G36*
X147786184Y-109789843D02*
G01*
X147800745Y-109792003D01*
X147815024Y-109795580D01*
X147828884Y-109800539D01*
X147842191Y-109806833D01*
X147854817Y-109814401D01*
X147866640Y-109823169D01*
X147877547Y-109833055D01*
X147887433Y-109843962D01*
X147896201Y-109855785D01*
X147903769Y-109868411D01*
X147910063Y-109881718D01*
X147915022Y-109895578D01*
X147918599Y-109909857D01*
X147920759Y-109924418D01*
X147921481Y-109939121D01*
X147921481Y-110239121D01*
X147920759Y-110253824D01*
X147918599Y-110268385D01*
X147915022Y-110282664D01*
X147910063Y-110296524D01*
X147903769Y-110309831D01*
X147896201Y-110322457D01*
X147887433Y-110334280D01*
X147877547Y-110345187D01*
X147866640Y-110355073D01*
X147854817Y-110363841D01*
X147842191Y-110371409D01*
X147828884Y-110377703D01*
X147815024Y-110382662D01*
X147800745Y-110386239D01*
X147786184Y-110388399D01*
X147771481Y-110389121D01*
X146296481Y-110389121D01*
X146281778Y-110388399D01*
X146267217Y-110386239D01*
X146252938Y-110382662D01*
X146239078Y-110377703D01*
X146225771Y-110371409D01*
X146213145Y-110363841D01*
X146201322Y-110355073D01*
X146190415Y-110345187D01*
X146180529Y-110334280D01*
X146171761Y-110322457D01*
X146164193Y-110309831D01*
X146157899Y-110296524D01*
X146152940Y-110282664D01*
X146149363Y-110268385D01*
X146147203Y-110253824D01*
X146146481Y-110239121D01*
X146146481Y-109939121D01*
X146147203Y-109924418D01*
X146149363Y-109909857D01*
X146152940Y-109895578D01*
X146157899Y-109881718D01*
X146164193Y-109868411D01*
X146171761Y-109855785D01*
X146180529Y-109843962D01*
X146190415Y-109833055D01*
X146201322Y-109823169D01*
X146213145Y-109814401D01*
X146225771Y-109806833D01*
X146239078Y-109800539D01*
X146252938Y-109795580D01*
X146267217Y-109792003D01*
X146281778Y-109789843D01*
X146296481Y-109789121D01*
X147771481Y-109789121D01*
X147786184Y-109789843D01*
X147786184Y-109789843D01*
G37*
D18*
X147033981Y-110089121D03*
D10*
G36*
X147786184Y-108519843D02*
G01*
X147800745Y-108522003D01*
X147815024Y-108525580D01*
X147828884Y-108530539D01*
X147842191Y-108536833D01*
X147854817Y-108544401D01*
X147866640Y-108553169D01*
X147877547Y-108563055D01*
X147887433Y-108573962D01*
X147896201Y-108585785D01*
X147903769Y-108598411D01*
X147910063Y-108611718D01*
X147915022Y-108625578D01*
X147918599Y-108639857D01*
X147920759Y-108654418D01*
X147921481Y-108669121D01*
X147921481Y-108969121D01*
X147920759Y-108983824D01*
X147918599Y-108998385D01*
X147915022Y-109012664D01*
X147910063Y-109026524D01*
X147903769Y-109039831D01*
X147896201Y-109052457D01*
X147887433Y-109064280D01*
X147877547Y-109075187D01*
X147866640Y-109085073D01*
X147854817Y-109093841D01*
X147842191Y-109101409D01*
X147828884Y-109107703D01*
X147815024Y-109112662D01*
X147800745Y-109116239D01*
X147786184Y-109118399D01*
X147771481Y-109119121D01*
X146296481Y-109119121D01*
X146281778Y-109118399D01*
X146267217Y-109116239D01*
X146252938Y-109112662D01*
X146239078Y-109107703D01*
X146225771Y-109101409D01*
X146213145Y-109093841D01*
X146201322Y-109085073D01*
X146190415Y-109075187D01*
X146180529Y-109064280D01*
X146171761Y-109052457D01*
X146164193Y-109039831D01*
X146157899Y-109026524D01*
X146152940Y-109012664D01*
X146149363Y-108998385D01*
X146147203Y-108983824D01*
X146146481Y-108969121D01*
X146146481Y-108669121D01*
X146147203Y-108654418D01*
X146149363Y-108639857D01*
X146152940Y-108625578D01*
X146157899Y-108611718D01*
X146164193Y-108598411D01*
X146171761Y-108585785D01*
X146180529Y-108573962D01*
X146190415Y-108563055D01*
X146201322Y-108553169D01*
X146213145Y-108544401D01*
X146225771Y-108536833D01*
X146239078Y-108530539D01*
X146252938Y-108525580D01*
X146267217Y-108522003D01*
X146281778Y-108519843D01*
X146296481Y-108519121D01*
X147771481Y-108519121D01*
X147786184Y-108519843D01*
X147786184Y-108519843D01*
G37*
D18*
X147033981Y-108819121D03*
D10*
G36*
X147786184Y-107249843D02*
G01*
X147800745Y-107252003D01*
X147815024Y-107255580D01*
X147828884Y-107260539D01*
X147842191Y-107266833D01*
X147854817Y-107274401D01*
X147866640Y-107283169D01*
X147877547Y-107293055D01*
X147887433Y-107303962D01*
X147896201Y-107315785D01*
X147903769Y-107328411D01*
X147910063Y-107341718D01*
X147915022Y-107355578D01*
X147918599Y-107369857D01*
X147920759Y-107384418D01*
X147921481Y-107399121D01*
X147921481Y-107699121D01*
X147920759Y-107713824D01*
X147918599Y-107728385D01*
X147915022Y-107742664D01*
X147910063Y-107756524D01*
X147903769Y-107769831D01*
X147896201Y-107782457D01*
X147887433Y-107794280D01*
X147877547Y-107805187D01*
X147866640Y-107815073D01*
X147854817Y-107823841D01*
X147842191Y-107831409D01*
X147828884Y-107837703D01*
X147815024Y-107842662D01*
X147800745Y-107846239D01*
X147786184Y-107848399D01*
X147771481Y-107849121D01*
X146296481Y-107849121D01*
X146281778Y-107848399D01*
X146267217Y-107846239D01*
X146252938Y-107842662D01*
X146239078Y-107837703D01*
X146225771Y-107831409D01*
X146213145Y-107823841D01*
X146201322Y-107815073D01*
X146190415Y-107805187D01*
X146180529Y-107794280D01*
X146171761Y-107782457D01*
X146164193Y-107769831D01*
X146157899Y-107756524D01*
X146152940Y-107742664D01*
X146149363Y-107728385D01*
X146147203Y-107713824D01*
X146146481Y-107699121D01*
X146146481Y-107399121D01*
X146147203Y-107384418D01*
X146149363Y-107369857D01*
X146152940Y-107355578D01*
X146157899Y-107341718D01*
X146164193Y-107328411D01*
X146171761Y-107315785D01*
X146180529Y-107303962D01*
X146190415Y-107293055D01*
X146201322Y-107283169D01*
X146213145Y-107274401D01*
X146225771Y-107266833D01*
X146239078Y-107260539D01*
X146252938Y-107255580D01*
X146267217Y-107252003D01*
X146281778Y-107249843D01*
X146296481Y-107249121D01*
X147771481Y-107249121D01*
X147786184Y-107249843D01*
X147786184Y-107249843D01*
G37*
D18*
X147033981Y-107549121D03*
D10*
G36*
X147786184Y-105979843D02*
G01*
X147800745Y-105982003D01*
X147815024Y-105985580D01*
X147828884Y-105990539D01*
X147842191Y-105996833D01*
X147854817Y-106004401D01*
X147866640Y-106013169D01*
X147877547Y-106023055D01*
X147887433Y-106033962D01*
X147896201Y-106045785D01*
X147903769Y-106058411D01*
X147910063Y-106071718D01*
X147915022Y-106085578D01*
X147918599Y-106099857D01*
X147920759Y-106114418D01*
X147921481Y-106129121D01*
X147921481Y-106429121D01*
X147920759Y-106443824D01*
X147918599Y-106458385D01*
X147915022Y-106472664D01*
X147910063Y-106486524D01*
X147903769Y-106499831D01*
X147896201Y-106512457D01*
X147887433Y-106524280D01*
X147877547Y-106535187D01*
X147866640Y-106545073D01*
X147854817Y-106553841D01*
X147842191Y-106561409D01*
X147828884Y-106567703D01*
X147815024Y-106572662D01*
X147800745Y-106576239D01*
X147786184Y-106578399D01*
X147771481Y-106579121D01*
X146296481Y-106579121D01*
X146281778Y-106578399D01*
X146267217Y-106576239D01*
X146252938Y-106572662D01*
X146239078Y-106567703D01*
X146225771Y-106561409D01*
X146213145Y-106553841D01*
X146201322Y-106545073D01*
X146190415Y-106535187D01*
X146180529Y-106524280D01*
X146171761Y-106512457D01*
X146164193Y-106499831D01*
X146157899Y-106486524D01*
X146152940Y-106472664D01*
X146149363Y-106458385D01*
X146147203Y-106443824D01*
X146146481Y-106429121D01*
X146146481Y-106129121D01*
X146147203Y-106114418D01*
X146149363Y-106099857D01*
X146152940Y-106085578D01*
X146157899Y-106071718D01*
X146164193Y-106058411D01*
X146171761Y-106045785D01*
X146180529Y-106033962D01*
X146190415Y-106023055D01*
X146201322Y-106013169D01*
X146213145Y-106004401D01*
X146225771Y-105996833D01*
X146239078Y-105990539D01*
X146252938Y-105985580D01*
X146267217Y-105982003D01*
X146281778Y-105979843D01*
X146296481Y-105979121D01*
X147771481Y-105979121D01*
X147786184Y-105979843D01*
X147786184Y-105979843D01*
G37*
D18*
X147033981Y-106279121D03*
D19*
X139464260Y-105590340D02*
X141220200Y-105590340D01*
D20*
X141220200Y-105590340D02*
X141908981Y-106279121D01*
X139551760Y-105590340D02*
X141220200Y-105590340D01*
D19*
X137589260Y-107569480D02*
X137606560Y-107586780D01*
X137589260Y-105590340D02*
X137589260Y-107569480D01*
X137606560Y-109580680D02*
X137581160Y-109606080D01*
X137606560Y-107586780D02*
X137606560Y-109580680D01*
X137589260Y-103903780D02*
X137589260Y-105590340D01*
X143436340Y-103418640D02*
X138074400Y-103418640D01*
X138074400Y-103418640D02*
X137589260Y-103903780D01*
D21*
X147033981Y-110089121D02*
X147033981Y-111433879D01*
X145780760Y-112687100D02*
X144569180Y-112687100D01*
X147033981Y-111433879D02*
X145780760Y-112687100D01*
X147033981Y-110089121D02*
X152485919Y-110089121D01*
X152485919Y-110035801D02*
X156611320Y-105910400D01*
X152485919Y-110089121D02*
X152485919Y-110035801D01*
D19*
X144940020Y-101914960D02*
X162448240Y-101914960D01*
X143436340Y-103418640D02*
X144940020Y-101914960D01*
X162448240Y-101914960D02*
X164383720Y-103850440D01*
X164383720Y-107835700D02*
X163205160Y-109014260D01*
X164383720Y-103850440D02*
X164383720Y-107835700D01*
X159715180Y-109014260D02*
X156611320Y-105910400D01*
X163205160Y-109014260D02*
X159715180Y-109014260D01*
D21*
X150193559Y-107549121D02*
X150195280Y-107547400D01*
X147033981Y-107549121D02*
X150193559Y-107549121D01*
X151845280Y-107547400D02*
X152908000Y-106484680D01*
X150195280Y-107547400D02*
X151845280Y-107547400D01*
X152908000Y-106484680D02*
X152908000Y-104648000D01*
X152908000Y-104648000D02*
X154686000Y-102870000D01*
X154686000Y-102870000D02*
X160528000Y-102870000D01*
X162570160Y-104912160D02*
X162570160Y-107741720D01*
X160528000Y-102870000D02*
X162570160Y-104912160D01*
D20*
X147033981Y-104476281D02*
X145976340Y-103418640D01*
X147033981Y-106279121D02*
X147033981Y-104476281D01*
X141871322Y-107586780D02*
X141908981Y-107549121D01*
X139481560Y-107586780D02*
X141871322Y-107586780D01*
X140243119Y-108819121D02*
X141908981Y-108819121D01*
X139456160Y-109606080D02*
X140243119Y-108819121D01*
D21*
X147515580Y-115227100D02*
X150195280Y-112547400D01*
X144569180Y-115227100D02*
X147515580Y-115227100D01*
X151432280Y-111310400D02*
X156611320Y-111310400D01*
X150195280Y-112547400D02*
X151432280Y-111310400D01*
X161541480Y-111310400D02*
X162570160Y-110281720D01*
X156611320Y-111310400D02*
X161541480Y-111310400D01*
X142969180Y-115227100D02*
X144569180Y-115227100D01*
X141908981Y-114166901D02*
X142969180Y-115227100D01*
X141908981Y-110089121D02*
X141908981Y-114166901D01*
D22*
G36*
X164440001Y-116942000D02*
G01*
X136042000Y-116942000D01*
X136042000Y-109149830D01*
X138330588Y-109149830D01*
X138330588Y-110062330D01*
X138347532Y-110234365D01*
X138397713Y-110399789D01*
X138479202Y-110552244D01*
X138588868Y-110685872D01*
X138722496Y-110795538D01*
X138874951Y-110877027D01*
X139040375Y-110927208D01*
X139212410Y-110944152D01*
X139699910Y-110944152D01*
X139871945Y-110927208D01*
X140037369Y-110877027D01*
X140189824Y-110795538D01*
X140323452Y-110685872D01*
X140433118Y-110552244D01*
X140441909Y-110535797D01*
X140443397Y-110540703D01*
X140516223Y-110676950D01*
X140614230Y-110796372D01*
X140733652Y-110894379D01*
X140869899Y-110967205D01*
X140898981Y-110976027D01*
X140898982Y-114117283D01*
X140894095Y-114166901D01*
X140913596Y-114364895D01*
X140971349Y-114555280D01*
X141065135Y-114730741D01*
X141153751Y-114838720D01*
X141191349Y-114884534D01*
X141229882Y-114916157D01*
X142219923Y-115906199D01*
X142251547Y-115944733D01*
X142405340Y-116070947D01*
X142580800Y-116164732D01*
X142771185Y-116222485D01*
X142969180Y-116241986D01*
X143018788Y-116237100D01*
X143104142Y-116237100D01*
X143129678Y-116321280D01*
X143188643Y-116431594D01*
X143267995Y-116528285D01*
X143364686Y-116607637D01*
X143475000Y-116666602D01*
X143594698Y-116702912D01*
X143719180Y-116715172D01*
X145419180Y-116715172D01*
X145543662Y-116702912D01*
X145663360Y-116666602D01*
X145773674Y-116607637D01*
X145870365Y-116528285D01*
X145949717Y-116431594D01*
X146008682Y-116321280D01*
X146034218Y-116237100D01*
X147465972Y-116237100D01*
X147515580Y-116241986D01*
X147713574Y-116222485D01*
X147782482Y-116201582D01*
X147903960Y-116164732D01*
X148079420Y-116070947D01*
X148233213Y-115944733D01*
X148264841Y-115906194D01*
X149240917Y-114930118D01*
X149295280Y-114935472D01*
X151095280Y-114935472D01*
X151219762Y-114923212D01*
X151339460Y-114886902D01*
X151449774Y-114827937D01*
X151546465Y-114748585D01*
X151625817Y-114651894D01*
X151684782Y-114541580D01*
X151721092Y-114421882D01*
X151733352Y-114297400D01*
X151733352Y-112437683D01*
X151850635Y-112320400D01*
X155173248Y-112320400D01*
X155173248Y-112810400D01*
X155190312Y-112983654D01*
X155240848Y-113150250D01*
X155322915Y-113303786D01*
X155433358Y-113438362D01*
X155567934Y-113548805D01*
X155721470Y-113630872D01*
X155888066Y-113681408D01*
X156061320Y-113698472D01*
X157161320Y-113698472D01*
X157334574Y-113681408D01*
X157501170Y-113630872D01*
X157654706Y-113548805D01*
X157789282Y-113438362D01*
X157899725Y-113303786D01*
X157981792Y-113150250D01*
X158032328Y-112983654D01*
X158049392Y-112810400D01*
X158049392Y-112320400D01*
X161491872Y-112320400D01*
X161541480Y-112325286D01*
X161739474Y-112305785D01*
X161929860Y-112248032D01*
X162105320Y-112154247D01*
X162259113Y-112028033D01*
X162290741Y-111989494D01*
X162510443Y-111769792D01*
X163420160Y-111769792D01*
X163544642Y-111757532D01*
X163664340Y-111721222D01*
X163774654Y-111662257D01*
X163871345Y-111582905D01*
X163950697Y-111486214D01*
X164009662Y-111375900D01*
X164045972Y-111256202D01*
X164058232Y-111131720D01*
X164058232Y-109431720D01*
X164045972Y-109307238D01*
X164009662Y-109187540D01*
X163950697Y-109077226D01*
X163871345Y-108980535D01*
X163774654Y-108901183D01*
X163664340Y-108842218D01*
X163595473Y-108821327D01*
X163625294Y-108796854D01*
X163810866Y-108570734D01*
X163948759Y-108312754D01*
X164033673Y-108032831D01*
X164062345Y-107741720D01*
X164033673Y-107450609D01*
X163948759Y-107170686D01*
X163810866Y-106912706D01*
X163625294Y-106686586D01*
X163580160Y-106649545D01*
X163580160Y-104961764D01*
X163585046Y-104912159D01*
X163580160Y-104862552D01*
X163565545Y-104714166D01*
X163507792Y-104523780D01*
X163414007Y-104348320D01*
X163287793Y-104194527D01*
X163249254Y-104162899D01*
X161277261Y-102190906D01*
X161245633Y-102152367D01*
X161091840Y-102026153D01*
X160916380Y-101932368D01*
X160725994Y-101874615D01*
X160577608Y-101860000D01*
X160528000Y-101855114D01*
X160478392Y-101860000D01*
X154735608Y-101860000D01*
X154686000Y-101855114D01*
X154488005Y-101874615D01*
X154303554Y-101930568D01*
X154297620Y-101932368D01*
X154122160Y-102026153D01*
X153968367Y-102152367D01*
X153936744Y-102190901D01*
X152228901Y-103898744D01*
X152190368Y-103930367D01*
X152158745Y-103968900D01*
X152158744Y-103968901D01*
X152064154Y-104084160D01*
X151970368Y-104259621D01*
X151912615Y-104450006D01*
X151893114Y-104648000D01*
X151898001Y-104697617D01*
X151898000Y-106066325D01*
X151733352Y-106230973D01*
X151733352Y-105797400D01*
X151721092Y-105672918D01*
X151684782Y-105553220D01*
X151625817Y-105442906D01*
X151546465Y-105346215D01*
X151449774Y-105266863D01*
X151339460Y-105207898D01*
X151219762Y-105171588D01*
X151095280Y-105159328D01*
X149295280Y-105159328D01*
X149170798Y-105171588D01*
X149051100Y-105207898D01*
X148940786Y-105266863D01*
X148844095Y-105346215D01*
X148764743Y-105442906D01*
X148705778Y-105553220D01*
X148669468Y-105672918D01*
X148657208Y-105797400D01*
X148657208Y-106539121D01*
X148548719Y-106539121D01*
X148559553Y-106429121D01*
X148559553Y-106129121D01*
X148544410Y-105975376D01*
X148499565Y-105827539D01*
X148426739Y-105691292D01*
X148328732Y-105571870D01*
X148209310Y-105473863D01*
X148073063Y-105401037D01*
X147925226Y-105356192D01*
X147918981Y-105355577D01*
X147918981Y-104519746D01*
X147923262Y-104476280D01*
X147918981Y-104432814D01*
X147918981Y-104432804D01*
X147906176Y-104302791D01*
X147855570Y-104135968D01*
X147773392Y-103982222D01*
X147719681Y-103916775D01*
X147690513Y-103881234D01*
X147690511Y-103881232D01*
X147662798Y-103847464D01*
X147629030Y-103819751D01*
X147464412Y-103655133D01*
X147464412Y-102568640D01*
X147452152Y-102444158D01*
X147415842Y-102324460D01*
X147356877Y-102214146D01*
X147277525Y-102117455D01*
X147180834Y-102038103D01*
X147070520Y-101979138D01*
X146950822Y-101942828D01*
X146826340Y-101930568D01*
X145126340Y-101930568D01*
X145001858Y-101942828D01*
X144882160Y-101979138D01*
X144771846Y-102038103D01*
X144675155Y-102117455D01*
X144595803Y-102214146D01*
X144536838Y-102324460D01*
X144500528Y-102444158D01*
X144488268Y-102568640D01*
X144488268Y-104268640D01*
X144500528Y-104393122D01*
X144536838Y-104512820D01*
X144595803Y-104623134D01*
X144675155Y-104719825D01*
X144771846Y-104799177D01*
X144882160Y-104858142D01*
X145001858Y-104894452D01*
X145126340Y-104906712D01*
X146148982Y-104906712D01*
X146148982Y-105223862D01*
X146036331Y-105163649D01*
X145869735Y-105113113D01*
X145696481Y-105096049D01*
X143246481Y-105096049D01*
X143073227Y-105113113D01*
X142906631Y-105163649D01*
X142753095Y-105245716D01*
X142636931Y-105341049D01*
X142222488Y-105341049D01*
X141876734Y-104995296D01*
X141849017Y-104961523D01*
X141714259Y-104850929D01*
X141560513Y-104768751D01*
X141393690Y-104718145D01*
X141263677Y-104705340D01*
X141263669Y-104705340D01*
X141220200Y-104701059D01*
X141176731Y-104705340D01*
X140646374Y-104705340D01*
X140615165Y-104646953D01*
X140504722Y-104512378D01*
X140370147Y-104401935D01*
X140216611Y-104319868D01*
X140050015Y-104269332D01*
X139876761Y-104252268D01*
X139226759Y-104252268D01*
X139053505Y-104269332D01*
X138886909Y-104319868D01*
X138733373Y-104401935D01*
X138598798Y-104512378D01*
X138488355Y-104646953D01*
X138406288Y-104800489D01*
X138355752Y-104967085D01*
X138338688Y-105140339D01*
X138338688Y-106040341D01*
X138355752Y-106213595D01*
X138406288Y-106380191D01*
X138488355Y-106533727D01*
X138540339Y-106597070D01*
X138504602Y-106640616D01*
X138423113Y-106793071D01*
X138372932Y-106958495D01*
X138355988Y-107130530D01*
X138355988Y-108043030D01*
X138372932Y-108215065D01*
X138423113Y-108380489D01*
X138504602Y-108532944D01*
X138544004Y-108580955D01*
X138479202Y-108659916D01*
X138397713Y-108812371D01*
X138347532Y-108977795D01*
X138330588Y-109149830D01*
X136042000Y-109149830D01*
X136042000Y-101244000D01*
X164440000Y-101244000D01*
X164440001Y-116942000D01*
X164440001Y-116942000D01*
G37*
X164440001Y-116942000D02*
X136042000Y-116942000D01*
X136042000Y-109149830D01*
X138330588Y-109149830D01*
X138330588Y-110062330D01*
X138347532Y-110234365D01*
X138397713Y-110399789D01*
X138479202Y-110552244D01*
X138588868Y-110685872D01*
X138722496Y-110795538D01*
X138874951Y-110877027D01*
X139040375Y-110927208D01*
X139212410Y-110944152D01*
X139699910Y-110944152D01*
X139871945Y-110927208D01*
X140037369Y-110877027D01*
X140189824Y-110795538D01*
X140323452Y-110685872D01*
X140433118Y-110552244D01*
X140441909Y-110535797D01*
X140443397Y-110540703D01*
X140516223Y-110676950D01*
X140614230Y-110796372D01*
X140733652Y-110894379D01*
X140869899Y-110967205D01*
X140898981Y-110976027D01*
X140898982Y-114117283D01*
X140894095Y-114166901D01*
X140913596Y-114364895D01*
X140971349Y-114555280D01*
X141065135Y-114730741D01*
X141153751Y-114838720D01*
X141191349Y-114884534D01*
X141229882Y-114916157D01*
X142219923Y-115906199D01*
X142251547Y-115944733D01*
X142405340Y-116070947D01*
X142580800Y-116164732D01*
X142771185Y-116222485D01*
X142969180Y-116241986D01*
X143018788Y-116237100D01*
X143104142Y-116237100D01*
X143129678Y-116321280D01*
X143188643Y-116431594D01*
X143267995Y-116528285D01*
X143364686Y-116607637D01*
X143475000Y-116666602D01*
X143594698Y-116702912D01*
X143719180Y-116715172D01*
X145419180Y-116715172D01*
X145543662Y-116702912D01*
X145663360Y-116666602D01*
X145773674Y-116607637D01*
X145870365Y-116528285D01*
X145949717Y-116431594D01*
X146008682Y-116321280D01*
X146034218Y-116237100D01*
X147465972Y-116237100D01*
X147515580Y-116241986D01*
X147713574Y-116222485D01*
X147782482Y-116201582D01*
X147903960Y-116164732D01*
X148079420Y-116070947D01*
X148233213Y-115944733D01*
X148264841Y-115906194D01*
X149240917Y-114930118D01*
X149295280Y-114935472D01*
X151095280Y-114935472D01*
X151219762Y-114923212D01*
X151339460Y-114886902D01*
X151449774Y-114827937D01*
X151546465Y-114748585D01*
X151625817Y-114651894D01*
X151684782Y-114541580D01*
X151721092Y-114421882D01*
X151733352Y-114297400D01*
X151733352Y-112437683D01*
X151850635Y-112320400D01*
X155173248Y-112320400D01*
X155173248Y-112810400D01*
X155190312Y-112983654D01*
X155240848Y-113150250D01*
X155322915Y-113303786D01*
X155433358Y-113438362D01*
X155567934Y-113548805D01*
X155721470Y-113630872D01*
X155888066Y-113681408D01*
X156061320Y-113698472D01*
X157161320Y-113698472D01*
X157334574Y-113681408D01*
X157501170Y-113630872D01*
X157654706Y-113548805D01*
X157789282Y-113438362D01*
X157899725Y-113303786D01*
X157981792Y-113150250D01*
X158032328Y-112983654D01*
X158049392Y-112810400D01*
X158049392Y-112320400D01*
X161491872Y-112320400D01*
X161541480Y-112325286D01*
X161739474Y-112305785D01*
X161929860Y-112248032D01*
X162105320Y-112154247D01*
X162259113Y-112028033D01*
X162290741Y-111989494D01*
X162510443Y-111769792D01*
X163420160Y-111769792D01*
X163544642Y-111757532D01*
X163664340Y-111721222D01*
X163774654Y-111662257D01*
X163871345Y-111582905D01*
X163950697Y-111486214D01*
X164009662Y-111375900D01*
X164045972Y-111256202D01*
X164058232Y-111131720D01*
X164058232Y-109431720D01*
X164045972Y-109307238D01*
X164009662Y-109187540D01*
X163950697Y-109077226D01*
X163871345Y-108980535D01*
X163774654Y-108901183D01*
X163664340Y-108842218D01*
X163595473Y-108821327D01*
X163625294Y-108796854D01*
X163810866Y-108570734D01*
X163948759Y-108312754D01*
X164033673Y-108032831D01*
X164062345Y-107741720D01*
X164033673Y-107450609D01*
X163948759Y-107170686D01*
X163810866Y-106912706D01*
X163625294Y-106686586D01*
X163580160Y-106649545D01*
X163580160Y-104961764D01*
X163585046Y-104912159D01*
X163580160Y-104862552D01*
X163565545Y-104714166D01*
X163507792Y-104523780D01*
X163414007Y-104348320D01*
X163287793Y-104194527D01*
X163249254Y-104162899D01*
X161277261Y-102190906D01*
X161245633Y-102152367D01*
X161091840Y-102026153D01*
X160916380Y-101932368D01*
X160725994Y-101874615D01*
X160577608Y-101860000D01*
X160528000Y-101855114D01*
X160478392Y-101860000D01*
X154735608Y-101860000D01*
X154686000Y-101855114D01*
X154488005Y-101874615D01*
X154303554Y-101930568D01*
X154297620Y-101932368D01*
X154122160Y-102026153D01*
X153968367Y-102152367D01*
X153936744Y-102190901D01*
X152228901Y-103898744D01*
X152190368Y-103930367D01*
X152158745Y-103968900D01*
X152158744Y-103968901D01*
X152064154Y-104084160D01*
X151970368Y-104259621D01*
X151912615Y-104450006D01*
X151893114Y-104648000D01*
X151898001Y-104697617D01*
X151898000Y-106066325D01*
X151733352Y-106230973D01*
X151733352Y-105797400D01*
X151721092Y-105672918D01*
X151684782Y-105553220D01*
X151625817Y-105442906D01*
X151546465Y-105346215D01*
X151449774Y-105266863D01*
X151339460Y-105207898D01*
X151219762Y-105171588D01*
X151095280Y-105159328D01*
X149295280Y-105159328D01*
X149170798Y-105171588D01*
X149051100Y-105207898D01*
X148940786Y-105266863D01*
X148844095Y-105346215D01*
X148764743Y-105442906D01*
X148705778Y-105553220D01*
X148669468Y-105672918D01*
X148657208Y-105797400D01*
X148657208Y-106539121D01*
X148548719Y-106539121D01*
X148559553Y-106429121D01*
X148559553Y-106129121D01*
X148544410Y-105975376D01*
X148499565Y-105827539D01*
X148426739Y-105691292D01*
X148328732Y-105571870D01*
X148209310Y-105473863D01*
X148073063Y-105401037D01*
X147925226Y-105356192D01*
X147918981Y-105355577D01*
X147918981Y-104519746D01*
X147923262Y-104476280D01*
X147918981Y-104432814D01*
X147918981Y-104432804D01*
X147906176Y-104302791D01*
X147855570Y-104135968D01*
X147773392Y-103982222D01*
X147719681Y-103916775D01*
X147690513Y-103881234D01*
X147690511Y-103881232D01*
X147662798Y-103847464D01*
X147629030Y-103819751D01*
X147464412Y-103655133D01*
X147464412Y-102568640D01*
X147452152Y-102444158D01*
X147415842Y-102324460D01*
X147356877Y-102214146D01*
X147277525Y-102117455D01*
X147180834Y-102038103D01*
X147070520Y-101979138D01*
X146950822Y-101942828D01*
X146826340Y-101930568D01*
X145126340Y-101930568D01*
X145001858Y-101942828D01*
X144882160Y-101979138D01*
X144771846Y-102038103D01*
X144675155Y-102117455D01*
X144595803Y-102214146D01*
X144536838Y-102324460D01*
X144500528Y-102444158D01*
X144488268Y-102568640D01*
X144488268Y-104268640D01*
X144500528Y-104393122D01*
X144536838Y-104512820D01*
X144595803Y-104623134D01*
X144675155Y-104719825D01*
X144771846Y-104799177D01*
X144882160Y-104858142D01*
X145001858Y-104894452D01*
X145126340Y-104906712D01*
X146148982Y-104906712D01*
X146148982Y-105223862D01*
X146036331Y-105163649D01*
X145869735Y-105113113D01*
X145696481Y-105096049D01*
X143246481Y-105096049D01*
X143073227Y-105113113D01*
X142906631Y-105163649D01*
X142753095Y-105245716D01*
X142636931Y-105341049D01*
X142222488Y-105341049D01*
X141876734Y-104995296D01*
X141849017Y-104961523D01*
X141714259Y-104850929D01*
X141560513Y-104768751D01*
X141393690Y-104718145D01*
X141263677Y-104705340D01*
X141263669Y-104705340D01*
X141220200Y-104701059D01*
X141176731Y-104705340D01*
X140646374Y-104705340D01*
X140615165Y-104646953D01*
X140504722Y-104512378D01*
X140370147Y-104401935D01*
X140216611Y-104319868D01*
X140050015Y-104269332D01*
X139876761Y-104252268D01*
X139226759Y-104252268D01*
X139053505Y-104269332D01*
X138886909Y-104319868D01*
X138733373Y-104401935D01*
X138598798Y-104512378D01*
X138488355Y-104646953D01*
X138406288Y-104800489D01*
X138355752Y-104967085D01*
X138338688Y-105140339D01*
X138338688Y-106040341D01*
X138355752Y-106213595D01*
X138406288Y-106380191D01*
X138488355Y-106533727D01*
X138540339Y-106597070D01*
X138504602Y-106640616D01*
X138423113Y-106793071D01*
X138372932Y-106958495D01*
X138355988Y-107130530D01*
X138355988Y-108043030D01*
X138372932Y-108215065D01*
X138423113Y-108380489D01*
X138504602Y-108532944D01*
X138544004Y-108580955D01*
X138479202Y-108659916D01*
X138397713Y-108812371D01*
X138347532Y-108977795D01*
X138330588Y-109149830D01*
X136042000Y-109149830D01*
X136042000Y-101244000D01*
X164440000Y-101244000D01*
X164440001Y-116942000D01*
G36*
X161560160Y-105330515D02*
G01*
X161560161Y-106649545D01*
X161515026Y-106686586D01*
X161329454Y-106912706D01*
X161191561Y-107170686D01*
X161106647Y-107450609D01*
X161077975Y-107741720D01*
X161106647Y-108032831D01*
X161191561Y-108312754D01*
X161329454Y-108570734D01*
X161515026Y-108796854D01*
X161544847Y-108821327D01*
X161475980Y-108842218D01*
X161365666Y-108901183D01*
X161268975Y-108980535D01*
X161189623Y-109077226D01*
X161130658Y-109187540D01*
X161094348Y-109307238D01*
X161082088Y-109431720D01*
X161082088Y-110300400D01*
X158049392Y-110300400D01*
X158049392Y-109810400D01*
X158032328Y-109637146D01*
X157981792Y-109470550D01*
X157899725Y-109317014D01*
X157789282Y-109182438D01*
X157654706Y-109071995D01*
X157501170Y-108989928D01*
X157334574Y-108939392D01*
X157161320Y-108922328D01*
X156061320Y-108922328D01*
X155888066Y-108939392D01*
X155721470Y-108989928D01*
X155567934Y-109071995D01*
X155433358Y-109182438D01*
X155322915Y-109317014D01*
X155240848Y-109470550D01*
X155190312Y-109637146D01*
X155173248Y-109810400D01*
X155173248Y-110300400D01*
X151490639Y-110300400D01*
X151449774Y-110266863D01*
X151339460Y-110207898D01*
X151219762Y-110171588D01*
X151095280Y-110159328D01*
X149295280Y-110159328D01*
X149170798Y-110171588D01*
X149051100Y-110207898D01*
X148940786Y-110266863D01*
X148844095Y-110346215D01*
X148764743Y-110442906D01*
X148705778Y-110553220D01*
X148669468Y-110672918D01*
X148657208Y-110797400D01*
X148657208Y-112657117D01*
X147097225Y-114217100D01*
X146034218Y-114217100D01*
X146008682Y-114132920D01*
X145949717Y-114022606D01*
X145870365Y-113925915D01*
X145773674Y-113846563D01*
X145663360Y-113787598D01*
X145543662Y-113751288D01*
X145419180Y-113739028D01*
X143719180Y-113739028D01*
X143594698Y-113751288D01*
X143475000Y-113787598D01*
X143364686Y-113846563D01*
X143267995Y-113925915D01*
X143190626Y-114020190D01*
X142918981Y-113748546D01*
X142918981Y-111208339D01*
X143073227Y-111255129D01*
X143246481Y-111272193D01*
X145696481Y-111272193D01*
X145869735Y-111255129D01*
X146036331Y-111204593D01*
X146189867Y-111122526D01*
X146307030Y-111026373D01*
X146748231Y-111024121D01*
X146906981Y-110865371D01*
X146906981Y-110216121D01*
X147160981Y-110216121D01*
X147160981Y-110865371D01*
X147319731Y-111024121D01*
X147921481Y-111027193D01*
X148045963Y-111014933D01*
X148165661Y-110978623D01*
X148275975Y-110919658D01*
X148372666Y-110840306D01*
X148452018Y-110743615D01*
X148510983Y-110633301D01*
X148547293Y-110513603D01*
X148559553Y-110389121D01*
X148556481Y-110374871D01*
X148397731Y-110216121D01*
X147160981Y-110216121D01*
X146906981Y-110216121D01*
X146886981Y-110216121D01*
X146886981Y-109962121D01*
X146906981Y-109962121D01*
X146906981Y-109942121D01*
X147160981Y-109942121D01*
X147160981Y-109962121D01*
X148397731Y-109962121D01*
X148556481Y-109803371D01*
X148559553Y-109789121D01*
X148547293Y-109664639D01*
X148510983Y-109544941D01*
X148452018Y-109434627D01*
X148427751Y-109405057D01*
X148499565Y-109270703D01*
X148544410Y-109122866D01*
X148559553Y-108969121D01*
X148559553Y-108669121D01*
X148548719Y-108559121D01*
X148657208Y-108559121D01*
X148657208Y-109297400D01*
X148669468Y-109421882D01*
X148705778Y-109541580D01*
X148764743Y-109651894D01*
X148844095Y-109748585D01*
X148940786Y-109827937D01*
X149051100Y-109886902D01*
X149170798Y-109923212D01*
X149295280Y-109935472D01*
X151095280Y-109935472D01*
X151219762Y-109923212D01*
X151339460Y-109886902D01*
X151449774Y-109827937D01*
X151546465Y-109748585D01*
X151625817Y-109651894D01*
X151684782Y-109541580D01*
X151721092Y-109421882D01*
X151733352Y-109297400D01*
X151733352Y-108557400D01*
X151795672Y-108557400D01*
X151845280Y-108562286D01*
X152043274Y-108542785D01*
X152133629Y-108515376D01*
X152233660Y-108485032D01*
X152409120Y-108391247D01*
X152562913Y-108265033D01*
X152594541Y-108226494D01*
X153587094Y-107233941D01*
X153625633Y-107202313D01*
X153751847Y-107048520D01*
X153845632Y-106873060D01*
X153903385Y-106682674D01*
X153918000Y-106534288D01*
X153918000Y-106534286D01*
X153922886Y-106484681D01*
X153918000Y-106435076D01*
X153918000Y-105066355D01*
X155104356Y-103880000D01*
X160109645Y-103880000D01*
X161560160Y-105330515D01*
X161560160Y-105330515D01*
G37*
X161560160Y-105330515D02*
X161560161Y-106649545D01*
X161515026Y-106686586D01*
X161329454Y-106912706D01*
X161191561Y-107170686D01*
X161106647Y-107450609D01*
X161077975Y-107741720D01*
X161106647Y-108032831D01*
X161191561Y-108312754D01*
X161329454Y-108570734D01*
X161515026Y-108796854D01*
X161544847Y-108821327D01*
X161475980Y-108842218D01*
X161365666Y-108901183D01*
X161268975Y-108980535D01*
X161189623Y-109077226D01*
X161130658Y-109187540D01*
X161094348Y-109307238D01*
X161082088Y-109431720D01*
X161082088Y-110300400D01*
X158049392Y-110300400D01*
X158049392Y-109810400D01*
X158032328Y-109637146D01*
X157981792Y-109470550D01*
X157899725Y-109317014D01*
X157789282Y-109182438D01*
X157654706Y-109071995D01*
X157501170Y-108989928D01*
X157334574Y-108939392D01*
X157161320Y-108922328D01*
X156061320Y-108922328D01*
X155888066Y-108939392D01*
X155721470Y-108989928D01*
X155567934Y-109071995D01*
X155433358Y-109182438D01*
X155322915Y-109317014D01*
X155240848Y-109470550D01*
X155190312Y-109637146D01*
X155173248Y-109810400D01*
X155173248Y-110300400D01*
X151490639Y-110300400D01*
X151449774Y-110266863D01*
X151339460Y-110207898D01*
X151219762Y-110171588D01*
X151095280Y-110159328D01*
X149295280Y-110159328D01*
X149170798Y-110171588D01*
X149051100Y-110207898D01*
X148940786Y-110266863D01*
X148844095Y-110346215D01*
X148764743Y-110442906D01*
X148705778Y-110553220D01*
X148669468Y-110672918D01*
X148657208Y-110797400D01*
X148657208Y-112657117D01*
X147097225Y-114217100D01*
X146034218Y-114217100D01*
X146008682Y-114132920D01*
X145949717Y-114022606D01*
X145870365Y-113925915D01*
X145773674Y-113846563D01*
X145663360Y-113787598D01*
X145543662Y-113751288D01*
X145419180Y-113739028D01*
X143719180Y-113739028D01*
X143594698Y-113751288D01*
X143475000Y-113787598D01*
X143364686Y-113846563D01*
X143267995Y-113925915D01*
X143190626Y-114020190D01*
X142918981Y-113748546D01*
X142918981Y-111208339D01*
X143073227Y-111255129D01*
X143246481Y-111272193D01*
X145696481Y-111272193D01*
X145869735Y-111255129D01*
X146036331Y-111204593D01*
X146189867Y-111122526D01*
X146307030Y-111026373D01*
X146748231Y-111024121D01*
X146906981Y-110865371D01*
X146906981Y-110216121D01*
X147160981Y-110216121D01*
X147160981Y-110865371D01*
X147319731Y-111024121D01*
X147921481Y-111027193D01*
X148045963Y-111014933D01*
X148165661Y-110978623D01*
X148275975Y-110919658D01*
X148372666Y-110840306D01*
X148452018Y-110743615D01*
X148510983Y-110633301D01*
X148547293Y-110513603D01*
X148559553Y-110389121D01*
X148556481Y-110374871D01*
X148397731Y-110216121D01*
X147160981Y-110216121D01*
X146906981Y-110216121D01*
X146886981Y-110216121D01*
X146886981Y-109962121D01*
X146906981Y-109962121D01*
X146906981Y-109942121D01*
X147160981Y-109942121D01*
X147160981Y-109962121D01*
X148397731Y-109962121D01*
X148556481Y-109803371D01*
X148559553Y-109789121D01*
X148547293Y-109664639D01*
X148510983Y-109544941D01*
X148452018Y-109434627D01*
X148427751Y-109405057D01*
X148499565Y-109270703D01*
X148544410Y-109122866D01*
X148559553Y-108969121D01*
X148559553Y-108669121D01*
X148548719Y-108559121D01*
X148657208Y-108559121D01*
X148657208Y-109297400D01*
X148669468Y-109421882D01*
X148705778Y-109541580D01*
X148764743Y-109651894D01*
X148844095Y-109748585D01*
X148940786Y-109827937D01*
X149051100Y-109886902D01*
X149170798Y-109923212D01*
X149295280Y-109935472D01*
X151095280Y-109935472D01*
X151219762Y-109923212D01*
X151339460Y-109886902D01*
X151449774Y-109827937D01*
X151546465Y-109748585D01*
X151625817Y-109651894D01*
X151684782Y-109541580D01*
X151721092Y-109421882D01*
X151733352Y-109297400D01*
X151733352Y-108557400D01*
X151795672Y-108557400D01*
X151845280Y-108562286D01*
X152043274Y-108542785D01*
X152133629Y-108515376D01*
X152233660Y-108485032D01*
X152409120Y-108391247D01*
X152562913Y-108265033D01*
X152594541Y-108226494D01*
X153587094Y-107233941D01*
X153625633Y-107202313D01*
X153751847Y-107048520D01*
X153845632Y-106873060D01*
X153903385Y-106682674D01*
X153918000Y-106534288D01*
X153918000Y-106534286D01*
X153922886Y-106484681D01*
X153918000Y-106435076D01*
X153918000Y-105066355D01*
X155104356Y-103880000D01*
X160109645Y-103880000D01*
X161560160Y-105330515D01*
M02*
